<svg xmlns="http://www.w3.org/2000/svg" xmlns:xlink="http://www.w3.org/1999/xlink" width="1324" zoomAndPan="magnify" viewBox="0 0 993 599.999999" height="800" preserveAspectRatio="xMidYMid meet" version="1.0"><defs><radialGradient gradientTransform="matrix(1, 0, 0, 1, 0.0000004965, 0.00002)" gradientUnits="userSpaceOnUse" r="580.096754" cx="496.5" id="1db264de5c" cy="300" fx="496.5" fy="300"><stop stop-opacity="1" stop-color="rgb(55.819702%, 37.738037%, 0.151062%)" offset="0"/><stop stop-opacity="1" stop-color="rgb(56.062317%, 38.017273%, 0.453186%)" offset="0.00390625"/><stop stop-opacity="1" stop-color="rgb(56.303406%, 38.296509%, 0.756836%)" offset="0.0078125"/><stop stop-opacity="1" stop-color="rgb(56.546021%, 38.574219%, 1.05896%)" offset="0.0117188"/><stop stop-opacity="1" stop-color="rgb(56.788635%, 38.853455%, 1.36261%)" offset="0.015625"/><stop stop-opacity="1" stop-color="rgb(57.03125%, 39.13269%, 1.66626%)" offset="0.0195312"/><stop stop-opacity="1" stop-color="rgb(57.272339%, 39.411926%, 1.968384%)" offset="0.0234375"/><stop stop-opacity="1" stop-color="rgb(57.514954%, 39.691162%, 2.272034%)" offset="0.0273438"/><stop stop-opacity="1" stop-color="rgb(57.757568%, 39.968872%, 2.575684%)" offset="0.03125"/><stop stop-opacity="1" stop-color="rgb(58.000183%, 40.248108%, 2.877808%)" offset="0.0351562"/><stop stop-opacity="1" stop-color="rgb(58.241272%, 40.527344%, 3.181458%)" offset="0.0390625"/><stop stop-opacity="1" stop-color="rgb(58.483887%, 40.80658%, 3.485107%)" offset="0.0429688"/><stop stop-opacity="1" stop-color="rgb(58.726501%, 41.08429%, 3.787231%)" offset="0.046875"/><stop stop-opacity="1" stop-color="rgb(58.96759%, 41.363525%, 4.090881%)" offset="0.0507812"/><stop stop-opacity="1" stop-color="rgb(59.210205%, 41.642761%, 4.394531%)" offset="0.0546875"/><stop stop-opacity="1" stop-color="rgb(59.45282%, 41.921997%, 4.696655%)" offset="0.0585938"/><stop stop-opacity="1" stop-color="rgb(59.695435%, 42.201233%, 5.000305%)" offset="0.0625"/><stop stop-opacity="1" stop-color="rgb(59.936523%, 42.478943%, 5.303955%)" offset="0.0664062"/><stop stop-opacity="1" stop-color="rgb(60.179138%, 42.758179%, 5.606079%)" offset="0.0703125"/><stop stop-opacity="1" stop-color="rgb(60.421753%, 43.037415%, 5.909729%)" offset="0.0742188"/><stop stop-opacity="1" stop-color="rgb(60.662842%, 43.31665%, 6.213379%)" offset="0.078125"/><stop stop-opacity="1" stop-color="rgb(60.905457%, 43.595886%, 6.515503%)" offset="0.0820312"/><stop stop-opacity="1" stop-color="rgb(61.148071%, 43.873596%, 6.819153%)" offset="0.0859375"/><stop stop-opacity="1" stop-color="rgb(61.390686%, 44.152832%, 7.122803%)" offset="0.0898438"/><stop stop-opacity="1" stop-color="rgb(61.631775%, 44.432068%, 7.424927%)" offset="0.09375"/><stop stop-opacity="1" stop-color="rgb(61.87439%, 44.711304%, 7.728577%)" offset="0.0976562"/><stop stop-opacity="1" stop-color="rgb(62.117004%, 44.989014%, 8.032227%)" offset="0.101562"/><stop stop-opacity="1" stop-color="rgb(62.358093%, 45.26825%, 8.334351%)" offset="0.105469"/><stop stop-opacity="1" stop-color="rgb(62.600708%, 45.547485%, 8.638%)" offset="0.109375"/><stop stop-opacity="1" stop-color="rgb(62.843323%, 45.826721%, 8.94165%)" offset="0.113281"/><stop stop-opacity="1" stop-color="rgb(63.085938%, 46.105957%, 9.243774%)" offset="0.117188"/><stop stop-opacity="1" stop-color="rgb(63.327026%, 46.383667%, 9.547424%)" offset="0.121094"/><stop stop-opacity="1" stop-color="rgb(63.569641%, 46.662903%, 9.849548%)" offset="0.125"/><stop stop-opacity="1" stop-color="rgb(63.812256%, 46.942139%, 10.153198%)" offset="0.128906"/><stop stop-opacity="1" stop-color="rgb(64.054871%, 47.221375%, 10.456848%)" offset="0.132812"/><stop stop-opacity="1" stop-color="rgb(64.295959%, 47.499084%, 10.758972%)" offset="0.136719"/><stop stop-opacity="1" stop-color="rgb(64.538574%, 47.77832%, 11.062622%)" offset="0.140625"/><stop stop-opacity="1" stop-color="rgb(64.781189%, 48.057556%, 11.366272%)" offset="0.144531"/><stop stop-opacity="1" stop-color="rgb(65.022278%, 48.336792%, 11.668396%)" offset="0.148438"/><stop stop-opacity="1" stop-color="rgb(65.264893%, 48.616028%, 11.972046%)" offset="0.152344"/><stop stop-opacity="1" stop-color="rgb(65.507507%, 48.893738%, 12.275696%)" offset="0.15625"/><stop stop-opacity="1" stop-color="rgb(65.750122%, 49.172974%, 12.57782%)" offset="0.160156"/><stop stop-opacity="1" stop-color="rgb(65.991211%, 49.452209%, 12.88147%)" offset="0.164062"/><stop stop-opacity="1" stop-color="rgb(66.233826%, 49.731445%, 13.18512%)" offset="0.167969"/><stop stop-opacity="1" stop-color="rgb(66.47644%, 50.010681%, 13.487244%)" offset="0.171875"/><stop stop-opacity="1" stop-color="rgb(66.717529%, 50.288391%, 13.790894%)" offset="0.175781"/><stop stop-opacity="1" stop-color="rgb(66.960144%, 50.567627%, 14.094543%)" offset="0.179688"/><stop stop-opacity="1" stop-color="rgb(67.202759%, 50.846863%, 14.396667%)" offset="0.183594"/><stop stop-opacity="1" stop-color="rgb(67.445374%, 51.126099%, 14.700317%)" offset="0.1875"/><stop stop-opacity="1" stop-color="rgb(67.686462%, 51.403809%, 15.003967%)" offset="0.191406"/><stop stop-opacity="1" stop-color="rgb(67.929077%, 51.683044%, 15.306091%)" offset="0.195312"/><stop stop-opacity="1" stop-color="rgb(68.171692%, 51.96228%, 15.609741%)" offset="0.199219"/><stop stop-opacity="1" stop-color="rgb(68.412781%, 52.241516%, 15.913391%)" offset="0.203125"/><stop stop-opacity="1" stop-color="rgb(68.655396%, 52.520752%, 16.215515%)" offset="0.207031"/><stop stop-opacity="1" stop-color="rgb(68.89801%, 52.798462%, 16.519165%)" offset="0.210938"/><stop stop-opacity="1" stop-color="rgb(69.140625%, 53.077698%, 16.822815%)" offset="0.214844"/><stop stop-opacity="1" stop-color="rgb(69.381714%, 53.356934%, 17.124939%)" offset="0.21875"/><stop stop-opacity="1" stop-color="rgb(69.624329%, 53.636169%, 17.428589%)" offset="0.222656"/><stop stop-opacity="1" stop-color="rgb(69.866943%, 53.915405%, 17.732239%)" offset="0.226562"/><stop stop-opacity="1" stop-color="rgb(70.109558%, 54.193115%, 18.034363%)" offset="0.230469"/><stop stop-opacity="1" stop-color="rgb(70.350647%, 54.472351%, 18.338013%)" offset="0.234375"/><stop stop-opacity="1" stop-color="rgb(70.593262%, 54.751587%, 18.641663%)" offset="0.238281"/><stop stop-opacity="1" stop-color="rgb(70.835876%, 55.030823%, 18.943787%)" offset="0.242188"/><stop stop-opacity="1" stop-color="rgb(71.076965%, 55.308533%, 19.247437%)" offset="0.246094"/><stop stop-opacity="1" stop-color="rgb(71.31958%, 55.587769%, 19.549561%)" offset="0.25"/><stop stop-opacity="1" stop-color="rgb(71.562195%, 55.867004%, 19.85321%)" offset="0.253906"/><stop stop-opacity="1" stop-color="rgb(71.80481%, 56.14624%, 20.15686%)" offset="0.257812"/><stop stop-opacity="1" stop-color="rgb(72.045898%, 56.425476%, 20.458984%)" offset="0.261719"/><stop stop-opacity="1" stop-color="rgb(72.288513%, 56.703186%, 20.762634%)" offset="0.265625"/><stop stop-opacity="1" stop-color="rgb(72.531128%, 56.982422%, 21.066284%)" offset="0.269531"/><stop stop-opacity="1" stop-color="rgb(72.772217%, 57.261658%, 21.368408%)" offset="0.273438"/><stop stop-opacity="1" stop-color="rgb(73.014832%, 57.540894%, 21.672058%)" offset="0.277344"/><stop stop-opacity="1" stop-color="rgb(73.257446%, 57.818604%, 21.975708%)" offset="0.28125"/><stop stop-opacity="1" stop-color="rgb(73.500061%, 58.097839%, 22.277832%)" offset="0.285156"/><stop stop-opacity="1" stop-color="rgb(73.74115%, 58.377075%, 22.581482%)" offset="0.289062"/><stop stop-opacity="1" stop-color="rgb(73.983765%, 58.656311%, 22.885132%)" offset="0.292969"/><stop stop-opacity="1" stop-color="rgb(74.226379%, 58.935547%, 23.187256%)" offset="0.296875"/><stop stop-opacity="1" stop-color="rgb(74.467468%, 59.213257%, 23.490906%)" offset="0.300781"/><stop stop-opacity="1" stop-color="rgb(74.710083%, 59.492493%, 23.794556%)" offset="0.304688"/><stop stop-opacity="1" stop-color="rgb(74.952698%, 59.771729%, 24.09668%)" offset="0.308594"/><stop stop-opacity="1" stop-color="rgb(75.195312%, 60.050964%, 24.40033%)" offset="0.3125"/><stop stop-opacity="1" stop-color="rgb(75.436401%, 60.3302%, 24.703979%)" offset="0.316406"/><stop stop-opacity="1" stop-color="rgb(75.679016%, 60.60791%, 25.006104%)" offset="0.320312"/><stop stop-opacity="1" stop-color="rgb(75.921631%, 60.887146%, 25.309753%)" offset="0.324219"/><stop stop-opacity="1" stop-color="rgb(76.164246%, 61.166382%, 25.613403%)" offset="0.328125"/><stop stop-opacity="1" stop-color="rgb(76.405334%, 61.445618%, 25.915527%)" offset="0.332031"/><stop stop-opacity="1" stop-color="rgb(76.647949%, 61.723328%, 26.219177%)" offset="0.335938"/><stop stop-opacity="1" stop-color="rgb(76.890564%, 62.002563%, 26.522827%)" offset="0.339844"/><stop stop-opacity="1" stop-color="rgb(77.131653%, 62.281799%, 26.824951%)" offset="0.34375"/><stop stop-opacity="1" stop-color="rgb(77.374268%, 62.561035%, 27.128601%)" offset="0.347656"/><stop stop-opacity="1" stop-color="rgb(77.616882%, 62.840271%, 27.432251%)" offset="0.351562"/><stop stop-opacity="1" stop-color="rgb(77.859497%, 63.117981%, 27.734375%)" offset="0.355469"/><stop stop-opacity="1" stop-color="rgb(78.100586%, 63.397217%, 28.038025%)" offset="0.359375"/><stop stop-opacity="1" stop-color="rgb(78.343201%, 63.676453%, 28.341675%)" offset="0.363281"/><stop stop-opacity="1" stop-color="rgb(78.585815%, 63.955688%, 28.643799%)" offset="0.367188"/><stop stop-opacity="1" stop-color="rgb(78.826904%, 64.234924%, 28.947449%)" offset="0.371094"/><stop stop-opacity="1" stop-color="rgb(79.069519%, 64.512634%, 29.249573%)" offset="0.375"/><stop stop-opacity="1" stop-color="rgb(79.312134%, 64.79187%, 29.553223%)" offset="0.378906"/><stop stop-opacity="1" stop-color="rgb(79.554749%, 65.071106%, 29.856873%)" offset="0.382812"/><stop stop-opacity="1" stop-color="rgb(79.795837%, 65.350342%, 30.158997%)" offset="0.386719"/><stop stop-opacity="1" stop-color="rgb(80.038452%, 65.628052%, 30.462646%)" offset="0.390625"/><stop stop-opacity="1" stop-color="rgb(80.281067%, 65.907288%, 30.766296%)" offset="0.394531"/><stop stop-opacity="1" stop-color="rgb(80.522156%, 66.186523%, 31.06842%)" offset="0.398438"/><stop stop-opacity="1" stop-color="rgb(80.764771%, 66.465759%, 31.37207%)" offset="0.402344"/><stop stop-opacity="1" stop-color="rgb(81.007385%, 66.744995%, 31.67572%)" offset="0.40625"/><stop stop-opacity="1" stop-color="rgb(81.25%, 67.022705%, 31.977844%)" offset="0.410156"/><stop stop-opacity="1" stop-color="rgb(81.491089%, 67.301941%, 32.281494%)" offset="0.414062"/><stop stop-opacity="1" stop-color="rgb(81.733704%, 67.581177%, 32.585144%)" offset="0.417969"/><stop stop-opacity="1" stop-color="rgb(81.976318%, 67.860413%, 32.887268%)" offset="0.421875"/><stop stop-opacity="1" stop-color="rgb(82.218933%, 68.138123%, 33.190918%)" offset="0.425781"/><stop stop-opacity="1" stop-color="rgb(82.460022%, 68.417358%, 33.494568%)" offset="0.429688"/><stop stop-opacity="1" stop-color="rgb(82.702637%, 68.696594%, 33.796692%)" offset="0.433594"/><stop stop-opacity="1" stop-color="rgb(82.945251%, 68.97583%, 34.100342%)" offset="0.4375"/><stop stop-opacity="1" stop-color="rgb(83.18634%, 69.255066%, 34.403992%)" offset="0.441406"/><stop stop-opacity="1" stop-color="rgb(83.428955%, 69.532776%, 34.706116%)" offset="0.445312"/><stop stop-opacity="1" stop-color="rgb(83.67157%, 69.812012%, 35.009766%)" offset="0.449219"/><stop stop-opacity="1" stop-color="rgb(83.914185%, 70.091248%, 35.313416%)" offset="0.453125"/><stop stop-opacity="1" stop-color="rgb(84.155273%, 70.370483%, 35.61554%)" offset="0.457031"/><stop stop-opacity="1" stop-color="rgb(84.397888%, 70.649719%, 35.919189%)" offset="0.460938"/><stop stop-opacity="1" stop-color="rgb(84.640503%, 70.927429%, 36.222839%)" offset="0.464844"/><stop stop-opacity="1" stop-color="rgb(84.881592%, 71.206665%, 36.524963%)" offset="0.46875"/><stop stop-opacity="1" stop-color="rgb(85.124207%, 71.485901%, 36.828613%)" offset="0.472656"/><stop stop-opacity="1" stop-color="rgb(85.366821%, 71.765137%, 37.132263%)" offset="0.476562"/><stop stop-opacity="1" stop-color="rgb(85.609436%, 72.042847%, 37.434387%)" offset="0.480469"/><stop stop-opacity="1" stop-color="rgb(85.850525%, 72.322083%, 37.738037%)" offset="0.484375"/><stop stop-opacity="1" stop-color="rgb(86.09314%, 72.601318%, 38.041687%)" offset="0.488281"/><stop stop-opacity="1" stop-color="rgb(86.335754%, 72.880554%, 38.343811%)" offset="0.492188"/><stop stop-opacity="1" stop-color="rgb(86.576843%, 73.15979%, 38.647461%)" offset="0.496094"/><stop stop-opacity="1" stop-color="rgb(86.698914%, 73.298645%, 38.798523%)" offset="1"/></radialGradient><clipPath id="f3c59a30da"><path d="M 608 412 L 665 412 L 665 468 L 608 468 Z M 608 412 " clip-rule="nonzero"/></clipPath><clipPath id="067e78e1ac"><path d="M 439.796875 2.089844 L 810.226562 245.511719 L 566.804688 615.9375 L 196.375 372.515625 Z M 439.796875 2.089844 " clip-rule="nonzero"/></clipPath><clipPath id="36096950bc"><path d="M 439.796875 2.089844 L 810.226562 245.511719 L 566.804688 615.9375 L 196.375 372.515625 Z M 439.796875 2.089844 " clip-rule="nonzero"/></clipPath><clipPath id="f00f11bf80"><path d="M 541 447 L 610 447 L 610 517 L 541 517 Z M 541 447 " clip-rule="nonzero"/></clipPath><clipPath id="96bef5bb74"><path d="M 439.796875 2.089844 L 810.226562 245.511719 L 566.804688 615.9375 L 196.375 372.515625 Z M 439.796875 2.089844 " clip-rule="nonzero"/></clipPath><clipPath id="a1cbbc2c73"><path d="M 439.796875 2.089844 L 810.226562 245.511719 L 566.804688 615.9375 L 196.375 372.515625 Z M 439.796875 2.089844 " clip-rule="nonzero"/></clipPath><clipPath id="8313018558"><path d="M 467 459 L 542 459 L 542 535 L 467 535 Z M 467 459 " clip-rule="nonzero"/></clipPath><clipPath id="014b77d213"><path d="M 439.796875 2.089844 L 810.226562 245.511719 L 566.804688 615.9375 L 196.375 372.515625 Z M 439.796875 2.089844 " clip-rule="nonzero"/></clipPath><clipPath id="86e6a500a2"><path d="M 439.796875 2.089844 L 810.226562 245.511719 L 566.804688 615.9375 L 196.375 372.515625 Z M 439.796875 2.089844 " clip-rule="nonzero"/></clipPath><clipPath id="03257901e4"><path d="M 399 448 L 468 448 L 468 518 L 399 518 Z M 399 448 " clip-rule="nonzero"/></clipPath><clipPath id="8be65cc84b"><path d="M 439.796875 2.089844 L 810.226562 245.511719 L 566.804688 615.9375 L 196.375 372.515625 Z M 439.796875 2.089844 " clip-rule="nonzero"/></clipPath><clipPath id="d241a581f6"><path d="M 439.796875 2.089844 L 810.226562 245.511719 L 566.804688 615.9375 L 196.375 372.515625 Z M 439.796875 2.089844 " clip-rule="nonzero"/></clipPath><clipPath id="561d82234d"><path d="M 344 414 L 401 414 L 401 470 L 344 470 Z M 344 414 " clip-rule="nonzero"/></clipPath><clipPath id="5b63e30645"><path d="M 439.796875 2.089844 L 810.226562 245.511719 L 566.804688 615.9375 L 196.375 372.515625 Z M 439.796875 2.089844 " clip-rule="nonzero"/></clipPath><clipPath id="7c12688bb0"><path d="M 439.796875 2.089844 L 810.226562 245.511719 L 566.804688 615.9375 L 196.375 372.515625 Z M 439.796875 2.089844 " clip-rule="nonzero"/></clipPath><clipPath id="48acc4f13d"><path d="M 295 346 L 365 346 L 365 415 L 295 415 Z M 295 346 " clip-rule="nonzero"/></clipPath><clipPath id="ffd5660a1a"><path d="M 439.796875 2.089844 L 810.226562 245.511719 L 566.804688 615.9375 L 196.375 372.515625 Z M 439.796875 2.089844 " clip-rule="nonzero"/></clipPath><clipPath id="f2153b8d9c"><path d="M 439.796875 2.089844 L 810.226562 245.511719 L 566.804688 615.9375 L 196.375 372.515625 Z M 439.796875 2.089844 " clip-rule="nonzero"/></clipPath><clipPath id="b704d9a3a2"><path d="M 277 273 L 353 273 L 353 347 L 277 347 Z M 277 273 " clip-rule="nonzero"/></clipPath><clipPath id="6556568ecd"><path d="M 439.796875 2.089844 L 810.226562 245.511719 L 566.804688 615.9375 L 196.375 372.515625 Z M 439.796875 2.089844 " clip-rule="nonzero"/></clipPath><clipPath id="e9d82df8c6"><path d="M 439.796875 2.089844 L 810.226562 245.511719 L 566.804688 615.9375 L 196.375 372.515625 Z M 439.796875 2.089844 " clip-rule="nonzero"/></clipPath><clipPath id="6a8cbdd091"><path d="M 294 205 L 364 205 L 364 274 L 294 274 Z M 294 205 " clip-rule="nonzero"/></clipPath><clipPath id="4e3acc5b2f"><path d="M 439.796875 2.089844 L 810.226562 245.511719 L 566.804688 615.9375 L 196.375 372.515625 Z M 439.796875 2.089844 " clip-rule="nonzero"/></clipPath><clipPath id="7c2b4b3725"><path d="M 439.796875 2.089844 L 810.226562 245.511719 L 566.804688 615.9375 L 196.375 372.515625 Z M 439.796875 2.089844 " clip-rule="nonzero"/></clipPath><clipPath id="7e5442b4bb"><path d="M 342 150 L 398 150 L 398 206 L 342 206 Z M 342 150 " clip-rule="nonzero"/></clipPath><clipPath id="10f5ddb202"><path d="M 439.796875 2.089844 L 810.226562 245.511719 L 566.804688 615.9375 L 196.375 372.515625 Z M 439.796875 2.089844 " clip-rule="nonzero"/></clipPath><clipPath id="76c207f190"><path d="M 439.796875 2.089844 L 810.226562 245.511719 L 566.804688 615.9375 L 196.375 372.515625 Z M 439.796875 2.089844 " clip-rule="nonzero"/></clipPath><clipPath id="c0526121a0"><path d="M 397 101 L 466 101 L 466 170 L 397 170 Z M 397 101 " clip-rule="nonzero"/></clipPath><clipPath id="a56a5d1add"><path d="M 439.796875 2.089844 L 810.226562 245.511719 L 566.804688 615.9375 L 196.375 372.515625 Z M 439.796875 2.089844 " clip-rule="nonzero"/></clipPath><clipPath id="b279af88aa"><path d="M 439.796875 2.089844 L 810.226562 245.511719 L 566.804688 615.9375 L 196.375 372.515625 Z M 439.796875 2.089844 " clip-rule="nonzero"/></clipPath><clipPath id="8b61dd317f"><path d="M 465 83 L 539 83 L 539 158 L 465 158 Z M 465 83 " clip-rule="nonzero"/></clipPath><clipPath id="0f7573ba43"><path d="M 439.796875 2.089844 L 810.226562 245.511719 L 566.804688 615.9375 L 196.375 372.515625 Z M 439.796875 2.089844 " clip-rule="nonzero"/></clipPath><clipPath id="8d8ef8de6d"><path d="M 439.796875 2.089844 L 810.226562 245.511719 L 566.804688 615.9375 L 196.375 372.515625 Z M 439.796875 2.089844 " clip-rule="nonzero"/></clipPath><clipPath id="5d41e76424"><path d="M 538 99 L 607 99 L 607 169 L 538 169 Z M 538 99 " clip-rule="nonzero"/></clipPath><clipPath id="4484b03833"><path d="M 439.796875 2.089844 L 810.226562 245.511719 L 566.804688 615.9375 L 196.375 372.515625 Z M 439.796875 2.089844 " clip-rule="nonzero"/></clipPath><clipPath id="d6211f00ad"><path d="M 439.796875 2.089844 L 810.226562 245.511719 L 566.804688 615.9375 L 196.375 372.515625 Z M 439.796875 2.089844 " clip-rule="nonzero"/></clipPath><clipPath id="72a14ba0da"><path d="M 606 147 L 662 147 L 662 204 L 606 204 Z M 606 147 " clip-rule="nonzero"/></clipPath><clipPath id="638841663a"><path d="M 439.796875 2.089844 L 810.226562 245.511719 L 566.804688 615.9375 L 196.375 372.515625 Z M 439.796875 2.089844 " clip-rule="nonzero"/></clipPath><clipPath id="d9c9ed1a1d"><path d="M 439.796875 2.089844 L 810.226562 245.511719 L 566.804688 615.9375 L 196.375 372.515625 Z M 439.796875 2.089844 " clip-rule="nonzero"/></clipPath><clipPath id="f4ff57140d"><path d="M 642 202 L 712 202 L 712 271 L 642 271 Z M 642 202 " clip-rule="nonzero"/></clipPath><clipPath id="287079decb"><path d="M 439.796875 2.089844 L 810.226562 245.511719 L 566.804688 615.9375 L 196.375 372.515625 Z M 439.796875 2.089844 " clip-rule="nonzero"/></clipPath><clipPath id="c0d2440eb5"><path d="M 439.796875 2.089844 L 810.226562 245.511719 L 566.804688 615.9375 L 196.375 372.515625 Z M 439.796875 2.089844 " clip-rule="nonzero"/></clipPath><clipPath id="114af88311"><path d="M 654 270 L 729 270 L 729 345 L 654 345 Z M 654 270 " clip-rule="nonzero"/></clipPath><clipPath id="5c8f83bdc3"><path d="M 439.796875 2.089844 L 810.226562 245.511719 L 566.804688 615.9375 L 196.375 372.515625 Z M 439.796875 2.089844 " clip-rule="nonzero"/></clipPath><clipPath id="c718b86d3a"><path d="M 439.796875 2.089844 L 810.226562 245.511719 L 566.804688 615.9375 L 196.375 372.515625 Z M 439.796875 2.089844 " clip-rule="nonzero"/></clipPath><clipPath id="9d25cdedcc"><path d="M 643 344 L 713 344 L 713 413 L 643 413 Z M 643 344 " clip-rule="nonzero"/></clipPath><clipPath id="d878161340"><path d="M 439.796875 2.089844 L 810.226562 245.511719 L 566.804688 615.9375 L 196.375 372.515625 Z M 439.796875 2.089844 " clip-rule="nonzero"/></clipPath><clipPath id="84e38ccb7d"><path d="M 439.796875 2.089844 L 810.226562 245.511719 L 566.804688 615.9375 L 196.375 372.515625 Z M 439.796875 2.089844 " clip-rule="nonzero"/></clipPath><clipPath id="373ceba395"><path d="M 362.164062 168.136719 L 644.164062 168.136719 L 644.164062 446.386719 L 362.164062 446.386719 Z M 362.164062 168.136719 " clip-rule="nonzero"/></clipPath><clipPath id="c1950c40c4"><path d="M 25.988281 60.1875 L 248.738281 60.1875 L 248.738281 282.9375 L 25.988281 282.9375 Z M 25.988281 60.1875 " clip-rule="nonzero"/></clipPath><clipPath id="781698a7c2"><path d="M 748.179688 318.507812 L 970.929688 318.507812 L 970.929688 541.257812 L 748.179688 541.257812 Z M 748.179688 318.507812 " clip-rule="nonzero"/></clipPath><clipPath id="b9154f081c"><path d="M 25.988281 60.1875 L 248.738281 60.1875 L 248.738281 282.9375 L 25.988281 282.9375 Z M 25.988281 60.1875 " clip-rule="nonzero"/></clipPath></defs><rect x="-99.3" width="1191.6" fill="#ffffff" y="-60" height="719.999999" fill-opacity="1"/><rect x="-99.3" fill="url(#1db264de5c)" width="1191.6" y="-60" height="719.999999"/><g clip-path="url(#f3c59a30da)"><g clip-path="url(#067e78e1ac)"><g clip-path="url(#36096950bc)"><path fill="#8e6600" d="M 652.285156 440.582031 C 654.488281 444.707031 656.535156 448.835938 658.503906 453.042969 C 660.476562 457.253906 662.378906 461.539062 664.203125 465.902344 C 664.523438 466.675781 663.632812 467.609375 662.863281 467.308594 C 654.078125 463.816406 645.535156 459.957031 637.332031 455.835938 C 637.101562 455.71875 636.828125 455.71875 636.582031 455.824219 L 629.933594 458.480469 C 628.828125 458.90625 627.753906 459.359375 626.636719 459.75 L 623.285156 460.886719 C 621.046875 461.617188 618.878906 462.398438 616.644531 463.042969 L 609.96875 464.882812 C 609.191406 465.09375 608.585938 464.195312 609.046875 463.53125 L 612.902344 457.953125 C 614.152344 456.089844 615.296875 454.128906 616.464844 452.25 L 618.1875 449.417969 C 618.75 448.472656 619.261719 447.472656 619.792969 446.511719 L 622.886719 440.742188 C 622.996094 440.523438 622.992188 440.253906 622.890625 440.019531 C 619.15625 431.601562 615.136719 423.507812 610.773438 415.675781 C 610.382812 414.972656 610.96875 414.347656 611.667969 414.722656 C 615.621094 416.835938 619.652344 418.871094 623.757812 420.832031 C 627.867188 422.796875 632.050781 424.683594 636.222656 426.414062 C 636.457031 426.511719 636.71875 426.503906 636.933594 426.386719 L 642.707031 423.242188 C 644.617188 422.144531 646.457031 420.960938 648.363281 419.792969 L 651.21875 418.011719 C 652.175781 417.414062 653.058594 416.753906 653.988281 416.121094 L 659.554688 412.210938 C 660.214844 411.742188 661.121094 412.332031 660.917969 413.113281 L 659.136719 419.78125 C 658.824219 420.898438 658.546875 422.050781 658.191406 423.148438 L 657.113281 426.46875 C 656.371094 428.683594 655.660156 430.953125 654.847656 433.175781 L 652.25 439.820312 C 652.148438 440.070312 652.164062 440.351562 652.285156 440.582031 Z M 652.285156 440.582031 " fill-opacity="1" fill-rule="nonzero"/></g></g></g><g clip-path="url(#f00f11bf80)"><g clip-path="url(#96bef5bb74)"><g clip-path="url(#a1cbbc2c73)"><path fill="#8e6600" d="M 590.507812 487.59375 C 590.953125 492.25 591.253906 496.84375 591.457031 501.488281 C 591.660156 506.136719 591.769531 510.828125 591.777344 515.554688 C 591.777344 516.390625 590.597656 516.914062 590.003906 516.335938 C 583.226562 509.699219 576.84375 502.910156 570.847656 495.929688 C 570.679688 495.726562 570.425781 495.613281 570.152344 495.609375 C 565.335938 495.574219 560.644531 495.582031 555.941406 495.195312 C 551.289062 494.980469 546.636719 494.351562 542.121094 493.816406 C 541.320312 493.71875 541.105469 492.65625 541.785156 492.214844 C 545.625 489.703125 549.386719 487.328125 552.953125 484.605469 C 556.566406 482.050781 559.96875 479.175781 563.300781 476.425781 C 563.484375 476.269531 563.59375 476.035156 563.585938 475.777344 C 563.382812 466.597656 562.765625 457.523438 561.769531 448.648438 C 561.675781 447.851562 562.457031 447.496094 562.960938 448.109375 C 565.796875 451.578125 568.734375 455.003906 571.769531 458.390625 C 574.808594 461.78125 577.949219 465.136719 581.132812 468.339844 C 581.3125 468.519531 581.558594 468.613281 581.800781 468.589844 L 588.339844 467.910156 C 590.511719 467.609375 592.679688 467.25 594.886719 466.902344 C 595.984375 466.722656 597.101562 466.558594 598.203125 466.355469 L 601.480469 465.664062 C 603.667969 465.183594 605.917969 464.746094 608.121094 464.1875 C 608.890625 463.980469 609.503906 464.875 609.035156 465.542969 C 607.691406 467.40625 606.253906 469.179688 604.832031 471.023438 L 602.671875 473.777344 C 601.929688 474.675781 601.160156 475.539062 600.398438 476.429688 C 598.863281 478.1875 597.320312 479.988281 595.726562 481.75 L 590.769531 486.878906 C 590.582031 487.074219 590.484375 487.335938 590.507812 487.59375 Z M 590.507812 487.59375 " fill-opacity="1" fill-rule="nonzero"/></g></g></g><g clip-path="url(#8313018558)"><g clip-path="url(#014b77d213)"><g clip-path="url(#86e6a500a2)"><path fill="#8e6600" d="M 515.46875 507.386719 C 512.734375 516.171875 509.574219 524.941406 505.984375 533.71875 C 505.667969 534.484375 504.378906 534.472656 504.046875 533.707031 C 502.179688 529.363281 500.414062 525.015625 498.757812 520.667969 C 497.105469 516.324219 495.554688 511.988281 494.117188 507.539062 C 494.035156 507.292969 493.84375 507.085938 493.59375 506.984375 L 487.007812 504.246094 C 484.847656 503.257812 482.714844 502.21875 480.609375 501.210938 C 479.554688 500.699219 478.507812 500.210938 477.46875 499.679688 L 474.390625 498.007812 C 472.355469 496.882812 470.332031 495.824219 468.359375 494.648438 C 467.664062 494.21875 467.871094 493.15625 468.660156 493.039062 C 470.902344 492.679688 473.140625 492.1875 475.339844 491.761719 L 478.625 491.097656 C 479.714844 490.84375 480.804688 490.554688 481.886719 490.28125 C 484.050781 489.726562 486.183594 489.191406 488.296875 488.609375 L 494.566406 486.636719 C 494.800781 486.5625 494.988281 486.382812 495.082031 486.144531 C 496.734375 481.9375 498.285156 477.613281 499.726562 473.296875 C 501.167969 468.984375 502.503906 464.671875 503.734375 460.363281 C 503.953125 459.601562 504.808594 459.617188 505.042969 460.382812 C 507.648438 468.925781 510.679688 477.5 514.136719 486.011719 C 514.234375 486.246094 514.425781 486.421875 514.660156 486.488281 C 518.808594 487.691406 523.070312 488.984375 527.402344 489.890625 C 531.753906 490.976562 536.152344 491.664062 540.671875 492.445312 C 541.472656 492.578125 541.695312 493.640625 541 494.046875 C 537.066406 496.332031 533.046875 498.757812 528.859375 500.800781 C 524.699219 503.019531 520.386719 504.875 515.980469 506.820312 C 515.730469 506.929688 515.542969 507.136719 515.46875 507.386719 Z M 515.46875 507.386719 " fill-opacity="1" fill-rule="nonzero"/></g></g></g><g clip-path="url(#03257901e4)"><g clip-path="url(#8be65cc84b)"><g clip-path="url(#d241a581f6)"><path fill="#8e6600" d="M 438.535156 496.964844 C 432.640625 504.007812 426.328125 510.9375 419.652344 517.628906 C 419.066406 518.210938 417.875 517.707031 417.867188 516.871094 C 417.808594 512.140625 417.851562 507.453125 417.992188 502.804688 C 418.132812 498.164062 418.371094 493.558594 418.753906 488.898438 C 418.777344 488.636719 418.679688 488.375 418.488281 488.1875 L 413.464844 483.121094 C 411.835938 481.402344 410.28125 479.597656 408.726562 477.859375 L 406.417969 475.242188 C 405.652344 474.371094 404.941406 473.425781 404.210938 472.527344 L 399.933594 467.109375 C 399.433594 466.472656 400.03125 465.570312 400.824219 465.738281 L 407.488281 467.121094 C 408.589844 467.335938 409.664062 467.589844 410.78125 467.757812 L 414.105469 468.261719 C 416.316406 468.574219 418.480469 468.933594 420.664062 469.183594 L 427.214844 469.777344 C 427.457031 469.796875 427.699219 469.703125 427.878906 469.519531 C 431.019531 466.277344 434.109375 462.886719 437.105469 459.449219 C 440.09375 456.019531 442.988281 452.550781 445.777344 449.046875 C 446.273438 448.425781 447.058594 448.765625 446.976562 449.5625 C 446.078125 458.484375 445.601562 467.511719 445.515625 476.71875 C 445.511719 476.976562 445.617188 477.222656 445.804688 477.382812 L 450.933594 481.445312 C 451.804688 482.121094 452.667969 482.835938 453.5625 483.480469 L 456.265625 485.394531 C 458.085938 486.65625 459.910156 488.003906 461.796875 489.214844 L 467.550781 492.808594 C 468.238281 493.234375 468.039062 494.300781 467.238281 494.414062 L 460.382812 495.375 C 458.078125 495.667969 455.777344 495.8125 453.433594 496.027344 L 449.90625 496.316406 C 448.726562 496.398438 447.558594 496.410156 446.375 496.457031 L 439.21875 496.660156 C 438.949219 496.660156 438.699219 496.765625 438.535156 496.964844 Z M 438.535156 496.964844 " fill-opacity="1" fill-rule="nonzero"/></g></g></g><g clip-path="url(#561d82234d)"><g clip-path="url(#5b63e30645)"><g clip-path="url(#7c12688bb0)"><path fill="#8e6600" d="M 371.507812 457.847656 C 367.378906 460.050781 363.25 462.097656 359.042969 464.066406 C 354.832031 466.042969 350.546875 467.941406 346.183594 469.765625 C 345.414062 470.085938 344.476562 469.195312 344.78125 468.425781 C 348.269531 459.640625 352.128906 451.097656 356.253906 442.898438 C 356.367188 442.664062 356.371094 442.394531 356.261719 442.144531 L 353.605469 435.496094 C 353.179688 434.390625 352.726562 433.316406 352.335938 432.199219 L 351.203125 428.847656 C 350.46875 426.609375 349.6875 424.441406 349.042969 422.207031 L 347.203125 415.535156 C 346.992188 414.753906 347.890625 414.148438 348.554688 414.609375 L 354.136719 418.464844 C 355.996094 419.714844 357.957031 420.859375 359.839844 422.027344 L 362.667969 423.75 C 363.613281 424.3125 364.613281 424.824219 365.578125 425.355469 L 371.34375 428.449219 C 371.5625 428.558594 371.832031 428.558594 372.066406 428.453125 C 380.484375 424.71875 388.582031 420.699219 396.414062 416.335938 C 397.113281 415.945312 397.738281 416.53125 397.363281 417.230469 C 395.253906 421.183594 393.214844 425.214844 391.253906 429.320312 C 389.289062 433.429688 387.402344 437.613281 385.671875 441.785156 C 385.574219 442.023438 385.585938 442.28125 385.699219 442.496094 L 388.84375 448.269531 C 389.941406 450.179688 391.125 452.023438 392.292969 453.925781 L 394.074219 456.78125 C 394.671875 457.738281 395.332031 458.621094 395.964844 459.550781 L 399.878906 465.117188 C 400.347656 465.777344 399.753906 466.683594 398.976562 466.480469 L 392.304688 464.703125 C 391.1875 464.386719 390.039062 464.113281 388.9375 463.753906 L 385.617188 462.675781 C 383.40625 461.933594 381.132812 461.222656 378.910156 460.414062 L 372.265625 457.8125 C 372.015625 457.710938 371.738281 457.726562 371.507812 457.847656 Z M 371.507812 457.847656 " fill-opacity="1" fill-rule="nonzero"/></g></g></g><g clip-path="url(#48acc4f13d)"><g clip-path="url(#ffd5660a1a)"><g clip-path="url(#f2153b8d9c)"><path fill="#8e6600" d="M 324.492188 396.074219 C 319.835938 396.519531 315.242188 396.816406 310.597656 397.019531 C 305.949219 397.226562 301.261719 397.332031 296.53125 397.339844 C 295.695312 397.339844 295.171875 396.160156 295.75 395.566406 C 302.386719 388.789062 309.179688 382.410156 316.160156 376.414062 C 316.359375 376.242188 316.476562 375.988281 316.476562 375.71875 C 316.511719 370.902344 316.507812 366.207031 316.890625 361.507812 C 317.105469 356.851562 317.734375 352.203125 318.273438 347.683594 C 318.371094 346.882812 319.433594 346.667969 319.871094 347.347656 C 322.382812 351.1875 324.757812 354.953125 327.480469 358.515625 C 330.035156 362.128906 332.914062 365.53125 335.660156 368.863281 C 335.816406 369.050781 336.054688 369.15625 336.308594 369.152344 C 345.492188 368.949219 354.566406 368.328125 363.441406 367.332031 C 364.238281 367.238281 364.589844 368.019531 363.976562 368.523438 C 360.511719 371.359375 357.082031 374.296875 353.695312 377.335938 C 350.304688 380.371094 346.949219 383.511719 343.746094 386.695312 C 343.566406 386.875 343.476562 387.121094 343.5 387.363281 L 344.175781 393.902344 C 344.480469 396.074219 344.835938 398.242188 345.183594 400.449219 C 345.363281 401.550781 345.527344 402.664062 345.730469 403.769531 L 346.421875 407.046875 C 346.90625 409.234375 347.34375 411.480469 347.902344 413.683594 C 348.105469 414.457031 347.214844 415.066406 346.542969 414.597656 C 344.683594 413.253906 342.910156 411.816406 341.066406 410.394531 L 338.308594 408.234375 C 337.414062 407.492188 336.546875 406.722656 335.660156 405.960938 C 333.898438 404.425781 332.101562 402.882812 330.335938 401.289062 L 325.207031 396.332031 C 325.015625 396.144531 324.75 396.050781 324.492188 396.074219 Z M 324.492188 396.074219 " fill-opacity="1" fill-rule="nonzero"/></g></g></g><g clip-path="url(#b704d9a3a2)"><g clip-path="url(#6556568ecd)"><g clip-path="url(#e9d82df8c6)"><path fill="#8e6600" d="M 304.699219 321.03125 C 295.914062 318.296875 287.148438 315.136719 278.367188 311.550781 C 277.601562 311.230469 277.613281 309.941406 278.382812 309.609375 C 282.722656 307.742188 287.070312 305.980469 291.417969 304.324219 C 295.761719 302.667969 300.097656 301.117188 304.546875 299.679688 C 304.796875 299.597656 305 299.40625 305.101562 299.15625 L 307.839844 292.570312 C 308.828125 290.410156 309.867188 288.277344 310.875 286.171875 C 311.386719 285.117188 311.875 284.070312 312.40625 283.035156 L 314.078125 279.953125 C 315.207031 277.917969 316.261719 275.898438 317.4375 273.921875 C 317.867188 273.226562 318.929688 273.433594 319.046875 274.226562 C 319.40625 276.46875 319.898438 278.707031 320.324219 280.902344 L 320.992188 284.1875 C 321.242188 285.277344 321.535156 286.367188 321.804688 287.449219 C 322.363281 289.613281 322.894531 291.746094 323.476562 293.859375 L 325.449219 300.132812 C 325.523438 300.363281 325.703125 300.550781 325.941406 300.644531 C 330.148438 302.296875 334.472656 303.847656 338.789062 305.289062 C 343.101562 306.734375 347.414062 308.070312 351.722656 309.296875 C 352.484375 309.515625 352.46875 310.375 351.703125 310.605469 C 343.160156 313.210938 334.585938 316.246094 326.078125 319.703125 C 325.839844 319.796875 325.664062 319.988281 325.597656 320.222656 C 324.394531 324.371094 323.105469 328.636719 322.195312 332.964844 C 321.109375 337.316406 320.421875 341.714844 319.640625 346.238281 C 319.507812 347.035156 318.449219 347.257812 318.039062 346.5625 C 315.753906 342.628906 313.332031 338.609375 311.289062 334.425781 C 309.070312 330.261719 307.214844 325.949219 305.269531 321.542969 C 305.160156 321.296875 304.953125 321.109375 304.699219 321.03125 Z M 304.699219 321.03125 " fill-opacity="1" fill-rule="nonzero"/></g></g></g><g clip-path="url(#6a8cbdd091)"><g clip-path="url(#4e3acc5b2f)"><g clip-path="url(#7c2b4b3725)"><path fill="#8e6600" d="M 315.121094 244.097656 C 308.082031 238.207031 301.148438 231.894531 294.460938 225.214844 C 293.875 224.628906 294.382812 223.4375 295.21875 223.429688 C 299.945312 223.371094 304.632812 223.414062 309.28125 223.554688 C 313.925781 223.695312 318.527344 223.933594 323.1875 224.320312 C 323.449219 224.339844 323.710938 224.242188 323.902344 224.050781 L 328.96875 219.027344 C 330.6875 217.398438 332.488281 215.847656 334.226562 214.289062 L 336.84375 211.980469 C 337.714844 211.214844 338.660156 210.507812 339.558594 209.773438 L 344.976562 205.496094 C 345.613281 205 346.515625 205.597656 346.347656 206.390625 L 344.964844 213.050781 C 344.753906 214.15625 344.496094 215.226562 344.328125 216.34375 L 343.828125 219.667969 C 343.511719 221.882812 343.15625 224.042969 342.90625 226.230469 L 342.308594 232.777344 C 342.289062 233.019531 342.382812 233.261719 342.566406 233.441406 C 345.8125 236.582031 349.203125 239.675781 352.636719 242.667969 C 356.066406 245.660156 359.535156 248.550781 363.042969 251.339844 C 363.664062 251.835938 363.320312 252.621094 362.523438 252.539062 C 353.601562 251.640625 344.578125 251.164062 335.367188 251.078125 C 335.109375 251.078125 334.863281 251.179688 334.707031 251.367188 L 330.640625 256.496094 C 329.96875 257.367188 329.253906 258.234375 328.605469 259.125 L 326.691406 261.828125 C 325.429688 263.648438 324.085938 265.476562 322.871094 267.363281 L 319.277344 273.113281 C 318.851562 273.800781 317.789062 273.605469 317.671875 272.804688 L 316.710938 265.949219 C 316.417969 263.640625 316.273438 261.339844 316.058594 258.996094 L 315.769531 255.46875 C 315.6875 254.289062 315.675781 253.125 315.628906 251.941406 L 315.425781 244.78125 C 315.429688 244.511719 315.320312 244.261719 315.121094 244.097656 Z M 315.121094 244.097656 " fill-opacity="1" fill-rule="nonzero"/></g></g></g><g clip-path="url(#7e5442b4bb)"><g clip-path="url(#10f5ddb202)"><g clip-path="url(#76c207f190)"><path fill="#8e6600" d="M 354.238281 177.070312 C 352.035156 172.945312 349.988281 168.8125 348.019531 164.609375 C 346.046875 160.398438 344.144531 156.109375 342.324219 151.75 C 342 150.976562 342.890625 150.042969 343.660156 150.34375 C 352.445312 153.835938 360.988281 157.691406 369.191406 161.816406 C 369.421875 161.933594 369.695312 161.933594 369.941406 161.828125 L 376.589844 159.171875 C 377.695312 158.746094 378.769531 158.292969 379.886719 157.902344 L 383.238281 156.765625 C 385.476562 156.03125 387.644531 155.253906 389.878906 154.605469 L 396.554688 152.765625 C 397.332031 152.554688 397.9375 153.453125 397.476562 154.117188 L 393.621094 159.699219 C 392.371094 161.558594 391.226562 163.523438 390.058594 165.402344 L 388.335938 168.230469 C 387.773438 169.179688 387.261719 170.175781 386.730469 171.140625 L 383.636719 176.90625 C 383.527344 177.125 383.53125 177.394531 383.632812 177.628906 C 387.367188 186.046875 391.386719 194.144531 395.75 201.976562 C 396.140625 202.675781 395.554688 203.300781 394.855469 202.929688 C 390.902344 200.816406 386.871094 198.777344 382.765625 196.820312 C 378.65625 194.851562 374.472656 192.96875 370.300781 191.238281 C 370.066406 191.136719 369.804688 191.148438 369.589844 191.265625 L 363.816406 194.410156 C 361.90625 195.507812 360.066406 196.691406 358.160156 197.859375 L 355.304688 199.636719 C 354.347656 200.234375 353.464844 200.894531 352.535156 201.53125 L 346.96875 205.441406 C 346.308594 205.910156 345.402344 205.320312 345.605469 204.539062 L 347.386719 197.867188 C 347.699219 196.753906 347.976562 195.601562 348.332031 194.5 L 349.414062 191.183594 C 350.152344 188.96875 350.863281 186.695312 351.675781 184.472656 L 354.273438 177.832031 C 354.375 177.578125 354.359375 177.300781 354.238281 177.070312 Z M 354.238281 177.070312 " fill-opacity="1" fill-rule="nonzero"/></g></g></g><g clip-path="url(#c0526121a0)"><g clip-path="url(#a56a5d1add)"><g clip-path="url(#b279af88aa)"><path fill="#8e6600" d="M 416.015625 130.054688 C 415.570312 125.398438 415.269531 120.804688 415.066406 116.160156 C 414.863281 111.515625 414.753906 106.824219 414.746094 102.097656 C 414.746094 101.257812 415.925781 100.738281 416.519531 101.3125 C 423.296875 107.949219 429.679688 114.742188 435.675781 121.722656 C 435.84375 121.921875 436.097656 122.039062 436.371094 122.039062 C 441.1875 122.078125 445.878906 122.070312 450.582031 122.453125 C 455.234375 122.667969 459.886719 123.296875 464.402344 123.835938 C 465.203125 123.933594 465.417969 124.996094 464.738281 125.4375 C 460.898438 127.949219 457.136719 130.320312 453.570312 133.046875 C 449.957031 135.597656 446.554688 138.476562 443.226562 141.226562 C 443.039062 141.378906 442.933594 141.617188 442.9375 141.871094 C 443.140625 151.054688 443.757812 160.128906 444.753906 169.003906 C 444.847656 169.800781 444.066406 170.15625 443.5625 169.539062 C 440.726562 166.074219 437.789062 162.644531 434.753906 159.257812 C 431.714844 155.871094 428.574219 152.515625 425.390625 149.3125 C 425.210938 149.128906 424.964844 149.039062 424.722656 149.0625 L 418.183594 149.742188 C 416.011719 150.042969 413.84375 150.402344 411.636719 150.746094 C 410.539062 150.929688 409.421875 151.09375 408.320312 151.296875 L 405.042969 151.988281 C 402.855469 152.46875 400.605469 152.90625 398.402344 153.464844 C 397.632812 153.671875 397.019531 152.777344 397.488281 152.109375 C 398.832031 150.246094 400.269531 148.472656 401.691406 146.628906 L 403.855469 143.875 C 404.59375 142.976562 405.363281 142.109375 406.125 141.222656 C 407.660156 139.460938 409.203125 137.664062 410.796875 135.898438 L 415.753906 130.769531 C 415.941406 130.578125 416.039062 130.316406 416.015625 130.054688 Z M 416.015625 130.054688 " fill-opacity="1" fill-rule="nonzero"/></g></g></g><g clip-path="url(#8b61dd317f)"><g clip-path="url(#0f7573ba43)"><g clip-path="url(#8d8ef8de6d)"><path fill="#8e6600" d="M 491.054688 110.265625 C 493.789062 101.476562 496.949219 92.710938 500.539062 83.929688 C 500.855469 83.164062 502.144531 83.175781 502.476562 83.945312 C 504.34375 88.289062 506.109375 92.636719 507.765625 96.984375 C 509.421875 101.328125 510.96875 105.660156 512.410156 110.109375 C 512.488281 110.359375 512.679688 110.5625 512.929688 110.664062 L 519.515625 113.40625 C 521.679688 114.394531 523.808594 115.429688 525.914062 116.4375 C 526.96875 116.949219 528.015625 117.441406 529.054688 117.96875 L 532.132812 119.640625 C 534.167969 120.769531 536.191406 121.828125 538.164062 123.003906 C 538.859375 123.429688 538.652344 124.492188 537.863281 124.609375 C 535.621094 124.972656 533.382812 125.460938 531.183594 125.890625 L 527.898438 126.554688 C 526.808594 126.804688 525.71875 127.097656 524.636719 127.367188 C 522.472656 127.925781 520.339844 128.457031 518.230469 129.042969 L 511.957031 131.015625 C 511.722656 131.089844 511.535156 131.269531 511.441406 131.507812 C 509.789062 135.710938 508.238281 140.039062 506.796875 144.355469 C 505.355469 148.667969 504.019531 152.980469 502.789062 157.289062 C 502.570312 158.050781 501.714844 158.035156 501.480469 157.265625 C 498.875 148.726562 495.84375 140.152344 492.386719 131.640625 C 492.289062 131.40625 492.097656 131.230469 491.863281 131.160156 C 487.714844 129.960938 483.453125 128.667969 479.121094 127.757812 C 474.769531 126.671875 470.371094 125.988281 465.851562 125.207031 C 465.050781 125.070312 464.828125 124.011719 465.523438 123.605469 C 469.457031 121.316406 473.476562 118.894531 477.664062 116.851562 C 481.828125 114.632812 486.136719 112.777344 490.542969 110.832031 C 490.792969 110.722656 490.980469 110.515625 491.054688 110.265625 Z M 491.054688 110.265625 " fill-opacity="1" fill-rule="nonzero"/></g></g></g><g clip-path="url(#5d41e76424)"><g clip-path="url(#4484b03833)"><g clip-path="url(#d6211f00ad)"><path fill="#8e6600" d="M 567.992188 120.683594 C 573.882812 113.644531 580.195312 106.714844 586.871094 100.023438 C 587.457031 99.441406 588.648438 99.945312 588.65625 100.78125 C 588.714844 105.507812 588.671875 110.199219 588.53125 114.847656 C 588.390625 119.488281 588.152344 124.089844 587.769531 128.753906 C 587.746094 129.011719 587.84375 129.273438 588.035156 129.464844 L 593.058594 134.53125 C 594.6875 136.25 596.242188 138.050781 597.796875 139.792969 L 600.105469 142.410156 C 600.871094 143.277344 601.582031 144.226562 602.3125 145.125 L 606.589844 150.542969 C 607.089844 151.175781 606.492188 152.078125 605.699219 151.910156 L 599.039062 150.527344 C 597.933594 150.316406 596.859375 150.0625 595.746094 149.890625 L 592.417969 149.390625 C 590.207031 149.074219 588.042969 148.71875 585.859375 148.46875 L 579.308594 147.875 C 579.066406 147.851562 578.824219 147.945312 578.644531 148.128906 C 575.503906 151.375 572.414062 154.765625 569.417969 158.199219 C 566.429688 161.628906 563.535156 165.097656 560.746094 168.605469 C 560.25 169.226562 559.464844 168.886719 559.546875 168.085938 C 560.445312 159.167969 560.921875 150.140625 561.007812 140.933594 C 561.011719 140.675781 560.90625 140.425781 560.71875 140.269531 L 555.589844 136.203125 C 554.71875 135.53125 553.855469 134.816406 552.960938 134.171875 L 550.257812 132.257812 C 548.4375 130.996094 546.613281 129.648438 544.726562 128.433594 L 538.972656 124.84375 C 538.285156 124.417969 538.484375 123.351562 539.285156 123.238281 L 546.140625 122.277344 C 548.445312 121.984375 550.746094 121.839844 553.089844 121.625 L 556.617188 121.335938 C 557.796875 121.25 558.964844 121.238281 560.148438 121.191406 L 567.304688 120.992188 C 567.574219 120.992188 567.824219 120.882812 567.992188 120.683594 Z M 567.992188 120.683594 " fill-opacity="1" fill-rule="nonzero"/></g></g></g><g clip-path="url(#72a14ba0da)"><g clip-path="url(#638841663a)"><g clip-path="url(#d9c9ed1a1d)"><path fill="#8e6600" d="M 635.019531 159.800781 C 639.144531 157.597656 643.273438 155.550781 647.480469 153.582031 C 651.691406 151.609375 655.976562 149.707031 660.339844 147.886719 C 661.109375 147.5625 662.046875 148.453125 661.742188 149.222656 C 658.253906 158.007812 654.394531 166.554688 650.273438 174.753906 C 650.15625 174.984375 650.15625 175.257812 650.261719 175.503906 L 652.917969 182.15625 C 653.34375 183.261719 653.796875 184.335938 654.1875 185.449219 L 655.320312 188.804688 C 656.054688 191.039062 656.835938 193.207031 657.480469 195.441406 L 659.320312 202.117188 C 659.53125 202.898438 658.632812 203.5 657.96875 203.039062 L 652.386719 199.183594 C 650.527344 197.933594 648.566406 196.792969 646.683594 195.621094 L 643.855469 193.898438 C 642.910156 193.335938 641.910156 192.828125 640.945312 192.296875 L 635.179688 189.199219 C 634.960938 189.089844 634.691406 189.09375 634.457031 189.199219 C 626.039062 192.929688 617.941406 196.949219 610.109375 201.3125 C 609.410156 201.707031 608.785156 201.121094 609.160156 200.421875 C 611.269531 196.46875 613.308594 192.4375 615.269531 188.332031 C 617.234375 184.21875 619.121094 180.035156 620.851562 175.863281 C 620.949219 175.628906 620.9375 175.367188 620.824219 175.152344 L 617.679688 169.378906 C 616.582031 167.472656 615.398438 165.628906 614.230469 163.722656 L 612.449219 160.871094 C 611.851562 159.914062 611.191406 159.027344 610.558594 158.097656 L 606.644531 152.535156 C 606.175781 151.871094 606.769531 150.964844 607.546875 151.171875 L 614.21875 152.949219 C 615.335938 153.261719 616.484375 153.539062 617.585938 153.894531 L 620.90625 154.976562 C 623.117188 155.714844 625.390625 156.425781 627.613281 157.238281 L 634.257812 159.839844 C 634.507812 159.9375 634.785156 159.925781 635.019531 159.800781 Z M 635.019531 159.800781 " fill-opacity="1" fill-rule="nonzero"/></g></g></g><g clip-path="url(#f4ff57140d)"><g clip-path="url(#287079decb)"><g clip-path="url(#c0d2440eb5)"><path fill="#8e6600" d="M 682.03125 221.578125 C 686.6875 221.132812 691.28125 220.835938 695.925781 220.632812 C 700.574219 220.425781 705.261719 220.320312 709.992188 220.3125 C 710.828125 220.308594 711.351562 221.488281 710.773438 222.085938 C 704.136719 228.859375 697.34375 235.242188 690.363281 241.238281 C 690.164062 241.40625 690.046875 241.664062 690.046875 241.933594 C 690.011719 246.75 690.015625 251.441406 689.632812 256.144531 C 689.417969 260.796875 688.789062 265.449219 688.25 269.96875 C 688.152344 270.769531 687.09375 270.984375 686.652344 270.304688 C 684.140625 266.464844 681.765625 262.699219 679.042969 259.132812 C 676.488281 255.519531 673.609375 252.117188 670.863281 248.789062 C 670.707031 248.601562 670.46875 248.496094 670.214844 248.5 C 661.03125 248.703125 651.957031 249.320312 643.082031 250.320312 C 642.285156 250.410156 641.933594 249.628906 642.546875 249.128906 C 646.011719 246.289062 649.441406 243.351562 652.828125 240.316406 C 656.21875 237.277344 659.574219 234.140625 662.777344 230.953125 C 662.957031 230.773438 663.046875 230.53125 663.023438 230.289062 L 662.347656 223.746094 C 662.042969 221.578125 661.6875 219.40625 661.339844 217.199219 C 661.160156 216.101562 660.996094 214.984375 660.792969 213.882812 L 660.101562 210.605469 C 659.617188 208.417969 659.179688 206.167969 658.625 203.96875 C 658.417969 203.195312 659.308594 202.582031 659.980469 203.054688 C 661.839844 204.398438 663.613281 205.832031 665.457031 207.253906 L 668.214844 209.417969 C 669.109375 210.160156 669.976562 210.925781 670.863281 211.691406 C 672.625 213.222656 674.421875 214.769531 676.1875 216.359375 L 681.316406 221.316406 C 681.507812 221.507812 681.773438 221.601562 682.03125 221.578125 Z M 682.03125 221.578125 " fill-opacity="1" fill-rule="nonzero"/></g></g></g><g clip-path="url(#114af88311)"><g clip-path="url(#5c8f83bdc3)"><g clip-path="url(#c718b86d3a)"><path fill="#8e6600" d="M 701.824219 296.621094 C 710.609375 299.351562 719.375 302.515625 728.15625 306.101562 C 728.921875 306.417969 728.910156 307.710938 728.140625 308.039062 C 723.800781 309.910156 719.453125 311.671875 715.105469 313.328125 C 710.761719 314.984375 706.425781 316.53125 701.976562 317.972656 C 701.726562 318.054688 701.523438 318.246094 701.421875 318.492188 L 698.679688 325.078125 C 697.695312 327.242188 696.65625 329.371094 695.648438 331.480469 C 695.136719 332.53125 694.648438 333.582031 694.117188 334.617188 L 692.445312 337.695312 C 691.316406 339.730469 690.261719 341.753906 689.085938 343.726562 C 688.65625 344.421875 687.59375 344.214844 687.476562 343.425781 C 687.117188 341.183594 686.625 338.945312 686.199219 336.746094 L 685.53125 333.464844 C 685.28125 332.371094 684.988281 331.28125 684.71875 330.199219 C 684.160156 328.039062 683.628906 325.902344 683.046875 323.792969 L 681.074219 317.519531 C 681 317.289062 680.820312 317.097656 680.582031 317.007812 C 676.375 315.355469 672.050781 313.804688 667.734375 312.359375 C 663.421875 310.917969 659.109375 309.582031 654.800781 308.351562 C 654.039062 308.132812 654.054688 307.277344 654.820312 307.046875 C 663.363281 304.441406 671.9375 301.40625 680.445312 297.949219 C 680.683594 297.851562 680.859375 297.660156 680.925781 297.429688 C 682.128906 293.28125 683.417969 289.015625 684.328125 284.6875 C 685.414062 280.332031 686.097656 275.933594 686.878906 271.414062 C 687.015625 270.613281 688.074219 270.390625 688.484375 271.085938 C 690.769531 275.019531 693.191406 279.039062 695.234375 283.226562 C 697.453125 287.390625 699.308594 291.699219 701.253906 296.105469 C 701.363281 296.355469 701.570312 296.542969 701.824219 296.621094 Z M 701.824219 296.621094 " fill-opacity="1" fill-rule="nonzero"/></g></g></g><g clip-path="url(#9d25cdedcc)"><g clip-path="url(#d878161340)"><g clip-path="url(#84e38ccb7d)"><path fill="#8e6600" d="M 691.402344 373.554688 C 698.441406 379.445312 705.375 385.757812 712.0625 392.433594 C 712.648438 393.023438 712.140625 394.210938 711.304688 394.222656 C 706.578125 394.277344 701.890625 394.234375 697.242188 394.09375 C 692.601562 393.957031 687.996094 393.714844 683.335938 393.332031 C 683.074219 393.308594 682.8125 393.410156 682.621094 393.601562 L 677.554688 398.621094 C 675.835938 400.25 674.035156 401.804688 672.296875 403.363281 L 669.679688 405.671875 C 668.808594 406.433594 667.863281 407.144531 666.964844 407.875 L 661.546875 412.15625 C 660.910156 412.652344 660.007812 412.054688 660.175781 411.261719 L 661.558594 404.601562 C 661.769531 403.496094 662.027344 402.421875 662.195312 401.308594 L 662.695312 397.980469 C 663.011719 395.769531 663.367188 393.605469 663.617188 391.421875 L 664.214844 384.871094 C 664.234375 384.628906 664.140625 384.386719 663.957031 384.210938 C 660.714844 381.066406 657.320312 377.976562 653.886719 374.980469 C 650.457031 371.992188 646.988281 369.101562 643.480469 366.308594 C 642.859375 365.816406 643.203125 365.027344 644 365.113281 C 652.921875 366.007812 661.949219 366.484375 671.15625 366.570312 C 671.414062 366.574219 671.660156 366.46875 671.816406 366.28125 L 675.882812 361.152344 C 676.558594 360.28125 677.269531 359.417969 677.917969 358.527344 L 679.832031 355.820312 C 681.09375 354.003906 682.441406 352.175781 683.652344 350.289062 L 687.246094 344.535156 C 687.671875 343.847656 688.734375 344.046875 688.851562 344.847656 L 689.8125 351.703125 C 690.105469 354.011719 690.25 356.308594 690.464844 358.652344 L 690.753906 362.183594 C 690.835938 363.363281 690.847656 364.527344 690.894531 365.710938 L 691.097656 372.871094 C 691.097656 373.136719 691.203125 373.386719 691.402344 373.554688 Z M 691.402344 373.554688 " fill-opacity="1" fill-rule="nonzero"/></g></g></g><g clip-path="url(#373ceba395)"><path fill="#ddbb63" d="M 644.363281 291.140625 L 626.996094 237.6875 L 576.835938 253.984375 L 607.835938 211.316406 L 562.367188 178.28125 L 531.367188 220.949219 L 531.367188 168.207031 L 475.164062 168.207031 L 475.164062 220.949219 L 444.160156 178.28125 L 398.691406 211.316406 L 429.695312 253.984375 L 379.53125 237.6875 L 362.164062 291.140625 L 412.324219 307.4375 L 362.164062 323.738281 L 379.53125 377.191406 L 429.695312 360.890625 L 398.691406 403.5625 L 444.160156 436.597656 L 475.164062 393.925781 L 475.164062 446.667969 L 531.367188 446.667969 L 531.367188 393.925781 L 562.367188 436.597656 L 607.835938 403.5625 L 576.835938 360.890625 L 626.996094 377.191406 L 644.363281 323.738281 L 594.203125 307.4375 Z M 644.363281 291.140625 " fill-opacity="1" fill-rule="nonzero"/></g><g clip-path="url(#c1950c40c4)"><path fill="#8e6600" d="M 137.375 60.1875 C 126.519531 151.917969 117.71875 160.71875 25.988281 171.574219 C 26.179688 171.597656 26.367188 171.621094 26.558594 171.644531 L 26.5625 171.644531 C 117.753906 182.46875 126.542969 191.425781 137.375 282.960938 C 148.230469 191.234375 157.03125 182.433594 248.761719 171.574219 C 157.03125 160.71875 148.230469 151.917969 137.375 60.1875 Z M 137.375 60.1875 " fill-opacity="1" fill-rule="nonzero"/></g><g clip-path="url(#781698a7c2)"><path fill="#8e6600" d="M 859.566406 318.507812 C 848.710938 410.238281 839.910156 419.039062 748.179688 429.894531 C 748.371094 429.917969 748.558594 429.941406 748.746094 429.964844 L 748.75 429.964844 C 839.945312 440.789062 848.734375 449.746094 859.566406 541.28125 C 870.421875 449.550781 879.222656 440.75 970.953125 429.894531 C 879.222656 419.039062 870.421875 410.238281 859.566406 318.507812 Z M 859.566406 318.507812 " fill-opacity="1" fill-rule="nonzero"/></g><g clip-path="url(#b9154f081c)"><path fill="#8e6600" d="M 137.375 60.1875 C 126.519531 151.917969 117.71875 160.71875 25.988281 171.574219 C 26.179688 171.597656 26.367188 171.621094 26.558594 171.644531 L 26.5625 171.644531 C 117.753906 182.46875 126.542969 191.425781 137.375 282.960938 C 148.230469 191.234375 157.03125 182.433594 248.761719 171.574219 C 157.03125 160.71875 148.230469 151.917969 137.375 60.1875 Z M 137.375 60.1875 " fill-opacity="1" fill-rule="nonzero"/></g></svg>