<svg xmlns="http://www.w3.org/2000/svg" xmlns:xlink="http://www.w3.org/1999/xlink" width="1324" zoomAndPan="magnify" viewBox="0 0 993 599.999999" height="800" preserveAspectRatio="xMidYMid meet" version="1.0"><defs><radialGradient gradientTransform="matrix(1, 0, 0, 1, 0.0000004965, 0.00002)" gradientUnits="userSpaceOnUse" r="580.096754" cx="496.5" id="2bd3f33b9a" cy="300" fx="496.5" fy="300"><stop stop-opacity="1" stop-color="rgb(55.819702%, 37.738037%, 0.151062%)" offset="0"/><stop stop-opacity="1" stop-color="rgb(56.062317%, 38.017273%, 0.453186%)" offset="0.00390625"/><stop stop-opacity="1" stop-color="rgb(56.303406%, 38.296509%, 0.756836%)" offset="0.0078125"/><stop stop-opacity="1" stop-color="rgb(56.546021%, 38.574219%, 1.05896%)" offset="0.0117188"/><stop stop-opacity="1" stop-color="rgb(56.788635%, 38.853455%, 1.36261%)" offset="0.015625"/><stop stop-opacity="1" stop-color="rgb(57.03125%, 39.13269%, 1.66626%)" offset="0.0195312"/><stop stop-opacity="1" stop-color="rgb(57.272339%, 39.411926%, 1.968384%)" offset="0.0234375"/><stop stop-opacity="1" stop-color="rgb(57.514954%, 39.691162%, 2.272034%)" offset="0.0273438"/><stop stop-opacity="1" stop-color="rgb(57.757568%, 39.968872%, 2.575684%)" offset="0.03125"/><stop stop-opacity="1" stop-color="rgb(58.000183%, 40.248108%, 2.877808%)" offset="0.0351562"/><stop stop-opacity="1" stop-color="rgb(58.241272%, 40.527344%, 3.181458%)" offset="0.0390625"/><stop stop-opacity="1" stop-color="rgb(58.483887%, 40.80658%, 3.485107%)" offset="0.0429688"/><stop stop-opacity="1" stop-color="rgb(58.726501%, 41.08429%, 3.787231%)" offset="0.046875"/><stop stop-opacity="1" stop-color="rgb(58.96759%, 41.363525%, 4.090881%)" offset="0.0507812"/><stop stop-opacity="1" stop-color="rgb(59.210205%, 41.642761%, 4.394531%)" offset="0.0546875"/><stop stop-opacity="1" stop-color="rgb(59.45282%, 41.921997%, 4.696655%)" offset="0.0585938"/><stop stop-opacity="1" stop-color="rgb(59.695435%, 42.201233%, 5.000305%)" offset="0.0625"/><stop stop-opacity="1" stop-color="rgb(59.936523%, 42.478943%, 5.303955%)" offset="0.0664062"/><stop stop-opacity="1" stop-color="rgb(60.179138%, 42.758179%, 5.606079%)" offset="0.0703125"/><stop stop-opacity="1" stop-color="rgb(60.421753%, 43.037415%, 5.909729%)" offset="0.0742188"/><stop stop-opacity="1" stop-color="rgb(60.662842%, 43.31665%, 6.213379%)" offset="0.078125"/><stop stop-opacity="1" stop-color="rgb(60.905457%, 43.595886%, 6.515503%)" offset="0.0820312"/><stop stop-opacity="1" stop-color="rgb(61.148071%, 43.873596%, 6.819153%)" offset="0.0859375"/><stop stop-opacity="1" stop-color="rgb(61.390686%, 44.152832%, 7.122803%)" offset="0.0898438"/><stop stop-opacity="1" stop-color="rgb(61.631775%, 44.432068%, 7.424927%)" offset="0.09375"/><stop stop-opacity="1" stop-color="rgb(61.87439%, 44.711304%, 7.728577%)" offset="0.0976562"/><stop stop-opacity="1" stop-color="rgb(62.117004%, 44.989014%, 8.032227%)" offset="0.101562"/><stop stop-opacity="1" stop-color="rgb(62.358093%, 45.26825%, 8.334351%)" offset="0.105469"/><stop stop-opacity="1" stop-color="rgb(62.600708%, 45.547485%, 8.638%)" offset="0.109375"/><stop stop-opacity="1" stop-color="rgb(62.843323%, 45.826721%, 8.94165%)" offset="0.113281"/><stop stop-opacity="1" stop-color="rgb(63.085938%, 46.105957%, 9.243774%)" offset="0.117188"/><stop stop-opacity="1" stop-color="rgb(63.327026%, 46.383667%, 9.547424%)" offset="0.121094"/><stop stop-opacity="1" stop-color="rgb(63.569641%, 46.662903%, 9.849548%)" offset="0.125"/><stop stop-opacity="1" stop-color="rgb(63.812256%, 46.942139%, 10.153198%)" offset="0.128906"/><stop stop-opacity="1" stop-color="rgb(64.054871%, 47.221375%, 10.456848%)" offset="0.132812"/><stop stop-opacity="1" stop-color="rgb(64.295959%, 47.499084%, 10.758972%)" offset="0.136719"/><stop stop-opacity="1" stop-color="rgb(64.538574%, 47.77832%, 11.062622%)" offset="0.140625"/><stop stop-opacity="1" stop-color="rgb(64.781189%, 48.057556%, 11.366272%)" offset="0.144531"/><stop stop-opacity="1" stop-color="rgb(65.022278%, 48.336792%, 11.668396%)" offset="0.148438"/><stop stop-opacity="1" stop-color="rgb(65.264893%, 48.616028%, 11.972046%)" offset="0.152344"/><stop stop-opacity="1" stop-color="rgb(65.507507%, 48.893738%, 12.275696%)" offset="0.15625"/><stop stop-opacity="1" stop-color="rgb(65.750122%, 49.172974%, 12.57782%)" offset="0.160156"/><stop stop-opacity="1" stop-color="rgb(65.991211%, 49.452209%, 12.88147%)" offset="0.164062"/><stop stop-opacity="1" stop-color="rgb(66.233826%, 49.731445%, 13.18512%)" offset="0.167969"/><stop stop-opacity="1" stop-color="rgb(66.47644%, 50.010681%, 13.487244%)" offset="0.171875"/><stop stop-opacity="1" stop-color="rgb(66.717529%, 50.288391%, 13.790894%)" offset="0.175781"/><stop stop-opacity="1" stop-color="rgb(66.960144%, 50.567627%, 14.094543%)" offset="0.179688"/><stop stop-opacity="1" stop-color="rgb(67.202759%, 50.846863%, 14.396667%)" offset="0.183594"/><stop stop-opacity="1" stop-color="rgb(67.445374%, 51.126099%, 14.700317%)" offset="0.1875"/><stop stop-opacity="1" stop-color="rgb(67.686462%, 51.403809%, 15.003967%)" offset="0.191406"/><stop stop-opacity="1" stop-color="rgb(67.929077%, 51.683044%, 15.306091%)" offset="0.195312"/><stop stop-opacity="1" stop-color="rgb(68.171692%, 51.96228%, 15.609741%)" offset="0.199219"/><stop stop-opacity="1" stop-color="rgb(68.412781%, 52.241516%, 15.913391%)" offset="0.203125"/><stop stop-opacity="1" stop-color="rgb(68.655396%, 52.520752%, 16.215515%)" offset="0.207031"/><stop stop-opacity="1" stop-color="rgb(68.89801%, 52.798462%, 16.519165%)" offset="0.210938"/><stop stop-opacity="1" stop-color="rgb(69.140625%, 53.077698%, 16.822815%)" offset="0.214844"/><stop stop-opacity="1" stop-color="rgb(69.381714%, 53.356934%, 17.124939%)" offset="0.21875"/><stop stop-opacity="1" stop-color="rgb(69.624329%, 53.636169%, 17.428589%)" offset="0.222656"/><stop stop-opacity="1" stop-color="rgb(69.866943%, 53.915405%, 17.732239%)" offset="0.226562"/><stop stop-opacity="1" stop-color="rgb(70.109558%, 54.193115%, 18.034363%)" offset="0.230469"/><stop stop-opacity="1" stop-color="rgb(70.350647%, 54.472351%, 18.338013%)" offset="0.234375"/><stop stop-opacity="1" stop-color="rgb(70.593262%, 54.751587%, 18.641663%)" offset="0.238281"/><stop stop-opacity="1" stop-color="rgb(70.835876%, 55.030823%, 18.943787%)" offset="0.242188"/><stop stop-opacity="1" stop-color="rgb(71.076965%, 55.308533%, 19.247437%)" offset="0.246094"/><stop stop-opacity="1" stop-color="rgb(71.31958%, 55.587769%, 19.549561%)" offset="0.25"/><stop stop-opacity="1" stop-color="rgb(71.562195%, 55.867004%, 19.85321%)" offset="0.253906"/><stop stop-opacity="1" stop-color="rgb(71.80481%, 56.14624%, 20.15686%)" offset="0.257812"/><stop stop-opacity="1" stop-color="rgb(72.045898%, 56.425476%, 20.458984%)" offset="0.261719"/><stop stop-opacity="1" stop-color="rgb(72.288513%, 56.703186%, 20.762634%)" offset="0.265625"/><stop stop-opacity="1" stop-color="rgb(72.531128%, 56.982422%, 21.066284%)" offset="0.269531"/><stop stop-opacity="1" stop-color="rgb(72.772217%, 57.261658%, 21.368408%)" offset="0.273438"/><stop stop-opacity="1" stop-color="rgb(73.014832%, 57.540894%, 21.672058%)" offset="0.277344"/><stop stop-opacity="1" stop-color="rgb(73.257446%, 57.818604%, 21.975708%)" offset="0.28125"/><stop stop-opacity="1" stop-color="rgb(73.500061%, 58.097839%, 22.277832%)" offset="0.285156"/><stop stop-opacity="1" stop-color="rgb(73.74115%, 58.377075%, 22.581482%)" offset="0.289062"/><stop stop-opacity="1" stop-color="rgb(73.983765%, 58.656311%, 22.885132%)" offset="0.292969"/><stop stop-opacity="1" stop-color="rgb(74.226379%, 58.935547%, 23.187256%)" offset="0.296875"/><stop stop-opacity="1" stop-color="rgb(74.467468%, 59.213257%, 23.490906%)" offset="0.300781"/><stop stop-opacity="1" stop-color="rgb(74.710083%, 59.492493%, 23.794556%)" offset="0.304688"/><stop stop-opacity="1" stop-color="rgb(74.952698%, 59.771729%, 24.09668%)" offset="0.308594"/><stop stop-opacity="1" stop-color="rgb(75.195312%, 60.050964%, 24.40033%)" offset="0.3125"/><stop stop-opacity="1" stop-color="rgb(75.436401%, 60.3302%, 24.703979%)" offset="0.316406"/><stop stop-opacity="1" stop-color="rgb(75.679016%, 60.60791%, 25.006104%)" offset="0.320312"/><stop stop-opacity="1" stop-color="rgb(75.921631%, 60.887146%, 25.309753%)" offset="0.324219"/><stop stop-opacity="1" stop-color="rgb(76.164246%, 61.166382%, 25.613403%)" offset="0.328125"/><stop stop-opacity="1" stop-color="rgb(76.405334%, 61.445618%, 25.915527%)" offset="0.332031"/><stop stop-opacity="1" stop-color="rgb(76.647949%, 61.723328%, 26.219177%)" offset="0.335938"/><stop stop-opacity="1" stop-color="rgb(76.890564%, 62.002563%, 26.522827%)" offset="0.339844"/><stop stop-opacity="1" stop-color="rgb(77.131653%, 62.281799%, 26.824951%)" offset="0.34375"/><stop stop-opacity="1" stop-color="rgb(77.374268%, 62.561035%, 27.128601%)" offset="0.347656"/><stop stop-opacity="1" stop-color="rgb(77.616882%, 62.840271%, 27.432251%)" offset="0.351562"/><stop stop-opacity="1" stop-color="rgb(77.859497%, 63.117981%, 27.734375%)" offset="0.355469"/><stop stop-opacity="1" stop-color="rgb(78.100586%, 63.397217%, 28.038025%)" offset="0.359375"/><stop stop-opacity="1" stop-color="rgb(78.343201%, 63.676453%, 28.341675%)" offset="0.363281"/><stop stop-opacity="1" stop-color="rgb(78.585815%, 63.955688%, 28.643799%)" offset="0.367188"/><stop stop-opacity="1" stop-color="rgb(78.826904%, 64.234924%, 28.947449%)" offset="0.371094"/><stop stop-opacity="1" stop-color="rgb(79.069519%, 64.512634%, 29.249573%)" offset="0.375"/><stop stop-opacity="1" stop-color="rgb(79.312134%, 64.79187%, 29.553223%)" offset="0.378906"/><stop stop-opacity="1" stop-color="rgb(79.554749%, 65.071106%, 29.856873%)" offset="0.382812"/><stop stop-opacity="1" stop-color="rgb(79.795837%, 65.350342%, 30.158997%)" offset="0.386719"/><stop stop-opacity="1" stop-color="rgb(80.038452%, 65.628052%, 30.462646%)" offset="0.390625"/><stop stop-opacity="1" stop-color="rgb(80.281067%, 65.907288%, 30.766296%)" offset="0.394531"/><stop stop-opacity="1" stop-color="rgb(80.522156%, 66.186523%, 31.06842%)" offset="0.398438"/><stop stop-opacity="1" stop-color="rgb(80.764771%, 66.465759%, 31.37207%)" offset="0.402344"/><stop stop-opacity="1" stop-color="rgb(81.007385%, 66.744995%, 31.67572%)" offset="0.40625"/><stop stop-opacity="1" stop-color="rgb(81.25%, 67.022705%, 31.977844%)" offset="0.410156"/><stop stop-opacity="1" stop-color="rgb(81.491089%, 67.301941%, 32.281494%)" offset="0.414062"/><stop stop-opacity="1" stop-color="rgb(81.733704%, 67.581177%, 32.585144%)" offset="0.417969"/><stop stop-opacity="1" stop-color="rgb(81.976318%, 67.860413%, 32.887268%)" offset="0.421875"/><stop stop-opacity="1" stop-color="rgb(82.218933%, 68.138123%, 33.190918%)" offset="0.425781"/><stop stop-opacity="1" stop-color="rgb(82.460022%, 68.417358%, 33.494568%)" offset="0.429688"/><stop stop-opacity="1" stop-color="rgb(82.702637%, 68.696594%, 33.796692%)" offset="0.433594"/><stop stop-opacity="1" stop-color="rgb(82.945251%, 68.97583%, 34.100342%)" offset="0.4375"/><stop stop-opacity="1" stop-color="rgb(83.18634%, 69.255066%, 34.403992%)" offset="0.441406"/><stop stop-opacity="1" stop-color="rgb(83.428955%, 69.532776%, 34.706116%)" offset="0.445312"/><stop stop-opacity="1" stop-color="rgb(83.67157%, 69.812012%, 35.009766%)" offset="0.449219"/><stop stop-opacity="1" stop-color="rgb(83.914185%, 70.091248%, 35.313416%)" offset="0.453125"/><stop stop-opacity="1" stop-color="rgb(84.155273%, 70.370483%, 35.61554%)" offset="0.457031"/><stop stop-opacity="1" stop-color="rgb(84.397888%, 70.649719%, 35.919189%)" offset="0.460938"/><stop stop-opacity="1" stop-color="rgb(84.640503%, 70.927429%, 36.222839%)" offset="0.464844"/><stop stop-opacity="1" stop-color="rgb(84.881592%, 71.206665%, 36.524963%)" offset="0.46875"/><stop stop-opacity="1" stop-color="rgb(85.124207%, 71.485901%, 36.828613%)" offset="0.472656"/><stop stop-opacity="1" stop-color="rgb(85.366821%, 71.765137%, 37.132263%)" offset="0.476562"/><stop stop-opacity="1" stop-color="rgb(85.609436%, 72.042847%, 37.434387%)" offset="0.480469"/><stop stop-opacity="1" stop-color="rgb(85.850525%, 72.322083%, 37.738037%)" offset="0.484375"/><stop stop-opacity="1" stop-color="rgb(86.09314%, 72.601318%, 38.041687%)" offset="0.488281"/><stop stop-opacity="1" stop-color="rgb(86.335754%, 72.880554%, 38.343811%)" offset="0.492188"/><stop stop-opacity="1" stop-color="rgb(86.576843%, 73.15979%, 38.647461%)" offset="0.496094"/><stop stop-opacity="1" stop-color="rgb(86.698914%, 73.298645%, 38.798523%)" offset="1"/></radialGradient><clipPath id="8c3ced4d40"><path d="M 658 292 L 732.351562 292 L 732.351562 365 L 658 365 Z M 658 292 " clip-rule="nonzero"/></clipPath><clipPath id="17960f270a"><path d="M 510 441 L 583 441 L 583 514.613281 L 510 514.613281 Z M 510 441 " clip-rule="nonzero"/></clipPath><clipPath id="a17bf3928c"><path d="M 437 441 L 511 441 L 511 514.613281 L 437 514.613281 Z M 437 441 " clip-rule="nonzero"/></clipPath><clipPath id="b86324c0eb"><path d="M 287.601562 292 L 362 292 L 362 365 L 287.601562 365 Z M 287.601562 292 " clip-rule="nonzero"/></clipPath><clipPath id="9fe4295333"><path d="M 287.601562 219 L 362 219 L 362 293 L 287.601562 293 Z M 287.601562 219 " clip-rule="nonzero"/></clipPath><clipPath id="8f616f2ed2"><path d="M 658 219 L 732.351562 219 L 732.351562 293 L 658 293 Z M 658 219 " clip-rule="nonzero"/></clipPath><clipPath id="17a083ce01"><path d="M 616 396 L 672 396 L 672 452 L 616 452 Z M 616 396 " clip-rule="nonzero"/></clipPath><clipPath id="f1f27c82fc"><path d="M 446.292969 -15.742188 L 817.972656 228.503906 L 573.726562 600.183594 L 202.046875 355.9375 Z M 446.292969 -15.742188 " clip-rule="nonzero"/></clipPath><clipPath id="1336b8e03e"><path d="M 446.292969 -15.742188 L 817.972656 228.503906 L 573.726562 600.183594 L 202.046875 355.9375 Z M 446.292969 -15.742188 " clip-rule="nonzero"/></clipPath><clipPath id="b37af2a577"><path d="M 548 431 L 617 431 L 617 502 L 548 502 Z M 548 431 " clip-rule="nonzero"/></clipPath><clipPath id="1cbba712c9"><path d="M 446.292969 -15.742188 L 817.972656 228.503906 L 573.726562 600.183594 L 202.046875 355.9375 Z M 446.292969 -15.742188 " clip-rule="nonzero"/></clipPath><clipPath id="944e6065bb"><path d="M 446.292969 -15.742188 L 817.972656 228.503906 L 573.726562 600.183594 L 202.046875 355.9375 Z M 446.292969 -15.742188 " clip-rule="nonzero"/></clipPath><clipPath id="f906618539"><path d="M 474 443 L 549 443 L 549 519 L 474 519 Z M 474 443 " clip-rule="nonzero"/></clipPath><clipPath id="70b6a09925"><path d="M 446.292969 -15.742188 L 817.972656 228.503906 L 573.726562 600.183594 L 202.046875 355.9375 Z M 446.292969 -15.742188 " clip-rule="nonzero"/></clipPath><clipPath id="fe3ae4e696"><path d="M 446.292969 -15.742188 L 817.972656 228.503906 L 573.726562 600.183594 L 202.046875 355.9375 Z M 446.292969 -15.742188 " clip-rule="nonzero"/></clipPath><clipPath id="a7d179917e"><path d="M 406 432 L 475 432 L 475 503 L 406 503 Z M 406 432 " clip-rule="nonzero"/></clipPath><clipPath id="287b811bd0"><path d="M 446.292969 -15.742188 L 817.972656 228.503906 L 573.726562 600.183594 L 202.046875 355.9375 Z M 446.292969 -15.742188 " clip-rule="nonzero"/></clipPath><clipPath id="96ca1ad29a"><path d="M 446.292969 -15.742188 L 817.972656 228.503906 L 573.726562 600.183594 L 202.046875 355.9375 Z M 446.292969 -15.742188 " clip-rule="nonzero"/></clipPath><clipPath id="145865d8cf"><path d="M 350 398 L 407 398 L 407 455 L 350 455 Z M 350 398 " clip-rule="nonzero"/></clipPath><clipPath id="bbb506eb05"><path d="M 446.292969 -15.742188 L 817.972656 228.503906 L 573.726562 600.183594 L 202.046875 355.9375 Z M 446.292969 -15.742188 " clip-rule="nonzero"/></clipPath><clipPath id="6a4fe2646b"><path d="M 446.292969 -15.742188 L 817.972656 228.503906 L 573.726562 600.183594 L 202.046875 355.9375 Z M 446.292969 -15.742188 " clip-rule="nonzero"/></clipPath><clipPath id="72f95e597e"><path d="M 301 330 L 371 330 L 371 399 L 301 399 Z M 301 330 " clip-rule="nonzero"/></clipPath><clipPath id="04580020a0"><path d="M 446.292969 -15.742188 L 817.972656 228.503906 L 573.726562 600.183594 L 202.046875 355.9375 Z M 446.292969 -15.742188 " clip-rule="nonzero"/></clipPath><clipPath id="8759c24ec6"><path d="M 446.292969 -15.742188 L 817.972656 228.503906 L 573.726562 600.183594 L 202.046875 355.9375 Z M 446.292969 -15.742188 " clip-rule="nonzero"/></clipPath><clipPath id="02841c7ecb"><path d="M 283 256 L 359 256 L 359 331 L 283 331 Z M 283 256 " clip-rule="nonzero"/></clipPath><clipPath id="d71a868ded"><path d="M 446.292969 -15.742188 L 817.972656 228.503906 L 573.726562 600.183594 L 202.046875 355.9375 Z M 446.292969 -15.742188 " clip-rule="nonzero"/></clipPath><clipPath id="d272c974e7"><path d="M 446.292969 -15.742188 L 817.972656 228.503906 L 573.726562 600.183594 L 202.046875 355.9375 Z M 446.292969 -15.742188 " clip-rule="nonzero"/></clipPath><clipPath id="7a638a3003"><path d="M 300 188 L 370 188 L 370 257 L 300 257 Z M 300 188 " clip-rule="nonzero"/></clipPath><clipPath id="eaabf2c61f"><path d="M 446.292969 -15.742188 L 817.972656 228.503906 L 573.726562 600.183594 L 202.046875 355.9375 Z M 446.292969 -15.742188 " clip-rule="nonzero"/></clipPath><clipPath id="d5daccc3bc"><path d="M 446.292969 -15.742188 L 817.972656 228.503906 L 573.726562 600.183594 L 202.046875 355.9375 Z M 446.292969 -15.742188 " clip-rule="nonzero"/></clipPath><clipPath id="ff2153fcf0"><path d="M 348 133 L 404 133 L 404 189 L 348 189 Z M 348 133 " clip-rule="nonzero"/></clipPath><clipPath id="f9b0400537"><path d="M 446.292969 -15.742188 L 817.972656 228.503906 L 573.726562 600.183594 L 202.046875 355.9375 Z M 446.292969 -15.742188 " clip-rule="nonzero"/></clipPath><clipPath id="ef6d9fc667"><path d="M 446.292969 -15.742188 L 817.972656 228.503906 L 573.726562 600.183594 L 202.046875 355.9375 Z M 446.292969 -15.742188 " clip-rule="nonzero"/></clipPath><clipPath id="765bf82086"><path d="M 403 83 L 472 83 L 472 153 L 403 153 Z M 403 83 " clip-rule="nonzero"/></clipPath><clipPath id="532c290921"><path d="M 446.292969 -15.742188 L 817.972656 228.503906 L 573.726562 600.183594 L 202.046875 355.9375 Z M 446.292969 -15.742188 " clip-rule="nonzero"/></clipPath><clipPath id="6aa07f98a9"><path d="M 446.292969 -15.742188 L 817.972656 228.503906 L 573.726562 600.183594 L 202.046875 355.9375 Z M 446.292969 -15.742188 " clip-rule="nonzero"/></clipPath><clipPath id="3042b8d556"><path d="M 471 65 L 546 65 L 546 141 L 471 141 Z M 471 65 " clip-rule="nonzero"/></clipPath><clipPath id="9ad232f435"><path d="M 446.292969 -15.742188 L 817.972656 228.503906 L 573.726562 600.183594 L 202.046875 355.9375 Z M 446.292969 -15.742188 " clip-rule="nonzero"/></clipPath><clipPath id="4c678279b1"><path d="M 446.292969 -15.742188 L 817.972656 228.503906 L 573.726562 600.183594 L 202.046875 355.9375 Z M 446.292969 -15.742188 " clip-rule="nonzero"/></clipPath><clipPath id="67ec554970"><path d="M 545 82 L 615 82 L 615 152 L 545 152 Z M 545 82 " clip-rule="nonzero"/></clipPath><clipPath id="2b9399da66"><path d="M 446.292969 -15.742188 L 817.972656 228.503906 L 573.726562 600.183594 L 202.046875 355.9375 Z M 446.292969 -15.742188 " clip-rule="nonzero"/></clipPath><clipPath id="d5118d8c8c"><path d="M 446.292969 -15.742188 L 817.972656 228.503906 L 573.726562 600.183594 L 202.046875 355.9375 Z M 446.292969 -15.742188 " clip-rule="nonzero"/></clipPath><clipPath id="39dbae4795"><path d="M 613 130 L 670 130 L 670 187 L 613 187 Z M 613 130 " clip-rule="nonzero"/></clipPath><clipPath id="bf4ea06294"><path d="M 446.292969 -15.742188 L 817.972656 228.503906 L 573.726562 600.183594 L 202.046875 355.9375 Z M 446.292969 -15.742188 " clip-rule="nonzero"/></clipPath><clipPath id="a720ccc6d7"><path d="M 446.292969 -15.742188 L 817.972656 228.503906 L 573.726562 600.183594 L 202.046875 355.9375 Z M 446.292969 -15.742188 " clip-rule="nonzero"/></clipPath><clipPath id="ceea647beb"><path d="M 649 185 L 719 185 L 719 255 L 649 255 Z M 649 185 " clip-rule="nonzero"/></clipPath><clipPath id="24cb01f4d2"><path d="M 446.292969 -15.742188 L 817.972656 228.503906 L 573.726562 600.183594 L 202.046875 355.9375 Z M 446.292969 -15.742188 " clip-rule="nonzero"/></clipPath><clipPath id="6a787d0326"><path d="M 446.292969 -15.742188 L 817.972656 228.503906 L 573.726562 600.183594 L 202.046875 355.9375 Z M 446.292969 -15.742188 " clip-rule="nonzero"/></clipPath><clipPath id="0ba34af417"><path d="M 661 254 L 737 254 L 737 328 L 661 328 Z M 661 254 " clip-rule="nonzero"/></clipPath><clipPath id="1136e50717"><path d="M 446.292969 -15.742188 L 817.972656 228.503906 L 573.726562 600.183594 L 202.046875 355.9375 Z M 446.292969 -15.742188 " clip-rule="nonzero"/></clipPath><clipPath id="e432f99cc6"><path d="M 446.292969 -15.742188 L 817.972656 228.503906 L 573.726562 600.183594 L 202.046875 355.9375 Z M 446.292969 -15.742188 " clip-rule="nonzero"/></clipPath><clipPath id="385d96469a"><path d="M 650 327 L 721 327 L 721 397 L 650 397 Z M 650 327 " clip-rule="nonzero"/></clipPath><clipPath id="5c6ad0d2fc"><path d="M 446.292969 -15.742188 L 817.972656 228.503906 L 573.726562 600.183594 L 202.046875 355.9375 Z M 446.292969 -15.742188 " clip-rule="nonzero"/></clipPath><clipPath id="2e082f6c9f"><path d="M 446.292969 -15.742188 L 817.972656 228.503906 L 573.726562 600.183594 L 202.046875 355.9375 Z M 446.292969 -15.742188 " clip-rule="nonzero"/></clipPath><clipPath id="6231695c01"><path d="M 0 0 L 201 0 L 201 222.957031 L 0 222.957031 Z M 0 0 " clip-rule="nonzero"/></clipPath><clipPath id="8b1c538d7d"><path d="M 740.003906 38.820312 L 939.503906 38.820312 L 939.503906 262.320312 L 740.003906 262.320312 Z M 740.003906 38.820312 " clip-rule="nonzero"/></clipPath><clipPath id="e19b6add24"><path d="M 815.03125 423.191406 L 993 423.191406 L 993 600 L 815.03125 600 Z M 815.03125 423.191406 " clip-rule="nonzero"/></clipPath><clipPath id="123c0130b3"><path d="M 44 351 L 256 351 L 256 563 L 44 563 Z M 44 351 " clip-rule="nonzero"/></clipPath><clipPath id="35ee63fa29"><path d="M 89.207031 310.628906 L 304.574219 400.199219 L 218.746094 606.5625 L 3.378906 516.992188 Z M 89.207031 310.628906 " clip-rule="nonzero"/></clipPath><clipPath id="b4c0dbfcc6"><path d="M 89.207031 310.628906 L 304.574219 400.199219 L 218.746094 606.5625 L 3.378906 516.992188 Z M 89.207031 310.628906 " clip-rule="nonzero"/></clipPath><clipPath id="747bad5f4b"><path d="M 396.703125 179.066406 L 623.203125 179.066406 L 623.203125 402.566406 L 396.703125 402.566406 Z M 396.703125 179.066406 " clip-rule="nonzero"/></clipPath></defs><rect x="-99.3" width="1191.6" fill="#ffffff" y="-60" height="719.999999" fill-opacity="1"/><rect x="-99.3" fill="url(#2bd3f33b9a)" width="1191.6" y="-60" height="719.999999"/><g clip-path="url(#8c3ced4d40)"><path fill="#8e6600" d="M 707.839844 320.726562 C 711.960938 322.972656 715.960938 325.3125 719.929688 327.757812 C 723.910156 330.199219 727.871094 332.75 731.808594 335.40625 C 732.503906 335.878906 732.273438 337.152344 731.460938 337.324219 C 722.160156 339.242188 712.859375 340.714844 703.703125 341.777344 C 703.441406 341.808594 703.214844 341.957031 703.066406 342.183594 L 698.949219 348.082031 C 698.253906 349.046875 697.601562 350.019531 696.882812 350.964844 L 694.695312 353.765625 C 693.222656 355.617188 691.832031 357.464844 690.3125 359.242188 L 685.722656 364.464844 C 685.1875 365.074219 684.183594 364.652344 684.203125 363.839844 L 684.363281 357.03125 C 684.382812 354.777344 684.261719 352.5 684.207031 350.277344 L 684.089844 346.953125 C 684.039062 345.847656 683.917969 344.726562 683.832031 343.625 L 683.25 337.078125 C 683.222656 336.832031 683.070312 336.609375 682.855469 336.46875 C 675.078125 331.460938 667.238281 326.882812 659.253906 322.71875 C 658.539062 322.34375 658.6875 321.496094 659.480469 321.425781 C 663.960938 321.015625 668.46875 320.503906 672.996094 319.882812 C 677.53125 319.265625 682.085938 318.542969 686.539062 317.695312 C 686.792969 317.644531 687.003906 317.492188 687.121094 317.277344 L 690.234375 311.453125 C 691.230469 309.480469 692.125 307.46875 693.078125 305.4375 L 694.492188 302.371094 C 694.964844 301.339844 695.34375 300.300781 695.773438 299.253906 L 698.289062 292.902344 C 698.585938 292.144531 699.671875 292.140625 699.929688 292.90625 L 702.117188 299.488281 C 702.46875 300.597656 702.871094 301.714844 703.179688 302.835938 L 704.105469 306.21875 C 704.703125 308.484375 705.359375 310.78125 705.90625 313.097656 L 707.386719 320.105469 C 707.441406 320.371094 707.609375 320.601562 707.839844 320.726562 Z M 707.839844 320.726562 " fill-opacity="1" fill-rule="nonzero"/></g><path fill="#8e6600" d="M 681.917969 394.265625 C 684.859375 397.925781 687.640625 401.617188 690.375 405.40625 C 693.109375 409.191406 695.789062 413.070312 698.402344 417.035156 C 698.867188 417.734375 698.164062 418.828125 697.34375 418.671875 C 687.996094 416.839844 678.894531 414.65625 670.011719 412.105469 C 669.757812 412.03125 669.480469 412.074219 669.25 412.222656 C 665.1875 414.847656 661.253906 417.441406 657.09375 419.710938 C 653.070312 422.101562 648.816406 424.136719 644.730469 426.175781 C 644.003906 426.535156 643.238281 425.765625 643.5625 425.019531 C 645.402344 420.792969 647.253906 416.722656 648.742188 412.472656 C 650.367188 408.335938 651.636719 404.042969 652.914062 399.898438 C 652.988281 399.664062 652.945312 399.40625 652.800781 399.195312 C 647.5625 391.601562 642.039062 384.324219 636.308594 377.425781 C 635.789062 376.808594 636.25 376.078125 637.011719 376.316406 C 641.304688 377.664062 645.664062 378.917969 650.078125 380.085938 C 654.496094 381.257812 658.984375 382.34375 663.425781 383.273438 C 663.675781 383.328125 663.929688 383.269531 664.121094 383.113281 L 669.238281 378.9375 C 670.890625 377.488281 672.515625 375.988281 674.175781 374.480469 C 675 373.722656 675.847656 372.96875 676.660156 372.191406 L 679.027344 369.804688 C 680.597656 368.191406 682.246094 366.585938 683.785156 364.902344 C 684.320312 364.300781 685.328125 364.714844 685.300781 365.535156 C 685.203125 367.839844 684.972656 370.121094 684.796875 372.453125 L 684.503906 375.957031 C 684.375 377.121094 684.207031 378.269531 684.054688 379.4375 C 683.742188 381.761719 683.4375 384.121094 683.070312 386.480469 L 681.738281 393.519531 C 681.6875 393.789062 681.753906 394.058594 681.917969 394.265625 Z M 681.917969 394.265625 " fill-opacity="1" fill-rule="nonzero"/><path fill="#8e6600" d="M 629.84375 452.269531 C 632.394531 461.152344 634.578125 470.257812 636.410156 479.605469 C 636.566406 480.421875 635.476562 481.125 634.773438 480.664062 C 630.808594 478.046875 626.933594 475.371094 623.144531 472.636719 C 619.359375 469.902344 615.667969 467.117188 612.003906 464.175781 C 611.800781 464.011719 611.527344 463.949219 611.261719 464 L 604.222656 465.332031 C 601.863281 465.695312 599.5 466 597.175781 466.316406 C 596.011719 466.46875 594.859375 466.636719 593.699219 466.761719 L 590.191406 467.058594 C 587.859375 467.234375 585.578125 467.460938 583.273438 467.5625 C 582.453125 467.585938 582.042969 466.582031 582.640625 466.046875 C 584.324219 464.507812 585.929688 462.859375 587.542969 461.289062 L 589.929688 458.921875 C 590.707031 458.105469 591.464844 457.261719 592.222656 456.4375 C 593.730469 454.777344 595.226562 453.152344 596.675781 451.5 L 600.855469 446.382812 C 601.007812 446.191406 601.066406 445.9375 601.011719 445.683594 C 600.082031 441.246094 598.996094 436.757812 597.828125 432.339844 C 596.660156 427.921875 595.402344 423.566406 594.058594 419.273438 C 593.820312 418.511719 594.546875 418.050781 595.164062 418.566406 C 602.0625 424.300781 609.339844 429.824219 616.9375 435.0625 C 617.148438 435.207031 617.40625 435.246094 617.636719 435.175781 C 621.78125 433.894531 626.074219 432.628906 630.210938 431.003906 C 634.464844 429.511719 638.53125 427.664062 642.757812 425.824219 C 643.503906 425.5 644.277344 426.265625 643.917969 426.988281 C 641.875 431.078125 639.839844 435.328125 637.453125 439.355469 C 635.179688 443.511719 632.585938 447.449219 629.960938 451.511719 C 629.8125 451.738281 629.769531 452.019531 629.84375 452.269531 Z M 629.84375 452.269531 " fill-opacity="1" fill-rule="nonzero"/><g clip-path="url(#17960f270a)"><path fill="#8e6600" d="M 559.515625 485.960938 C 558.453125 495.121094 556.980469 504.421875 555.0625 513.71875 C 554.894531 514.53125 553.617188 514.765625 553.148438 514.066406 C 550.492188 510.132812 547.941406 506.171875 545.496094 502.191406 C 543.050781 498.21875 540.714844 494.222656 538.464844 490.097656 C 538.339844 489.867188 538.113281 489.703125 537.847656 489.648438 L 530.835938 488.167969 C 528.523438 487.621094 526.222656 486.964844 523.957031 486.363281 L 520.574219 485.441406 C 519.453125 485.132812 518.335938 484.730469 517.226562 484.378906 L 510.644531 482.191406 C 509.878906 481.933594 509.882812 480.847656 510.640625 480.550781 L 516.992188 478.035156 C 518.039062 477.605469 519.078125 477.226562 520.109375 476.753906 L 523.179688 475.339844 C 525.210938 474.386719 527.21875 473.492188 529.191406 472.496094 L 535.019531 469.382812 C 535.234375 469.265625 535.386719 469.054688 535.433594 468.800781 C 536.28125 464.34375 537.003906 459.792969 537.625 455.257812 C 538.242188 450.730469 538.753906 446.222656 539.164062 441.742188 C 539.238281 440.945312 540.085938 440.800781 540.457031 441.515625 C 544.621094 449.496094 549.199219 457.339844 554.207031 465.113281 C 554.347656 465.332031 554.574219 465.480469 554.816406 465.511719 L 561.367188 466.09375 C 562.46875 466.179688 563.585938 466.300781 564.691406 466.351562 L 568.019531 466.46875 C 570.242188 466.523438 572.519531 466.644531 574.769531 466.621094 L 581.582031 466.464844 C 582.390625 466.445312 582.8125 467.445312 582.207031 467.984375 L 576.980469 472.574219 C 575.207031 474.089844 573.355469 475.480469 571.503906 476.953125 L 568.703125 479.144531 C 567.757812 479.863281 566.785156 480.515625 565.820312 481.210938 L 559.921875 485.328125 C 559.695312 485.476562 559.546875 485.703125 559.515625 485.960938 Z M 559.515625 485.960938 " fill-opacity="1" fill-rule="nonzero"/></g><g clip-path="url(#a17bf3928c)"><path fill="#8e6600" d="M 481.675781 490.097656 C 479.429688 494.222656 477.089844 498.21875 474.644531 502.191406 C 472.203125 506.171875 469.652344 510.132812 466.996094 514.066406 C 466.527344 514.765625 465.25 514.53125 465.078125 513.71875 C 463.164062 504.421875 461.6875 495.121094 460.625 485.960938 C 460.59375 485.703125 460.445312 485.476562 460.21875 485.328125 L 454.320312 481.207031 C 453.355469 480.515625 452.382812 479.863281 451.4375 479.144531 L 448.636719 476.953125 C 446.785156 475.480469 444.9375 474.089844 443.160156 472.574219 L 437.9375 467.984375 C 437.328125 467.445312 437.75 466.441406 438.5625 466.464844 L 445.371094 466.621094 C 447.625 466.644531 449.902344 466.523438 452.125 466.46875 L 455.449219 466.351562 C 456.554688 466.300781 457.675781 466.179688 458.777344 466.09375 L 465.324219 465.511719 C 465.566406 465.480469 465.792969 465.332031 465.933594 465.113281 C 470.941406 457.339844 475.519531 449.496094 479.683594 441.515625 C 480.058594 440.800781 480.90625 440.945312 480.976562 441.742188 C 481.386719 446.222656 481.898438 450.730469 482.519531 455.257812 C 483.136719 459.792969 483.859375 464.34375 484.707031 468.800781 C 484.757812 469.054688 484.910156 469.265625 485.125 469.382812 L 490.949219 472.496094 C 492.921875 473.492188 494.933594 474.386719 496.964844 475.339844 L 500.03125 476.753906 C 501.0625 477.226562 502.101562 477.605469 503.148438 478.035156 L 509.5 480.550781 C 510.257812 480.847656 510.261719 481.933594 509.496094 482.191406 L 502.914062 484.378906 C 501.804688 484.730469 500.6875 485.132812 499.566406 485.441406 L 496.183594 486.363281 C 493.917969 486.964844 491.621094 487.621094 489.304688 488.167969 L 482.292969 489.648438 C 482.03125 489.703125 481.804688 489.867188 481.675781 490.097656 Z M 481.675781 490.097656 " fill-opacity="1" fill-rule="nonzero"/></g><path fill="#8e6600" d="M 408.136719 464.175781 C 404.476562 467.117188 400.785156 469.902344 396.996094 472.636719 C 393.210938 475.371094 389.332031 478.046875 385.367188 480.664062 C 384.667969 481.125 383.574219 480.421875 383.730469 479.605469 C 385.5625 470.257812 387.746094 461.15625 390.296875 452.269531 C 390.371094 452.019531 390.328125 451.742188 390.179688 451.511719 C 387.554688 447.449219 384.960938 443.511719 382.691406 439.355469 C 380.300781 435.328125 378.265625 431.078125 376.226562 426.988281 C 375.867188 426.265625 376.636719 425.496094 377.382812 425.824219 C 381.609375 427.664062 385.679688 429.511719 389.929688 431.003906 C 394.066406 432.628906 398.359375 433.894531 402.503906 435.175781 C 402.738281 435.246094 402.996094 435.207031 403.207031 435.0625 C 410.800781 429.824219 418.078125 424.300781 424.976562 418.566406 C 425.59375 418.050781 426.324219 418.511719 426.085938 419.273438 C 424.738281 423.566406 423.484375 427.921875 422.316406 432.339844 C 421.144531 436.757812 420.058594 441.246094 419.128906 445.683594 C 419.074219 445.9375 419.132812 446.191406 419.289062 446.382812 L 423.464844 451.5 C 424.914062 453.152344 426.414062 454.777344 427.921875 456.4375 C 428.679688 457.261719 429.433594 458.105469 430.210938 458.921875 L 432.597656 461.289062 C 434.210938 462.859375 435.816406 464.507812 437.5 466.046875 C 438.101562 466.582031 437.6875 467.589844 436.867188 467.5625 C 434.5625 467.460938 432.28125 467.234375 429.949219 467.058594 L 426.445312 466.761719 C 425.28125 466.636719 424.132812 466.46875 422.964844 466.316406 C 420.640625 466 418.28125 465.695312 415.921875 465.332031 L 408.882812 464 C 408.613281 463.949219 408.34375 464.011719 408.136719 464.175781 Z M 408.136719 464.175781 " fill-opacity="1" fill-rule="nonzero"/><path fill="#8e6600" d="M 350.132812 412.105469 C 341.25 414.65625 332.144531 416.839844 322.796875 418.671875 C 321.980469 418.828125 321.277344 417.738281 321.738281 417.035156 C 324.355469 413.070312 327.03125 409.191406 329.765625 405.40625 C 332.5 401.617188 335.285156 397.925781 338.226562 394.265625 C 338.386719 394.058594 338.453125 393.789062 338.402344 393.519531 L 337.070312 386.480469 C 336.707031 384.121094 336.402344 381.761719 336.085938 379.4375 C 335.933594 378.269531 335.765625 377.121094 335.640625 375.957031 L 335.34375 372.453125 C 335.167969 370.121094 334.941406 367.839844 334.839844 365.535156 C 334.8125 364.714844 335.820312 364.300781 336.355469 364.902344 C 337.894531 366.585938 339.542969 368.191406 341.113281 369.804688 L 343.480469 372.191406 C 344.296875 372.96875 345.140625 373.722656 345.964844 374.480469 C 347.625 375.988281 349.25 377.488281 350.902344 378.9375 L 356.019531 383.113281 C 356.210938 383.269531 356.464844 383.328125 356.71875 383.273438 C 361.15625 382.34375 365.644531 381.257812 370.0625 380.085938 C 374.480469 378.917969 378.835938 377.664062 383.128906 376.316406 C 383.890625 376.078125 384.351562 376.808594 383.832031 377.425781 C 378.101562 384.324219 372.578125 391.601562 367.339844 399.195312 C 367.195312 399.410156 367.15625 399.664062 367.226562 399.898438 C 368.503906 404.042969 369.773438 408.335938 371.398438 412.472656 C 372.886719 416.726562 374.738281 420.792969 376.578125 425.019531 C 376.902344 425.765625 376.136719 426.539062 375.410156 426.179688 C 371.324219 424.136719 367.070312 422.101562 363.046875 419.710938 C 358.890625 417.441406 354.953125 414.847656 350.890625 412.222656 C 350.664062 412.074219 350.382812 412.03125 350.132812 412.105469 Z M 350.132812 412.105469 " fill-opacity="1" fill-rule="nonzero"/><g clip-path="url(#b86324c0eb)"><path fill="#8e6600" d="M 316.441406 341.777344 C 307.28125 340.714844 297.984375 339.242188 288.683594 337.324219 C 287.871094 337.15625 287.636719 335.878906 288.335938 335.40625 C 292.269531 332.753906 296.230469 330.203125 300.210938 327.757812 C 304.183594 325.3125 308.179688 322.972656 312.304688 320.726562 C 312.535156 320.601562 312.699219 320.371094 312.753906 320.105469 L 314.234375 313.097656 C 314.78125 310.78125 315.4375 308.484375 316.039062 306.21875 L 316.960938 302.835938 C 317.269531 301.714844 317.671875 300.597656 318.023438 299.488281 L 320.210938 292.90625 C 320.46875 292.140625 321.554688 292.144531 321.851562 292.902344 L 324.367188 299.253906 C 324.796875 300.300781 325.175781 301.339844 325.648438 302.371094 L 327.0625 305.4375 C 328.015625 307.46875 328.910156 309.480469 329.90625 311.453125 L 333.019531 317.277344 C 333.136719 317.496094 333.347656 317.644531 333.601562 317.695312 C 338.058594 318.542969 342.609375 319.265625 347.144531 319.882812 C 351.671875 320.503906 356.179688 321.015625 360.660156 321.425781 C 361.457031 321.496094 361.601562 322.34375 360.886719 322.71875 C 352.90625 326.882812 345.0625 331.460938 337.289062 336.46875 C 337.070312 336.609375 336.921875 336.835938 336.890625 337.078125 L 336.308594 343.625 C 336.222656 344.726562 336.101562 345.847656 336.050781 346.953125 L 335.9375 350.277344 C 335.878906 352.5 335.757812 354.777344 335.78125 357.03125 L 335.9375 363.84375 C 335.960938 364.652344 334.957031 365.074219 334.417969 364.464844 L 329.828125 359.242188 C 328.3125 357.464844 326.921875 355.617188 325.449219 353.765625 L 323.257812 350.964844 C 322.539062 350.019531 321.886719 349.046875 321.195312 348.082031 L 317.074219 342.183594 C 316.925781 341.957031 316.699219 341.808594 316.441406 341.777344 Z M 316.441406 341.777344 " fill-opacity="1" fill-rule="nonzero"/></g><g clip-path="url(#9fe4295333)"><path fill="#8e6600" d="M 312.304688 263.9375 C 308.179688 261.6875 304.183594 259.351562 300.210938 256.90625 C 296.230469 254.460938 292.269531 251.910156 288.335938 249.253906 C 287.636719 248.785156 287.871094 247.507812 288.683594 247.339844 C 297.980469 245.421875 307.28125 243.949219 316.441406 242.886719 C 316.699219 242.855469 316.925781 242.707031 317.074219 242.480469 L 321.195312 236.582031 C 321.886719 235.617188 322.539062 234.644531 323.257812 233.699219 L 325.449219 230.898438 C 326.921875 229.046875 328.3125 227.199219 329.828125 225.421875 L 334.417969 220.195312 C 334.957031 219.589844 335.960938 220.011719 335.9375 220.820312 L 335.78125 227.632812 C 335.757812 229.882812 335.878906 232.160156 335.9375 234.386719 L 336.050781 237.710938 C 336.101562 238.816406 336.222656 239.933594 336.308594 241.039062 L 336.890625 247.585938 C 336.921875 247.828125 337.070312 248.054688 337.289062 248.195312 C 345.066406 253.199219 352.90625 257.777344 360.886719 261.945312 C 361.601562 262.316406 361.457031 263.164062 360.660156 263.238281 C 356.179688 263.644531 351.671875 264.160156 347.144531 264.777344 C 342.609375 265.394531 338.058594 266.121094 333.601562 266.96875 C 333.347656 267.015625 333.136719 267.167969 333.019531 267.382812 L 329.90625 273.210938 C 328.910156 275.183594 328.015625 277.195312 327.0625 279.222656 L 325.648438 282.292969 C 325.175781 283.324219 324.796875 284.363281 324.367188 285.410156 L 321.851562 291.761719 C 321.554688 292.519531 320.46875 292.523438 320.210938 291.757812 L 318.023438 285.175781 C 317.671875 284.066406 317.269531 282.949219 316.960938 281.828125 L 316.039062 278.445312 C 315.4375 276.179688 314.78125 273.878906 314.234375 271.566406 L 312.753906 264.554688 C 312.699219 264.289062 312.535156 264.0625 312.304688 263.9375 Z M 312.304688 263.9375 " fill-opacity="1" fill-rule="nonzero"/></g><path fill="#8e6600" d="M 338.226562 190.398438 C 335.285156 186.734375 332.5 183.042969 329.765625 179.257812 C 327.03125 175.46875 324.355469 171.59375 321.738281 167.628906 C 321.277344 166.925781 321.980469 165.835938 322.796875 165.992188 C 332.144531 167.824219 341.25 170.007812 350.132812 172.558594 C 350.382812 172.632812 350.664062 172.589844 350.890625 172.441406 C 354.953125 169.816406 358.890625 167.222656 363.046875 164.949219 C 367.074219 162.5625 371.324219 160.527344 375.414062 158.484375 C 376.136719 158.125 376.90625 158.898438 376.578125 159.644531 C 374.738281 163.871094 372.890625 167.9375 371.398438 172.191406 C 369.773438 176.328125 368.507812 180.621094 367.226562 184.765625 C 367.15625 184.996094 367.199219 185.253906 367.339844 185.464844 C 372.578125 193.0625 378.101562 200.339844 383.835938 207.238281 C 384.351562 207.855469 383.890625 208.582031 383.128906 208.34375 C 378.835938 207 374.480469 205.742188 370.0625 204.574219 C 365.644531 203.40625 361.15625 202.320312 356.71875 201.390625 C 356.464844 201.335938 356.210938 201.394531 356.019531 201.546875 L 350.902344 205.726562 C 349.25 207.175781 347.625 208.671875 345.964844 210.183594 C 345.140625 210.941406 344.296875 211.695312 343.480469 212.472656 L 341.113281 214.859375 C 339.542969 216.472656 337.894531 218.078125 336.355469 219.761719 C 335.820312 220.359375 334.816406 219.949219 334.839844 219.128906 C 334.941406 216.824219 335.167969 214.542969 335.34375 212.210938 L 335.640625 208.703125 C 335.769531 207.542969 335.933594 206.390625 336.085938 205.226562 C 336.402344 202.902344 336.707031 200.539062 337.070312 198.179688 L 338.402344 191.140625 C 338.453125 190.875 338.390625 190.601562 338.226562 190.398438 Z M 338.226562 190.398438 " fill-opacity="1" fill-rule="nonzero"/><path fill="#8e6600" d="M 390.296875 132.394531 C 387.746094 123.507812 385.5625 114.40625 383.730469 105.058594 C 383.574219 104.238281 384.664062 103.539062 385.367188 104 C 389.332031 106.613281 393.210938 109.292969 396.996094 112.027344 C 400.785156 114.761719 404.476562 117.542969 408.136719 120.484375 C 408.34375 120.648438 408.613281 120.714844 408.882812 120.664062 L 415.921875 119.332031 C 418.28125 118.96875 420.640625 118.664062 422.964844 118.347656 C 424.132812 118.195312 425.28125 118.027344 426.445312 117.902344 L 429.949219 117.605469 C 432.28125 117.429688 434.5625 117.203125 436.867188 117.101562 C 437.6875 117.074219 438.101562 118.082031 437.5 118.617188 C 435.816406 120.15625 434.210938 121.804688 432.597656 123.375 L 430.210938 125.742188 C 429.433594 126.554688 428.679688 127.402344 427.921875 128.226562 C 426.414062 129.886719 424.914062 131.511719 423.464844 133.164062 L 419.289062 138.28125 C 419.132812 138.472656 419.074219 138.726562 419.128906 138.976562 C 420.0625 143.417969 421.144531 147.90625 422.316406 152.324219 C 423.484375 156.738281 424.742188 161.097656 426.085938 165.390625 C 426.324219 166.152344 425.59375 166.613281 424.976562 166.09375 C 418.078125 160.363281 410.800781 154.839844 403.207031 149.601562 C 402.996094 149.457031 402.738281 149.414062 402.503906 149.488281 C 398.359375 150.765625 394.066406 152.035156 389.929688 153.660156 C 385.679688 155.148438 381.609375 157 377.382812 158.839844 C 376.636719 159.164062 375.867188 158.398438 376.226562 157.671875 C 378.265625 153.585938 380.300781 149.332031 382.691406 145.308594 C 384.960938 141.152344 387.554688 137.214844 390.179688 133.152344 C 390.328125 132.921875 390.371094 132.644531 390.296875 132.394531 Z M 390.296875 132.394531 " fill-opacity="1" fill-rule="nonzero"/><path fill="#8e6600" d="M 460.625 98.703125 C 461.6875 89.542969 463.160156 80.242188 465.078125 70.945312 C 465.246094 70.128906 466.523438 69.898438 466.996094 70.59375 C 469.648438 74.53125 472.203125 78.492188 474.644531 82.472656 C 477.089844 86.445312 479.429688 90.441406 481.675781 94.566406 C 481.800781 94.792969 482.03125 94.960938 482.296875 95.015625 L 489.304688 96.496094 C 491.621094 97.042969 493.917969 97.699219 496.183594 98.296875 L 499.566406 99.222656 C 500.6875 99.53125 501.804688 99.933594 502.914062 100.285156 L 509.496094 102.472656 C 510.265625 102.730469 510.257812 103.816406 509.5 104.113281 L 503.148438 106.628906 C 502.101562 107.058594 501.0625 107.4375 500.03125 107.910156 L 496.964844 109.324219 C 494.933594 110.277344 492.921875 111.171875 490.949219 112.167969 L 485.125 115.28125 C 484.910156 115.398438 484.757812 115.609375 484.710938 115.863281 C 483.859375 120.316406 483.136719 124.871094 482.519531 129.40625 C 481.898438 133.933594 481.386719 138.441406 480.976562 142.921875 C 480.90625 143.714844 480.058594 143.863281 479.6875 143.148438 C 475.519531 135.164062 470.941406 127.324219 465.933594 119.546875 C 465.792969 119.332031 465.570312 119.179688 465.324219 119.152344 L 458.777344 118.570312 C 457.675781 118.484375 456.554688 118.363281 455.449219 118.3125 L 452.125 118.195312 C 449.902344 118.140625 447.625 118.019531 445.371094 118.039062 L 438.5625 118.199219 C 437.75 118.21875 437.328125 117.21875 437.9375 116.679688 L 443.160156 112.089844 C 444.9375 110.570312 446.785156 109.183594 448.636719 107.707031 L 451.4375 105.519531 C 452.382812 104.800781 453.355469 104.148438 454.320312 103.453125 L 460.21875 99.335938 C 460.445312 99.1875 460.59375 98.960938 460.625 98.703125 Z M 460.625 98.703125 " fill-opacity="1" fill-rule="nonzero"/><path fill="#8e6600" d="M 538.464844 94.566406 C 540.714844 90.441406 543.050781 86.445312 545.496094 82.472656 C 547.941406 78.492188 550.492188 74.53125 553.148438 70.59375 C 553.617188 69.898438 554.894531 70.128906 555.0625 70.945312 C 556.980469 80.242188 558.453125 89.542969 559.515625 98.703125 C 559.546875 98.960938 559.695312 99.1875 559.921875 99.335938 L 565.820312 103.453125 C 566.785156 104.148438 567.757812 104.800781 568.703125 105.519531 L 571.503906 107.707031 C 573.355469 109.183594 575.203125 110.570312 576.980469 112.089844 L 582.207031 116.679688 C 582.8125 117.21875 582.390625 118.21875 581.582031 118.199219 L 574.769531 118.042969 C 572.519531 118.019531 570.242188 118.140625 568.015625 118.195312 L 564.691406 118.3125 C 563.585938 118.363281 562.46875 118.484375 561.367188 118.570312 L 554.816406 119.152344 C 554.574219 119.183594 554.347656 119.332031 554.207031 119.546875 C 549.203125 127.324219 544.625 135.167969 540.457031 143.148438 C 540.085938 143.863281 539.238281 143.714844 539.164062 142.921875 C 538.757812 138.441406 538.242188 133.933594 537.625 129.40625 C 537.007812 124.871094 536.28125 120.320312 535.433594 115.863281 C 535.386719 115.609375 535.234375 115.398438 535.019531 115.28125 L 529.191406 112.167969 C 527.21875 111.171875 525.210938 110.277344 523.179688 109.324219 L 520.109375 107.910156 C 519.078125 107.4375 518.039062 107.058594 516.992188 106.628906 L 510.640625 104.113281 C 509.882812 103.816406 509.878906 102.730469 510.644531 102.472656 L 517.226562 100.285156 C 518.335938 99.933594 519.453125 99.53125 520.574219 99.222656 L 523.957031 98.296875 C 526.222656 97.699219 528.523438 97.042969 530.835938 96.496094 L 537.847656 95.015625 C 538.113281 94.960938 538.339844 94.792969 538.464844 94.566406 Z M 538.464844 94.566406 " fill-opacity="1" fill-rule="nonzero"/><path fill="#8e6600" d="M 612.003906 120.484375 C 615.667969 117.542969 619.359375 114.761719 623.144531 112.027344 C 626.933594 109.292969 630.808594 106.613281 634.773438 104 C 635.476562 103.539062 636.566406 104.238281 636.410156 105.058594 C 634.578125 114.40625 632.394531 123.507812 629.84375 132.390625 C 629.769531 132.644531 629.8125 132.921875 629.960938 133.152344 C 632.585938 137.214844 635.179688 141.152344 637.453125 145.308594 C 639.839844 149.332031 641.875 153.585938 643.917969 157.671875 C 644.277344 158.398438 643.503906 159.164062 642.757812 158.839844 C 638.53125 157 634.464844 155.148438 630.210938 153.660156 C 626.074219 152.035156 621.78125 150.765625 617.636719 149.488281 C 617.40625 149.414062 617.148438 149.457031 616.9375 149.601562 C 609.339844 154.839844 602.0625 160.363281 595.164062 166.09375 C 594.546875 166.613281 593.820312 166.152344 594.058594 165.390625 C 595.402344 161.097656 596.660156 156.738281 597.828125 152.324219 C 598.996094 147.90625 600.082031 143.417969 601.011719 138.976562 C 601.066406 138.726562 601.007812 138.472656 600.855469 138.28125 L 596.675781 133.164062 C 595.226562 131.511719 593.730469 129.886719 592.21875 128.226562 C 591.460938 127.402344 590.707031 126.554688 589.929688 125.742188 L 587.542969 123.375 C 585.929688 121.804688 584.324219 120.15625 582.640625 118.617188 C 582.042969 118.082031 582.453125 117.074219 583.273438 117.101562 C 585.578125 117.203125 587.859375 117.429688 590.191406 117.605469 L 593.699219 117.902344 C 594.859375 118.027344 596.011719 118.195312 597.175781 118.347656 C 599.5 118.664062 601.863281 118.96875 604.222656 119.332031 L 611.261719 120.664062 C 611.527344 120.714844 611.800781 120.648438 612.003906 120.484375 Z M 612.003906 120.484375 " fill-opacity="1" fill-rule="nonzero"/><path fill="#8e6600" d="M 670.011719 172.558594 C 678.894531 170.007812 687.996094 167.824219 697.34375 165.992188 C 698.164062 165.835938 698.863281 166.925781 698.402344 167.628906 C 695.789062 171.59375 693.109375 175.46875 690.375 179.257812 C 687.640625 183.042969 684.859375 186.734375 681.917969 190.398438 C 681.753906 190.601562 681.6875 190.875 681.738281 191.140625 L 683.070312 198.179688 C 683.433594 200.539062 683.738281 202.902344 684.054688 205.226562 C 684.207031 206.390625 684.375 207.542969 684.5 208.703125 L 684.796875 212.210938 C 684.972656 214.542969 685.203125 216.824219 685.300781 219.128906 C 685.328125 219.949219 684.320312 220.359375 683.785156 219.761719 C 682.246094 218.078125 680.597656 216.472656 679.027344 214.859375 L 676.660156 212.472656 C 675.847656 211.695312 675 210.941406 674.175781 210.183594 C 672.515625 208.671875 670.890625 207.175781 669.238281 205.726562 L 664.121094 201.546875 C 663.929688 201.394531 663.675781 201.335938 663.425781 201.390625 C 658.984375 202.320312 654.496094 203.40625 650.078125 204.574219 C 645.664062 205.742188 641.304688 207 637.011719 208.347656 C 636.25 208.582031 635.789062 207.855469 636.308594 207.238281 C 642.039062 200.339844 647.5625 193.0625 652.800781 185.464844 C 652.945312 185.253906 652.988281 184.996094 652.914062 184.765625 C 651.636719 180.621094 650.367188 176.328125 648.742188 172.191406 C 647.253906 167.9375 645.402344 163.871094 643.5625 159.644531 C 643.238281 158.898438 644.003906 158.125 644.730469 158.484375 C 648.816406 160.527344 653.070312 162.5625 657.09375 164.949219 C 661.253906 167.222656 665.1875 169.816406 669.25 172.441406 C 669.480469 172.589844 669.757812 172.632812 670.011719 172.558594 Z M 670.011719 172.558594 " fill-opacity="1" fill-rule="nonzero"/><g clip-path="url(#8f616f2ed2)"><path fill="#8e6600" d="M 703.699219 242.886719 C 712.859375 243.949219 722.160156 245.421875 731.457031 247.339844 C 732.273438 247.507812 732.503906 248.785156 731.808594 249.253906 C 727.871094 251.910156 723.910156 254.460938 719.929688 256.90625 C 715.957031 259.351562 711.960938 261.6875 707.835938 263.9375 C 707.609375 264.0625 707.441406 264.289062 707.386719 264.554688 L 705.90625 271.566406 C 705.359375 273.878906 704.703125 276.179688 704.105469 278.445312 L 703.179688 281.828125 C 702.871094 282.949219 702.46875 284.066406 702.117188 285.175781 L 699.929688 291.757812 C 699.671875 292.523438 698.585938 292.519531 698.289062 291.761719 L 695.773438 285.410156 C 695.34375 284.363281 694.964844 283.320312 694.492188 282.292969 L 693.078125 279.222656 C 692.125 277.191406 691.230469 275.183594 690.234375 273.210938 L 687.121094 267.382812 C 687.003906 267.167969 686.792969 267.015625 686.539062 266.96875 C 682.085938 266.121094 677.53125 265.394531 672.996094 264.777344 C 668.46875 264.160156 663.960938 263.644531 659.480469 263.238281 C 658.6875 263.164062 658.539062 262.316406 659.253906 261.945312 C 667.238281 257.777344 675.078125 253.199219 682.855469 248.195312 C 683.070312 248.054688 683.222656 247.828125 683.25 247.585938 L 683.832031 241.035156 C 683.917969 239.933594 684.042969 238.816406 684.089844 237.710938 L 684.207031 234.382812 C 684.261719 232.160156 684.382812 229.882812 684.363281 227.632812 L 684.203125 220.820312 C 684.183594 220.007812 685.183594 219.589844 685.722656 220.195312 L 690.3125 225.421875 C 691.832031 227.195312 693.222656 229.046875 694.695312 230.894531 L 696.882812 233.699219 C 697.601562 234.644531 698.253906 235.617188 698.949219 236.582031 L 703.066406 242.480469 C 703.214844 242.707031 703.441406 242.855469 703.699219 242.886719 Z M 703.699219 242.886719 " fill-opacity="1" fill-rule="nonzero"/></g><g clip-path="url(#17a083ce01)"><g clip-path="url(#f1f27c82fc)"><g clip-path="url(#1336b8e03e)"><path fill="#8e6600" d="M 659.71875 424.6875 C 661.933594 428.832031 663.988281 432.980469 665.964844 437.203125 C 667.949219 441.433594 669.859375 445.738281 671.6875 450.121094 C 672.011719 450.894531 671.117188 451.835938 670.34375 451.53125 C 661.519531 448.023438 652.9375 444.152344 644.703125 440.007812 C 644.46875 439.890625 644.195312 439.890625 643.949219 440 L 637.269531 442.667969 C 636.15625 443.09375 635.078125 443.546875 633.957031 443.941406 L 630.589844 445.082031 C 628.34375 445.816406 626.164062 446.601562 623.921875 447.25 L 617.21875 449.097656 C 616.433594 449.308594 615.828125 448.40625 616.289062 447.742188 L 620.164062 442.136719 C 621.417969 440.265625 622.566406 438.296875 623.742188 436.40625 L 625.472656 433.566406 C 626.035156 432.613281 626.550781 431.609375 627.082031 430.644531 L 630.191406 424.851562 C 630.300781 424.628906 630.300781 424.359375 630.195312 424.125 C 626.445312 415.667969 622.40625 407.535156 618.023438 399.671875 C 617.628906 398.96875 618.21875 398.339844 618.921875 398.714844 C 622.894531 400.835938 626.941406 402.882812 631.066406 404.851562 C 635.195312 406.824219 639.394531 408.71875 643.585938 410.457031 C 643.824219 410.554688 644.085938 410.546875 644.300781 410.429688 L 650.101562 407.269531 C 652.015625 406.167969 653.867188 404.980469 655.78125 403.808594 L 658.648438 402.019531 C 659.609375 401.417969 660.496094 400.753906 661.429688 400.117188 L 667.019531 396.191406 C 667.683594 395.71875 668.59375 396.3125 668.390625 397.097656 L 666.601562 403.796875 C 666.289062 404.917969 666.011719 406.074219 665.652344 407.179688 L 664.566406 410.511719 C 663.824219 412.734375 663.109375 415.019531 662.292969 417.25 L 659.683594 423.921875 C 659.582031 424.175781 659.597656 424.457031 659.71875 424.6875 Z M 659.71875 424.6875 " fill-opacity="1" fill-rule="nonzero"/></g></g></g><g clip-path="url(#b37af2a577)"><g clip-path="url(#1cbba712c9)"><g clip-path="url(#944e6065bb)"><path fill="#8e6600" d="M 597.671875 471.910156 C 598.117188 476.585938 598.417969 481.199219 598.621094 485.863281 C 598.828125 490.53125 598.9375 495.242188 598.945312 499.992188 C 598.945312 500.832031 597.757812 501.359375 597.164062 500.777344 C 590.355469 494.113281 583.945312 487.289062 577.925781 480.277344 C 577.753906 480.078125 577.496094 479.960938 577.226562 479.960938 C 572.386719 479.921875 567.671875 479.929688 562.949219 479.542969 C 558.277344 479.328125 553.605469 478.695312 549.066406 478.15625 C 548.265625 478.058594 548.046875 476.992188 548.730469 476.546875 C 552.585938 474.027344 556.367188 471.640625 559.949219 468.90625 C 563.578125 466.339844 566.996094 463.449219 570.339844 460.691406 C 570.527344 460.535156 570.632812 460.296875 570.628906 460.039062 C 570.425781 450.816406 569.804688 441.703125 568.804688 432.789062 C 568.710938 431.988281 569.496094 431.632812 570 432.25 C 572.851562 435.730469 575.800781 439.175781 578.851562 442.578125 C 581.902344 445.980469 585.054688 449.351562 588.253906 452.570312 C 588.433594 452.75 588.679688 452.84375 588.921875 452.816406 L 595.492188 452.136719 C 597.671875 451.832031 599.851562 451.472656 602.066406 451.125 C 603.171875 450.945312 604.292969 450.777344 605.398438 450.574219 L 608.691406 449.878906 C 610.890625 449.398438 613.148438 448.957031 615.359375 448.398438 C 616.136719 448.191406 616.75 449.085938 616.277344 449.757812 C 614.925781 451.628906 613.484375 453.410156 612.058594 455.261719 L 609.886719 458.03125 C 609.140625 458.929688 608.367188 459.800781 607.601562 460.691406 C 606.0625 462.460938 604.511719 464.265625 602.910156 466.039062 L 597.929688 471.191406 C 597.742188 471.386719 597.648438 471.648438 597.671875 471.910156 Z M 597.671875 471.910156 " fill-opacity="1" fill-rule="nonzero"/></g></g></g><g clip-path="url(#f906618539)"><g clip-path="url(#70b6a09925)"><g clip-path="url(#fe3ae4e696)"><path fill="#8e6600" d="M 522.296875 491.789062 C 519.550781 500.613281 516.375 509.417969 512.773438 518.238281 C 512.457031 519.007812 511.160156 518.996094 510.828125 518.222656 C 508.949219 513.859375 507.179688 509.496094 505.515625 505.128906 C 503.851562 500.765625 502.296875 496.410156 500.851562 491.941406 C 500.769531 491.691406 500.578125 491.488281 500.328125 491.386719 L 493.710938 488.632812 C 491.539062 487.640625 489.398438 486.597656 487.285156 485.585938 C 486.226562 485.070312 485.171875 484.578125 484.132812 484.046875 L 481.039062 482.371094 C 478.996094 481.234375 476.964844 480.175781 474.984375 478.992188 C 474.28125 478.5625 474.492188 477.496094 475.285156 477.378906 C 477.535156 477.015625 479.785156 476.523438 481.992188 476.09375 L 485.292969 475.425781 C 486.386719 475.171875 487.484375 474.878906 488.566406 474.609375 C 490.742188 474.046875 492.882812 473.515625 495.003906 472.929688 L 501.304688 470.945312 C 501.539062 470.871094 501.726562 470.691406 501.820312 470.453125 C 503.480469 466.226562 505.039062 461.882812 506.488281 457.546875 C 507.9375 453.214844 509.277344 448.882812 510.511719 444.558594 C 510.730469 443.789062 511.59375 443.804688 511.824219 444.578125 C 514.441406 453.15625 517.488281 461.769531 520.960938 470.316406 C 521.058594 470.554688 521.25 470.730469 521.484375 470.796875 C 525.652344 472.003906 529.933594 473.300781 534.285156 474.214844 C 538.65625 475.308594 543.074219 475.996094 547.613281 476.78125 C 548.417969 476.914062 548.640625 477.980469 547.941406 478.390625 C 543.992188 480.6875 539.953125 483.121094 535.75 485.171875 C 531.566406 487.398438 527.238281 489.265625 522.8125 491.21875 C 522.5625 491.328125 522.375 491.535156 522.296875 491.789062 Z M 522.296875 491.789062 " fill-opacity="1" fill-rule="nonzero"/></g></g></g><g clip-path="url(#a7d179917e)"><g clip-path="url(#287b811bd0)"><g clip-path="url(#96ca1ad29a)"><path fill="#8e6600" d="M 445.023438 481.320312 C 439.105469 488.394531 432.765625 495.355469 426.058594 502.074219 C 425.46875 502.660156 424.273438 502.152344 424.265625 501.3125 C 424.207031 496.566406 424.25 491.855469 424.390625 487.1875 C 424.53125 482.523438 424.773438 477.898438 425.160156 473.21875 C 425.179688 472.957031 425.082031 472.695312 424.886719 472.503906 L 419.84375 467.414062 C 418.207031 465.6875 416.648438 463.875 415.082031 462.128906 L 412.765625 459.5 C 411.996094 458.628906 411.285156 457.675781 410.550781 456.773438 L 406.25 451.332031 C 405.75 450.695312 406.351562 449.789062 407.148438 449.957031 L 413.839844 451.34375 C 414.949219 451.558594 416.027344 451.816406 417.148438 451.984375 L 420.488281 452.488281 C 422.710938 452.804688 424.878906 453.164062 427.078125 453.414062 L 433.652344 454.011719 C 433.898438 454.035156 434.140625 453.9375 434.320312 453.753906 C 437.476562 450.496094 440.582031 447.089844 443.589844 443.640625 C 446.59375 440.195312 449.496094 436.710938 452.300781 433.1875 C 452.796875 432.566406 453.585938 432.90625 453.503906 433.710938 C 452.601562 442.667969 452.121094 451.734375 452.035156 460.984375 C 452.035156 461.242188 452.140625 461.492188 452.328125 461.648438 L 457.480469 465.734375 C 458.351562 466.410156 459.222656 467.128906 460.117188 467.777344 L 462.832031 469.699219 C 464.660156 470.964844 466.496094 472.320312 468.390625 473.535156 L 474.167969 477.144531 C 474.859375 477.574219 474.660156 478.644531 473.855469 478.757812 L 466.96875 479.722656 C 464.652344 480.015625 462.34375 480.164062 459.988281 480.378906 L 456.445312 480.667969 C 455.261719 480.753906 454.089844 480.765625 452.902344 480.8125 L 445.710938 481.011719 C 445.441406 481.011719 445.191406 481.121094 445.023438 481.320312 Z M 445.023438 481.320312 " fill-opacity="1" fill-rule="nonzero"/></g></g></g><g clip-path="url(#145865d8cf)"><g clip-path="url(#bbb506eb05)"><g clip-path="url(#6a4fe2646b)"><path fill="#8e6600" d="M 377.699219 442.03125 C 373.554688 444.242188 369.40625 446.300781 365.183594 448.277344 C 360.953125 450.261719 356.648438 452.167969 352.265625 454 C 351.492188 454.324219 350.550781 453.429688 350.855469 452.65625 C 354.363281 443.832031 358.238281 435.25 362.378906 427.011719 C 362.496094 426.78125 362.496094 426.507812 362.390625 426.257812 L 359.722656 419.578125 C 359.292969 418.46875 358.839844 417.390625 358.445312 416.269531 L 357.304688 412.902344 C 356.570312 410.65625 355.785156 408.476562 355.136719 406.234375 L 353.289062 399.527344 C 353.078125 398.746094 353.980469 398.136719 354.644531 398.601562 L 360.25 402.472656 C 362.121094 403.730469 364.09375 404.878906 365.980469 406.054688 L 368.820312 407.78125 C 369.773438 408.347656 370.777344 408.859375 371.746094 409.394531 L 377.535156 412.503906 C 377.757812 412.613281 378.027344 412.609375 378.261719 412.507812 C 386.71875 408.757812 394.851562 404.71875 402.714844 400.335938 C 403.417969 399.941406 404.046875 400.53125 403.671875 401.234375 C 401.550781 405.203125 399.503906 409.253906 397.535156 413.375 C 395.5625 417.507812 393.667969 421.707031 391.929688 425.898438 C 391.832031 426.136719 391.839844 426.394531 391.957031 426.613281 L 395.117188 432.410156 C 396.21875 434.328125 397.40625 436.179688 398.578125 438.09375 L 400.367188 440.960938 C 400.96875 441.917969 401.632812 442.808594 402.269531 443.742188 L 406.195312 449.332031 C 406.667969 449.996094 406.074219 450.90625 405.289062 450.703125 L 398.589844 448.914062 C 397.46875 448.597656 396.3125 448.320312 395.207031 447.964844 L 391.875 446.878906 C 389.652344 446.136719 387.371094 445.421875 385.136719 444.605469 L 378.464844 441.996094 C 378.210938 441.894531 377.929688 441.910156 377.699219 442.03125 Z M 377.699219 442.03125 " fill-opacity="1" fill-rule="nonzero"/></g></g></g><g clip-path="url(#72f95e597e)"><g clip-path="url(#04580020a0)"><g clip-path="url(#8759c24ec6)"><path fill="#8e6600" d="M 330.476562 379.984375 C 325.800781 380.429688 321.1875 380.730469 316.523438 380.933594 C 311.855469 381.140625 307.144531 381.246094 302.394531 381.253906 C 301.554688 381.257812 301.03125 380.070312 301.609375 379.472656 C 308.273438 372.667969 315.097656 366.257812 322.109375 360.234375 C 322.308594 360.066406 322.425781 359.808594 322.425781 359.539062 C 322.464844 354.699219 322.457031 349.984375 322.84375 345.261719 C 323.058594 340.589844 323.691406 335.917969 324.230469 331.378906 C 324.328125 330.574219 325.394531 330.359375 325.839844 331.042969 C 328.359375 334.898438 330.746094 338.679688 333.480469 342.261719 C 336.046875 345.890625 338.9375 349.308594 341.695312 352.652344 C 341.851562 352.839844 342.089844 352.945312 342.347656 352.941406 C 351.570312 352.738281 360.683594 352.117188 369.597656 351.113281 C 370.398438 351.023438 370.753906 351.804688 370.136719 352.3125 C 366.65625 355.160156 363.210938 358.113281 359.8125 361.160156 C 356.40625 364.210938 353.035156 367.367188 349.820312 370.566406 C 349.636719 370.746094 349.542969 370.992188 349.570312 371.234375 L 350.25 377.804688 C 350.554688 379.984375 350.914062 382.164062 351.261719 384.378906 C 351.441406 385.484375 351.609375 386.605469 351.8125 387.710938 L 352.507812 391.003906 C 352.992188 393.199219 353.429688 395.460938 353.988281 397.671875 C 354.195312 398.445312 353.300781 399.0625 352.628906 398.589844 C 350.757812 397.238281 348.976562 395.796875 347.125 394.367188 L 344.355469 392.195312 C 343.457031 391.453125 342.585938 390.679688 341.695312 389.914062 C 339.925781 388.375 338.121094 386.820312 336.347656 385.222656 L 331.195312 380.242188 C 331.003906 380.054688 330.738281 379.957031 330.476562 379.984375 Z M 330.476562 379.984375 " fill-opacity="1" fill-rule="nonzero"/></g></g></g><g clip-path="url(#02841c7ecb)"><g clip-path="url(#d71a868ded)"><g clip-path="url(#d272c974e7)"><path fill="#8e6600" d="M 310.597656 304.609375 C 301.773438 301.863281 292.96875 298.6875 284.148438 295.085938 C 283.378906 294.765625 283.390625 293.46875 284.164062 293.136719 C 288.527344 291.261719 292.890625 289.488281 297.257812 287.828125 C 301.621094 286.164062 305.976562 284.609375 310.445312 283.164062 C 310.695312 283.082031 310.898438 282.890625 311 282.636719 L 313.753906 276.023438 C 314.746094 273.851562 315.789062 271.710938 316.800781 269.59375 C 317.316406 268.539062 317.808594 267.484375 318.339844 266.445312 L 320.015625 263.351562 C 321.152344 261.304688 322.210938 259.273438 323.394531 257.292969 C 323.824219 256.59375 324.890625 256.800781 325.007812 257.597656 C 325.371094 259.847656 325.863281 262.097656 326.292969 264.304688 L 326.960938 267.601562 C 327.214844 268.699219 327.507812 269.792969 327.777344 270.878906 C 328.339844 273.050781 328.871094 275.195312 329.457031 277.316406 L 331.441406 283.617188 C 331.515625 283.851562 331.695312 284.039062 331.933594 284.132812 C 336.15625 285.792969 340.503906 287.347656 344.839844 288.796875 C 349.171875 290.246094 353.5 291.589844 357.828125 292.824219 C 358.59375 293.042969 358.582031 293.90625 357.808594 294.136719 C 349.230469 296.753906 340.617188 299.800781 332.070312 303.273438 C 331.832031 303.371094 331.65625 303.5625 331.589844 303.796875 C 330.382812 307.964844 329.085938 312.246094 328.171875 316.597656 C 327.078125 320.96875 326.390625 325.386719 325.605469 329.925781 C 325.472656 330.730469 324.40625 330.953125 323.996094 330.253906 C 321.703125 326.304688 319.265625 322.265625 317.214844 318.0625 C 314.988281 313.878906 313.121094 309.550781 311.167969 305.125 C 311.058594 304.875 310.851562 304.6875 310.597656 304.609375 Z M 310.597656 304.609375 " fill-opacity="1" fill-rule="nonzero"/></g></g></g><g clip-path="url(#7a638a3003)"><g clip-path="url(#eaabf2c61f)"><g clip-path="url(#d5daccc3bc)"><path fill="#8e6600" d="M 321.066406 227.335938 C 313.996094 221.417969 307.03125 215.078125 300.3125 208.371094 C 299.726562 207.78125 300.234375 206.585938 301.074219 206.578125 C 305.820312 206.519531 310.53125 206.5625 315.203125 206.703125 C 319.863281 206.84375 324.488281 207.082031 329.167969 207.46875 C 329.429688 207.492188 329.691406 207.390625 329.886719 207.199219 L 334.972656 202.15625 C 336.699219 200.519531 338.511719 198.960938 340.257812 197.394531 L 342.886719 195.078125 C 343.757812 194.308594 344.710938 193.597656 345.613281 192.863281 L 351.054688 188.5625 C 351.691406 188.0625 352.597656 188.664062 352.429688 189.460938 L 351.042969 196.152344 C 350.828125 197.261719 350.570312 198.339844 350.402344 199.457031 L 349.898438 202.800781 C 349.582031 205.023438 349.222656 207.191406 348.972656 209.386719 L 348.375 215.964844 C 348.351562 216.210938 348.449219 216.453125 348.632812 216.632812 C 351.890625 219.789062 355.296875 222.894531 358.746094 225.902344 C 362.191406 228.902344 365.675781 231.808594 369.199219 234.613281 C 369.820312 235.109375 369.480469 235.898438 368.675781 235.8125 C 359.71875 234.914062 350.652344 234.433594 341.402344 234.347656 C 341.144531 234.34375 340.894531 234.449219 340.738281 234.640625 L 336.652344 239.789062 C 335.976562 240.664062 335.257812 241.535156 334.609375 242.429688 L 332.6875 245.144531 C 331.421875 246.972656 330.066406 248.808594 328.851562 250.703125 L 325.242188 256.480469 C 324.8125 257.171875 323.746094 256.972656 323.628906 256.167969 L 322.664062 249.28125 C 322.371094 246.964844 322.222656 244.65625 322.007812 242.300781 L 321.71875 238.757812 C 321.632812 237.570312 321.625 236.402344 321.574219 235.214844 L 321.375 228.023438 C 321.375 227.753906 321.265625 227.5 321.066406 227.335938 Z M 321.066406 227.335938 " fill-opacity="1" fill-rule="nonzero"/></g></g></g><g clip-path="url(#ff2153fcf0)"><g clip-path="url(#f9b0400537)"><g clip-path="url(#ef6d9fc667)"><path fill="#8e6600" d="M 360.355469 160.011719 C 358.144531 155.867188 356.085938 151.71875 354.109375 147.496094 C 352.125 143.265625 350.21875 138.960938 348.386719 134.578125 C 348.0625 133.804688 348.957031 132.863281 349.730469 133.167969 C 358.554688 136.675781 367.136719 140.546875 375.375 144.691406 C 375.605469 144.808594 375.878906 144.808594 376.128906 144.699219 L 382.808594 142.03125 C 383.917969 141.605469 384.996094 141.152344 386.117188 140.757812 L 389.484375 139.617188 C 391.730469 138.882812 393.910156 138.097656 396.152344 137.449219 L 402.859375 135.601562 C 403.640625 135.390625 404.25 136.292969 403.785156 136.957031 L 399.914062 142.5625 C 398.65625 144.433594 397.507812 146.402344 396.335938 148.292969 L 394.605469 151.132812 C 394.039062 152.085938 393.527344 153.089844 392.992188 154.054688 L 389.882812 159.847656 C 389.773438 160.070312 389.777344 160.339844 389.882812 160.574219 C 393.628906 169.03125 397.667969 177.160156 402.050781 185.027344 C 402.445312 185.730469 401.855469 186.359375 401.152344 185.984375 C 397.183594 183.863281 393.132812 181.816406 389.011719 179.847656 C 384.882812 177.875 380.679688 175.980469 376.488281 174.242188 C 376.253906 174.144531 375.992188 174.152344 375.777344 174.269531 L 369.976562 177.425781 C 368.058594 178.527344 366.207031 179.71875 364.292969 180.890625 L 361.425781 182.679688 C 360.46875 183.28125 359.578125 183.941406 358.644531 184.578125 L 353.054688 188.507812 C 352.390625 188.980469 351.480469 188.386719 351.6875 187.601562 L 353.472656 180.902344 C 353.789062 179.78125 354.066406 178.625 354.421875 177.519531 L 355.507812 174.1875 C 356.25 171.960938 356.964844 169.679688 357.78125 167.449219 L 360.390625 160.777344 C 360.492188 160.523438 360.480469 160.242188 360.355469 160.011719 Z M 360.355469 160.011719 " fill-opacity="1" fill-rule="nonzero"/></g></g></g><g clip-path="url(#765bf82086)"><g clip-path="url(#532c290921)"><g clip-path="url(#6aa07f98a9)"><path fill="#8e6600" d="M 422.40625 112.789062 C 421.957031 108.113281 421.660156 103.5 421.453125 98.835938 C 421.246094 94.167969 421.140625 89.457031 421.132812 84.707031 C 421.128906 83.867188 422.316406 83.339844 422.914062 83.921875 C 429.71875 90.585938 436.128906 97.410156 442.152344 104.421875 C 442.320312 104.621094 442.578125 104.738281 442.851562 104.738281 C 447.6875 104.777344 452.402344 104.769531 457.125 105.15625 C 461.796875 105.371094 466.46875 106.003906 471.007812 106.542969 C 471.8125 106.640625 472.027344 107.707031 471.34375 108.148438 C 467.488281 110.671875 463.707031 113.054688 460.125 115.792969 C 456.496094 118.355469 453.082031 121.246094 449.734375 124.007812 C 449.546875 124.164062 449.441406 124.402344 449.445312 124.65625 C 449.648438 133.882812 450.269531 142.996094 451.273438 151.910156 C 451.367188 152.710938 450.582031 153.066406 450.074219 152.449219 C 447.226562 148.96875 444.273438 145.523438 441.226562 142.121094 C 438.175781 138.71875 435.023438 135.347656 431.824219 132.128906 C 431.640625 131.949219 431.398438 131.855469 431.152344 131.878906 L 424.582031 132.5625 C 422.402344 132.867188 420.222656 133.226562 418.007812 133.574219 C 416.902344 133.753906 415.78125 133.917969 414.675781 134.125 L 411.382812 134.816406 C 409.1875 135.300781 406.925781 135.742188 404.714844 136.300781 C 403.941406 136.507812 403.324219 135.613281 403.796875 134.941406 C 405.148438 133.070312 406.589844 131.289062 408.019531 129.4375 L 410.191406 126.667969 C 410.933594 125.769531 411.707031 124.898438 412.472656 124.007812 C 414.011719 122.238281 415.566406 120.429688 417.164062 118.660156 L 422.144531 113.507812 C 422.332031 113.3125 422.429688 113.050781 422.40625 112.789062 Z M 422.40625 112.789062 " fill-opacity="1" fill-rule="nonzero"/></g></g></g><g clip-path="url(#3042b8d556)"><g clip-path="url(#9ad232f435)"><g clip-path="url(#4c678279b1)"><path fill="#8e6600" d="M 497.777344 92.910156 C 500.523438 84.085938 503.699219 75.28125 507.300781 66.460938 C 507.621094 65.691406 508.917969 65.703125 509.25 66.476562 C 511.125 70.835938 512.898438 75.203125 514.558594 79.570312 C 516.222656 83.933594 517.78125 88.289062 519.222656 92.757812 C 519.304688 93.007812 519.5 93.210938 519.75 93.3125 L 526.363281 96.066406 C 528.535156 97.058594 530.675781 98.101562 532.792969 99.113281 C 533.847656 99.628906 534.902344 100.121094 535.945312 100.652344 L 539.035156 102.328125 C 541.082031 103.460938 543.113281 104.523438 545.09375 105.707031 C 545.792969 106.136719 545.585938 107.203125 544.789062 107.320312 C 542.539062 107.683594 540.289062 108.175781 538.082031 108.605469 L 534.785156 109.273438 C 533.6875 109.527344 532.59375 109.820312 531.507812 110.089844 C 529.335938 110.652344 527.191406 111.183594 525.070312 111.769531 L 518.769531 113.753906 C 518.535156 113.828125 518.347656 114.007812 518.253906 114.246094 C 516.59375 118.46875 515.039062 122.816406 513.589844 127.152344 C 512.140625 131.484375 510.796875 135.8125 509.5625 140.140625 C 509.34375 140.90625 508.484375 140.890625 508.25 140.121094 C 505.632812 131.542969 502.585938 122.929688 499.113281 114.382812 C 499.015625 114.144531 498.824219 113.96875 498.589844 113.902344 C 494.425781 112.695312 490.140625 111.394531 485.792969 110.484375 C 481.417969 109.390625 477 108.703125 472.460938 107.917969 C 471.660156 107.78125 471.433594 106.71875 472.132812 106.308594 C 476.085938 104.011719 480.121094 101.578125 484.328125 99.527344 C 488.507812 97.300781 492.835938 95.433594 497.261719 93.480469 C 497.511719 93.371094 497.699219 93.164062 497.777344 92.910156 Z M 497.777344 92.910156 " fill-opacity="1" fill-rule="nonzero"/></g></g></g><g clip-path="url(#67ec554970)"><g clip-path="url(#2b9399da66)"><g clip-path="url(#d5118d8c8c)"><path fill="#8e6600" d="M 575.050781 103.375 C 580.96875 96.304688 587.308594 89.34375 594.015625 82.625 C 594.605469 82.039062 595.800781 82.546875 595.8125 83.386719 C 595.867188 88.132812 595.824219 92.84375 595.683594 97.511719 C 595.542969 102.175781 595.304688 106.800781 594.917969 111.480469 C 594.894531 111.742188 594.996094 112.003906 595.1875 112.195312 L 600.230469 117.285156 C 601.867188 119.011719 603.425781 120.820312 604.992188 122.570312 L 607.3125 125.199219 C 608.078125 126.070312 608.792969 127.023438 609.527344 127.925781 L 613.824219 133.367188 C 614.324219 134.003906 613.722656 134.910156 612.925781 134.742188 L 606.234375 133.355469 C 605.125 133.140625 604.046875 132.882812 602.929688 132.714844 L 599.585938 132.210938 C 597.367188 131.894531 595.195312 131.535156 593 131.285156 L 586.421875 130.6875 C 586.179688 130.664062 585.933594 130.761719 585.753906 130.945312 C 582.597656 134.203125 579.492188 137.609375 576.488281 141.058594 C 573.484375 144.503906 570.578125 147.988281 567.777344 151.511719 C 567.28125 152.132812 566.488281 151.789062 566.574219 150.988281 C 567.472656 142.03125 567.953125 132.964844 568.039062 123.714844 C 568.042969 123.457031 567.9375 123.207031 567.75 123.046875 L 562.597656 118.964844 C 561.722656 118.289062 560.855469 117.570312 559.957031 116.921875 L 557.242188 115 C 555.414062 113.734375 553.578125 112.378906 551.683594 111.164062 L 545.90625 107.554688 C 545.214844 107.125 545.414062 106.054688 546.21875 105.941406 L 553.105469 104.976562 C 555.421875 104.679688 557.734375 104.535156 560.085938 104.320312 L 563.628906 104.03125 C 564.816406 103.945312 565.988281 103.933594 567.175781 103.886719 L 574.363281 103.683594 C 574.636719 103.683594 574.886719 103.578125 575.050781 103.375 Z M 575.050781 103.375 " fill-opacity="1" fill-rule="nonzero"/></g></g></g><g clip-path="url(#39dbae4795)"><g clip-path="url(#bf4ea06294)"><g clip-path="url(#a720ccc6d7)"><path fill="#8e6600" d="M 642.375 142.667969 C 646.519531 140.457031 650.667969 138.398438 654.890625 136.421875 C 659.121094 134.4375 663.429688 132.53125 667.808594 130.699219 C 668.582031 130.375 669.523438 131.269531 669.21875 132.042969 C 665.714844 140.867188 661.839844 149.449219 657.695312 157.6875 C 657.578125 157.917969 657.578125 158.191406 657.6875 158.4375 L 660.355469 165.121094 C 660.78125 166.230469 661.234375 167.308594 661.628906 168.429688 L 662.769531 171.796875 C 663.503906 174.042969 664.289062 176.222656 664.9375 178.464844 L 666.785156 185.167969 C 666.996094 185.953125 666.09375 186.5625 665.429688 186.097656 L 659.824219 182.226562 C 657.953125 180.96875 655.984375 179.820312 654.09375 178.644531 L 651.253906 176.917969 C 650.300781 176.351562 649.296875 175.839844 648.332031 175.304688 L 642.539062 172.195312 C 642.316406 172.085938 642.046875 172.089844 641.8125 172.191406 C 633.355469 175.941406 625.226562 179.980469 617.359375 184.363281 C 616.65625 184.757812 616.027344 184.167969 616.402344 183.464844 C 618.523438 179.496094 620.570312 175.445312 622.539062 171.324219 C 624.511719 167.191406 626.40625 162.992188 628.144531 158.800781 C 628.246094 158.5625 628.234375 158.300781 628.117188 158.085938 L 624.960938 152.289062 C 623.859375 150.371094 622.667969 148.519531 621.496094 146.605469 L 619.707031 143.738281 C 619.105469 142.78125 618.445312 141.890625 617.808594 140.957031 L 613.878906 135.367188 C 613.40625 134.703125 614 133.792969 614.785156 133.996094 L 621.484375 135.785156 C 622.605469 136.101562 623.761719 136.378906 624.867188 136.734375 L 628.199219 137.820312 C 630.425781 138.5625 632.707031 139.277344 634.941406 140.09375 L 641.613281 142.703125 C 641.863281 142.804688 642.144531 142.789062 642.375 142.667969 Z M 642.375 142.667969 " fill-opacity="1" fill-rule="nonzero"/></g></g></g><g clip-path="url(#ceea647beb)"><g clip-path="url(#24cb01f4d2)"><g clip-path="url(#6a787d0326)"><path fill="#8e6600" d="M 689.597656 204.714844 C 694.273438 204.269531 698.886719 203.96875 703.550781 203.765625 C 708.21875 203.558594 712.929688 203.453125 717.679688 203.445312 C 718.519531 203.441406 719.046875 204.628906 718.464844 205.226562 C 711.800781 212.03125 704.980469 218.441406 697.96875 224.464844 C 697.765625 224.632812 697.648438 224.890625 697.648438 225.160156 C 697.609375 230 697.617188 234.714844 697.230469 239.4375 C 697.015625 244.109375 696.382812 248.78125 695.84375 253.320312 C 695.746094 254.125 694.679688 254.339844 694.238281 253.65625 C 691.714844 249.800781 689.332031 246.019531 686.59375 242.4375 C 684.03125 238.808594 681.140625 235.390625 678.378906 232.046875 C 678.222656 231.859375 677.984375 231.753906 677.730469 231.757812 C 668.503906 231.960938 659.390625 232.582031 650.476562 233.585938 C 649.675781 233.675781 649.320312 232.894531 649.9375 232.386719 C 653.421875 229.539062 656.863281 226.585938 660.265625 223.539062 C 663.667969 220.488281 667.039062 217.332031 670.257812 214.132812 C 670.4375 213.953125 670.53125 213.707031 670.507812 213.464844 L 669.824219 206.894531 C 669.523438 204.714844 669.160156 202.535156 668.8125 200.320312 C 668.632812 199.214844 668.46875 198.09375 668.265625 196.988281 L 667.570312 193.695312 C 667.085938 191.5 666.644531 189.238281 666.085938 187.027344 C 665.878906 186.253906 666.777344 185.636719 667.449219 186.109375 C 669.316406 187.460938 671.097656 188.902344 672.949219 190.328125 L 675.71875 192.503906 C 676.621094 193.246094 677.488281 194.019531 678.378906 194.785156 C 680.148438 196.324219 681.957031 197.875 683.726562 199.476562 L 688.878906 204.457031 C 689.074219 204.644531 689.335938 204.742188 689.597656 204.714844 Z M 689.597656 204.714844 " fill-opacity="1" fill-rule="nonzero"/></g></g></g><g clip-path="url(#0ba34af417)"><g clip-path="url(#1136e50717)"><g clip-path="url(#e432f99cc6)"><path fill="#8e6600" d="M 709.476562 280.089844 C 718.300781 282.835938 727.105469 286.011719 735.925781 289.613281 C 736.695312 289.933594 736.683594 291.230469 735.910156 291.558594 C 731.550781 293.4375 727.183594 295.207031 722.816406 296.871094 C 718.453125 298.535156 714.097656 300.089844 709.628906 301.535156 C 709.378906 301.617188 709.175781 301.808594 709.074219 302.0625 L 706.320312 308.675781 C 705.328125 310.847656 704.285156 312.988281 703.273438 315.105469 C 702.761719 316.160156 702.269531 317.214844 701.738281 318.253906 L 700.058594 321.347656 C 698.925781 323.390625 697.863281 325.421875 696.679688 327.40625 C 696.25 328.105469 695.183594 327.898438 695.066406 327.101562 C 694.703125 324.851562 694.210938 322.601562 693.78125 320.394531 L 693.113281 317.097656 C 692.863281 316 692.570312 314.90625 692.296875 313.820312 C 691.738281 311.648438 691.203125 309.503906 690.617188 307.382812 L 688.632812 301.082031 C 688.558594 300.847656 688.378906 300.660156 688.140625 300.566406 C 683.917969 298.90625 679.570312 297.351562 675.238281 295.902344 C 670.90625 294.453125 666.574219 293.109375 662.246094 291.875 C 661.480469 291.65625 661.496094 290.792969 662.265625 290.5625 C 670.84375 287.945312 679.457031 284.898438 688.003906 281.425781 C 688.242188 281.328125 688.417969 281.136719 688.488281 280.902344 C 689.691406 276.734375 690.992188 272.453125 691.90625 268.101562 C 692.996094 263.730469 693.683594 259.3125 694.46875 254.773438 C 694.605469 253.96875 695.667969 253.746094 696.078125 254.445312 C 698.375 258.394531 700.808594 262.433594 702.859375 266.636719 C 705.089844 270.820312 706.953125 275.148438 708.90625 279.574219 C 709.015625 279.824219 709.222656 280.011719 709.476562 280.089844 Z M 709.476562 280.089844 " fill-opacity="1" fill-rule="nonzero"/></g></g></g><g clip-path="url(#385d96469a)"><g clip-path="url(#5c6ad0d2fc)"><g clip-path="url(#2e082f6c9f)"><path fill="#8e6600" d="M 699.011719 357.363281 C 706.082031 363.28125 713.042969 369.621094 719.761719 376.328125 C 720.347656 376.917969 719.839844 378.113281 719 378.121094 C 714.253906 378.179688 709.542969 378.136719 704.875 377.996094 C 700.210938 377.855469 695.589844 377.613281 690.90625 377.230469 C 690.644531 377.207031 690.382812 377.308594 690.191406 377.5 L 685.101562 382.542969 C 683.375 384.179688 681.566406 385.738281 679.820312 387.304688 L 677.191406 389.621094 C 676.316406 390.390625 675.367188 391.101562 674.460938 391.835938 L 669.019531 396.136719 C 668.382812 396.636719 667.476562 396.035156 667.644531 395.238281 L 669.035156 388.546875 C 669.246094 387.4375 669.503906 386.359375 669.675781 385.238281 L 670.175781 381.898438 C 670.496094 379.675781 670.851562 377.507812 671.101562 375.308594 L 671.699219 368.734375 C 671.722656 368.488281 671.628906 368.246094 671.441406 368.066406 C 668.183594 364.910156 664.777344 361.804688 661.328125 358.796875 C 657.882812 355.792969 654.398438 352.890625 650.878906 350.085938 C 650.253906 349.589844 650.597656 348.800781 651.398438 348.882812 C 660.359375 349.785156 669.425781 350.265625 678.671875 350.351562 C 678.933594 350.351562 679.179688 350.25 679.339844 350.058594 L 683.421875 344.910156 C 684.097656 344.035156 684.816406 343.164062 685.464844 342.269531 L 687.386719 339.554688 C 688.652344 337.726562 690.007812 335.890625 691.226562 333.996094 L 694.835938 328.21875 C 695.261719 327.527344 696.332031 327.726562 696.445312 328.53125 L 697.410156 335.417969 C 697.707031 337.734375 697.851562 340.042969 698.066406 342.398438 L 698.355469 345.941406 C 698.441406 347.125 698.453125 348.296875 698.5 349.484375 L 698.703125 356.675781 C 698.703125 356.945312 698.808594 357.195312 699.011719 357.363281 Z M 699.011719 357.363281 " fill-opacity="1" fill-rule="nonzero"/></g></g></g><g clip-path="url(#6231695c01)"><path fill="#ff5e00" d="M 187.042969 130.371094 L 112.429688 111.34375 L 188.425781 101.484375 C 196.894531 99.175781 201.886719 90.4375 199.574219 81.972656 C 197.265625 73.503906 188.53125 68.511719 180.0625 70.824219 L 108.515625 99.285156 L 164.203125 46.640625 C 169.695312 39.792969 168.597656 29.792969 161.75 24.300781 C 154.90625 18.808594 144.90625 19.90625 139.414062 26.75 L 100.886719 87.675781 L 112.367188 16.507812 C 112.785156 7.742188 106.019531 0.296875 97.253906 -0.125 C 88.488281 -0.542969 81.039062 6.222656 80.621094 14.988281 L 87.679688 91.703125 L 52.71875 22.601562 C 47.90625 15.261719 38.054688 13.214844 30.714844 18.027344 C 23.375 22.839844 21.328125 32.691406 26.140625 40.03125 L 76.945312 97.941406 L 8.042969 62.589844 C -0.164062 59.480469 -9.335938 63.613281 -12.445312 71.820312 C -15.554688 80.027344 -11.417969 89.203125 -3.210938 92.308594 L 71.929688 109.300781 L -4.59375 121.199219 C -13.0625 123.507812 -18.054688 132.246094 -15.742188 140.710938 C -13.433594 149.179688 -4.695312 154.167969 3.769531 151.859375 L 74.546875 121.4375 L 19.632812 176.042969 C 14.140625 182.890625 15.234375 192.890625 22.082031 198.382812 C 28.925781 203.875 38.929688 202.777344 44.421875 195.933594 L 86.699219 124.84375 L 71.46875 206.175781 C 71.046875 214.941406 77.8125 222.386719 86.578125 222.808594 C 95.347656 223.226562 102.792969 216.460938 103.210938 207.695312 L 98.253906 130.851562 L 131.113281 200.082031 C 135.925781 207.421875 145.777344 209.46875 153.117188 204.65625 C 160.457031 199.84375 162.503906 189.992188 157.691406 182.652344 L 108.511719 123.402344 L 175.789062 160.09375 C 183.996094 163.203125 193.167969 159.070312 196.277344 150.863281 C 199.386719 142.652344 195.25 133.480469 187.042969 130.371094 Z M 187.042969 130.371094 " fill-opacity="1" fill-rule="nonzero"/></g><g clip-path="url(#8b1c538d7d)"><path fill="#ff5e00" d="M 839.726562 150.78125 L 829.90625 150.539062 L 820.078125 149.960938 L 810.351562 148.453125 L 800.734375 146.410156 L 791.140625 144.351562 L 781.703125 141.671875 L 772.363281 138.5625 L 763.707031 133.871094 L 755.601562 128.34375 L 748.519531 121.601562 L 742.757812 113.660156 L 740.175781 104.125 L 743.066406 94.824219 L 749.710938 87.726562 L 759.214844 84.996094 L 769.019531 85.933594 L 778.46875 88.652344 L 787.449219 92.742188 L 795.246094 98.78125 L 803.121094 104.667969 L 810.136719 111.554688 L 816.90625 118.683594 L 823.121094 126.304688 L 828.773438 134.339844 L 834.230469 142.507812 L 839.316406 150.898438 Z M 840.097656 151.011719 L 835.519531 159.699219 L 830.808594 168.339844 L 826.867188 177.355469 L 823.949219 186.761719 L 820.644531 196.027344 L 818.859375 205.699219 L 817.214844 215.363281 L 816.894531 225.144531 L 817.179688 234.917969 L 818.941406 244.601562 L 823.46875 253.367188 L 830.605469 260.070312 L 839.914062 262.585938 L 849.144531 259.9375 L 856.445312 253.414062 L 860.539062 244.46875 L 862.542969 234.886719 L 863.621094 225.121094 L 863.21875 215.273438 L 861.515625 205.566406 L 859.136719 196.023438 L 855.726562 186.800781 L 852.484375 177.539062 L 848.550781 168.542969 L 844.367188 159.65625 L 839.5 151.105469 Z M 839.753906 151.136719 L 829.898438 150.722656 L 820.148438 152.164062 L 810.390625 153.257812 L 800.777344 155.242188 L 791.207031 157.328125 L 781.691406 159.738281 L 772.367188 162.898438 L 763.96875 168.03125 L 755.550781 173.042969 L 748.589844 179.914062 L 742.851562 187.839844 L 740.175781 197.332031 L 742.527344 206.949219 L 749.722656 213.71875 L 759.226562 216.410156 L 768.957031 215.128906 L 778.355469 212.507812 L 787.082031 208.066406 L 795.136719 202.511719 L 803.0625 196.714844 L 810.300781 190.054688 L 817 182.855469 L 822.765625 174.878906 L 829.304688 167.496094 L 834.355469 159.035156 L 839.792969 150.855469 Z M 839.996094 150.585938 L 844.742188 141.972656 L 848.398438 132.828125 L 852.132812 123.757812 L 856.5 114.898438 L 859.324219 105.460938 L 860.984375 95.75 L 862.378906 86.054688 L 863.609375 76.300781 L 862.699219 66.511719 L 860.75 56.878906 L 855.996094 48.3125 L 849.03125 41.652344 L 839.902344 38.820312 L 830.8125 41.726562 L 823.441406 48.066406 L 818.898438 56.835938 L 817.484375 66.574219 L 816.167969 76.308594 L 817.242188 86.085938 L 818.617188 95.800781 L 821.367188 105.21875 L 823.472656 114.847656 L 827.226562 123.945312 L 830.980469 133.027344 L 835.003906 142.003906 L 839.816406 150.589844 Z M 839.996094 150.859375 L 844.90625 159.390625 L 850.617188 167.410156 L 856.589844 175.222656 L 863.386719 182.347656 L 869.449219 190.117188 L 876.914062 196.53125 L 884.417969 202.863281 L 892.425781 208.597656 L 901.601562 212.160156 L 910.699219 215.984375 L 920.597656 216.4375 L 929.804688 213.164062 L 936.914062 206.722656 L 939.59375 197.324219 L 937.164062 187.734375 L 931.039062 180.070312 L 924.054688 173.304688 L 915.945312 167.859375 L 907.234375 163.386719 L 898.109375 159.789062 L 888.699219 156.988281 L 879.175781 154.558594 L 869.410156 153.40625 L 859.707031 151.796875 L 849.917969 150.765625 L 840.074219 150.445312 Z M 840.082031 151.050781 L 849.90625 150.546875 L 859.675781 149.386719 L 869.511719 148.8125 L 879.113281 146.613281 L 888.636719 144.226562 L 898.183594 141.894531 L 907.378906 138.390625 L 915.992188 133.664062 L 923.949219 127.996094 L 931.480469 121.75 L 936.664062 113.46875 L 939.054688 104.09375 L 937.367188 94.445312 L 929.753906 88.335938 L 920.546875 85.417969 L 910.789062 86.011719 L 901.546875 89.175781 L 892.5625 93.101562 L 884.679688 98.949219 L 876.9375 104.953125 L 869.867188 111.75 L 862.640625 118.453125 L 857.175781 126.683594 L 850.53125 133.976562 L 844.992188 142.109375 L 839.679688 150.425781 Z M 840.058594 150.449219 L 839.609375 150.542969 L 839.851562 150.929688 L 843.675781 156.957031 L 840.316406 150.652344 L 839.90625 150.894531 L 839.476562 150.640625 L 836.132812 157.496094 L 839.382812 150.613281 L 839.582031 150.902344 L 839.742188 150.6875 L 832.363281 150.296875 L 839.753906 151.027344 L 839.652344 150.574219 L 839.792969 150.597656 L 836.128906 144.320312 L 839.492188 150.789062 L 839.902344 151.023438 L 839.621094 150.363281 L 843.671875 143.902344 L 840.097656 150.648438 L 839.628906 150.878906 L 840.058594 150.644531 L 847.4375 151.085938 Z M 840.058594 150.449219 " fill-opacity="1" fill-rule="nonzero"/></g><g clip-path="url(#e19b6add24)"><path fill="#ff5e00" d="M 1045.710938 548.957031 L 963.265625 548.957031 L 1019 604.6875 L 1000.589844 623.097656 L 943.796875 566.304688 L 943.796875 646.949219 L 917.777344 646.949219 L 917.777344 567.273438 L 858.632812 626.417969 L 839.023438 606.8125 L 896.878906 548.957031 L 815.035156 548.957031 L 815.035156 521.183594 L 898.722656 521.183594 L 842.390625 464.851562 L 860.800781 446.445312 L 917.777344 503.46875 L 917.777344 423.191406 L 943.796875 423.191406 L 943.796875 501.992188 L 1002.113281 443.675781 L 1021.722656 463.328125 L 963.867188 521.183594 L 1045.710938 521.183594 Z M 1045.710938 548.957031 " fill-opacity="1" fill-rule="nonzero"/></g><g clip-path="url(#123c0130b3)"><g clip-path="url(#35ee63fa29)"><g clip-path="url(#b4c0dbfcc6)"><path fill="#ff5e00" d="M 206.644531 513.96875 C 199.496094 509.355469 194.613281 501.589844 193.066406 493.246094 C 191.457031 484.558594 183.445312 478.601562 174.652344 479.480469 C 164.460938 480.496094 154.527344 484.730469 146.75 491.390625 C 140.320312 496.898438 138.925781 506.449219 143.652344 513.46875 C 150 522.902344 151.28125 535.890625 145.878906 546 C 138.679688 559.480469 120.613281 565.925781 106.503906 560.046875 C 92.398438 554.171875 84.25 536.808594 88.746094 522.199219 C 92.121094 511.246094 102.246094 503.007812 113.414062 500.875 C 121.722656 499.285156 127.488281 491.554688 126.847656 483.121094 C 126.046875 472.574219 121.800781 462.222656 114.960938 454.152344 C 109.472656 447.675781 99.898438 446.28125 92.863281 451.027344 C 83.453125 457.378906 70.492188 458.6875 60.382812 453.324219 C 46.871094 446.15625 40.375 428.085938 46.234375 413.957031 C 52.089844 399.828125 69.460938 391.652344 84.082031 396.144531 C 95.046875 399.511719 103.292969 409.648438 105.429688 420.824219 C 107.015625 429.132812 114.75 434.902344 123.183594 434.253906 C 133.726562 433.449219 144.074219 429.195312 152.136719 422.355469 C 158.605469 416.867188 160.007812 407.300781 155.265625 400.269531 C 148.910156 390.851562 147.605469 377.878906 152.980469 367.765625 C 160.164062 354.257812 178.242188 347.78125 192.367188 353.652344 C 206.492188 359.523438 214.652344 376.90625 210.144531 391.523438 C 206.765625 402.480469 196.628906 410.710938 185.457031 412.839844 C 177.140625 414.425781 171.351562 422.15625 172.007812 430.597656 C 172.816406 441.019531 177 451.246094 183.726562 459.25 C 189.285156 465.867188 199.046875 467.050781 206.15625 462.132812 C 212.902344 457.464844 221.472656 455.359375 229.570312 456.8125 C 231.839844 457.222656 234.050781 457.90625 236.15625 458.828125 C 245.183594 462.773438 252.324219 471.082031 254.457031 480.742188 C 260.308594 507.273438 229.476562 528.691406 206.644531 513.96875 Z M 206.644531 513.96875 " fill-opacity="1" fill-rule="nonzero"/></g></g></g><g clip-path="url(#747bad5f4b)"><path fill="#ddbb63" d="M 623.375 277.863281 L 609.425781 234.925781 L 569.132812 248.019531 L 594.035156 213.746094 L 557.511719 187.210938 L 532.609375 221.484375 L 532.609375 179.117188 L 487.46875 179.117188 L 487.46875 221.484375 L 462.566406 187.210938 L 426.042969 213.746094 L 450.945312 248.019531 L 410.652344 234.925781 L 396.703125 277.863281 L 436.996094 290.953125 L 396.703125 304.042969 L 410.652344 346.980469 L 450.945312 333.886719 L 426.042969 368.160156 L 462.566406 394.695312 L 487.46875 360.421875 L 487.46875 402.789062 L 532.609375 402.789062 L 532.609375 360.421875 L 557.511719 394.695312 L 594.035156 368.160156 L 569.132812 333.886719 L 609.425781 346.980469 L 623.375 304.042969 L 583.085938 290.953125 Z M 623.375 277.863281 " fill-opacity="1" fill-rule="nonzero"/></g></svg>