<svg xmlns="http://www.w3.org/2000/svg" xmlns:xlink="http://www.w3.org/1999/xlink" width="1324" zoomAndPan="magnify" viewBox="0 0 993 599.999999" height="800" preserveAspectRatio="xMidYMid meet" version="1.0"><defs><radialGradient gradientTransform="matrix(1, 0, 0, 1, 0.0000004965, 0.00002)" gradientUnits="userSpaceOnUse" r="1160.193509" cx="0" id="b77c79ef7f" cy="0" fx="0" fy="0"><stop stop-opacity="1" stop-color="rgb(86.576843%, 73.15979%, 38.647461%)" offset="0"/><stop stop-opacity="1" stop-color="rgb(86.395264%, 72.950745%, 38.420105%)" offset="0.0078125"/><stop stop-opacity="1" stop-color="rgb(86.274719%, 72.810364%, 38.267517%)" offset="0.0117188"/><stop stop-opacity="1" stop-color="rgb(86.154175%, 72.671509%, 38.116455%)" offset="0.015625"/><stop stop-opacity="1" stop-color="rgb(86.032104%, 72.531128%, 37.965393%)" offset="0.0195312"/><stop stop-opacity="1" stop-color="rgb(85.91156%, 72.392273%, 37.814331%)" offset="0.0234375"/><stop stop-opacity="1" stop-color="rgb(85.791016%, 72.253418%, 37.661743%)" offset="0.0273438"/><stop stop-opacity="1" stop-color="rgb(85.668945%, 72.113037%, 37.510681%)" offset="0.03125"/><stop stop-opacity="1" stop-color="rgb(85.548401%, 71.974182%, 37.359619%)" offset="0.0351562"/><stop stop-opacity="1" stop-color="rgb(85.427856%, 71.833801%, 37.207031%)" offset="0.0390625"/><stop stop-opacity="1" stop-color="rgb(85.305786%, 71.694946%, 37.055969%)" offset="0.0429688"/><stop stop-opacity="1" stop-color="rgb(85.185242%, 71.556091%, 36.904907%)" offset="0.046875"/><stop stop-opacity="1" stop-color="rgb(85.064697%, 71.41571%, 36.752319%)" offset="0.0507812"/><stop stop-opacity="1" stop-color="rgb(84.942627%, 71.276855%, 36.601257%)" offset="0.0546875"/><stop stop-opacity="1" stop-color="rgb(84.822083%, 71.138%, 36.450195%)" offset="0.0585938"/><stop stop-opacity="1" stop-color="rgb(84.700012%, 70.99762%, 36.297607%)" offset="0.0625"/><stop stop-opacity="1" stop-color="rgb(84.579468%, 70.858765%, 36.146545%)" offset="0.0664062"/><stop stop-opacity="1" stop-color="rgb(84.458923%, 70.718384%, 35.995483%)" offset="0.0703125"/><stop stop-opacity="1" stop-color="rgb(84.336853%, 70.579529%, 35.842896%)" offset="0.0742188"/><stop stop-opacity="1" stop-color="rgb(84.216309%, 70.440674%, 35.691833%)" offset="0.078125"/><stop stop-opacity="1" stop-color="rgb(84.095764%, 70.300293%, 35.540771%)" offset="0.0820312"/><stop stop-opacity="1" stop-color="rgb(83.973694%, 70.161438%, 35.388184%)" offset="0.0859375"/><stop stop-opacity="1" stop-color="rgb(83.853149%, 70.021057%, 35.237122%)" offset="0.0898438"/><stop stop-opacity="1" stop-color="rgb(83.732605%, 69.882202%, 35.08606%)" offset="0.09375"/><stop stop-opacity="1" stop-color="rgb(83.610535%, 69.743347%, 34.933472%)" offset="0.0976562"/><stop stop-opacity="1" stop-color="rgb(83.48999%, 69.602966%, 34.78241%)" offset="0.101562"/><stop stop-opacity="1" stop-color="rgb(83.36792%, 69.464111%, 34.631348%)" offset="0.105469"/><stop stop-opacity="1" stop-color="rgb(83.247375%, 69.32373%, 34.47876%)" offset="0.109375"/><stop stop-opacity="1" stop-color="rgb(83.126831%, 69.184875%, 34.327698%)" offset="0.113281"/><stop stop-opacity="1" stop-color="rgb(83.004761%, 69.046021%, 34.176636%)" offset="0.117188"/><stop stop-opacity="1" stop-color="rgb(82.884216%, 68.90564%, 34.024048%)" offset="0.121094"/><stop stop-opacity="1" stop-color="rgb(82.763672%, 68.766785%, 33.872986%)" offset="0.125"/><stop stop-opacity="1" stop-color="rgb(82.641602%, 68.626404%, 33.721924%)" offset="0.128906"/><stop stop-opacity="1" stop-color="rgb(82.521057%, 68.487549%, 33.569336%)" offset="0.132812"/><stop stop-opacity="1" stop-color="rgb(82.400513%, 68.348694%, 33.418274%)" offset="0.136719"/><stop stop-opacity="1" stop-color="rgb(82.278442%, 68.208313%, 33.267212%)" offset="0.140625"/><stop stop-opacity="1" stop-color="rgb(82.157898%, 68.069458%, 33.114624%)" offset="0.144531"/><stop stop-opacity="1" stop-color="rgb(82.037354%, 67.929077%, 32.963562%)" offset="0.148438"/><stop stop-opacity="1" stop-color="rgb(81.915283%, 67.790222%, 32.8125%)" offset="0.152344"/><stop stop-opacity="1" stop-color="rgb(81.794739%, 67.651367%, 32.659912%)" offset="0.15625"/><stop stop-opacity="1" stop-color="rgb(81.672668%, 67.510986%, 32.50885%)" offset="0.160156"/><stop stop-opacity="1" stop-color="rgb(81.552124%, 67.372131%, 32.357788%)" offset="0.164062"/><stop stop-opacity="1" stop-color="rgb(81.43158%, 67.233276%, 32.2052%)" offset="0.167969"/><stop stop-opacity="1" stop-color="rgb(81.309509%, 67.092896%, 32.054138%)" offset="0.171875"/><stop stop-opacity="1" stop-color="rgb(81.188965%, 66.954041%, 31.903076%)" offset="0.175781"/><stop stop-opacity="1" stop-color="rgb(81.06842%, 66.81366%, 31.750488%)" offset="0.179688"/><stop stop-opacity="1" stop-color="rgb(80.94635%, 66.674805%, 31.599426%)" offset="0.183594"/><stop stop-opacity="1" stop-color="rgb(80.825806%, 66.53595%, 31.448364%)" offset="0.1875"/><stop stop-opacity="1" stop-color="rgb(80.705261%, 66.395569%, 31.295776%)" offset="0.191406"/><stop stop-opacity="1" stop-color="rgb(80.583191%, 66.256714%, 31.144714%)" offset="0.195312"/><stop stop-opacity="1" stop-color="rgb(80.462646%, 66.116333%, 30.993652%)" offset="0.199219"/><stop stop-opacity="1" stop-color="rgb(80.340576%, 65.977478%, 30.841064%)" offset="0.203125"/><stop stop-opacity="1" stop-color="rgb(80.220032%, 65.838623%, 30.690002%)" offset="0.207031"/><stop stop-opacity="1" stop-color="rgb(80.099487%, 65.698242%, 30.53894%)" offset="0.210938"/><stop stop-opacity="1" stop-color="rgb(79.977417%, 65.559387%, 30.386353%)" offset="0.214844"/><stop stop-opacity="1" stop-color="rgb(79.856873%, 65.419006%, 30.235291%)" offset="0.21875"/><stop stop-opacity="1" stop-color="rgb(79.736328%, 65.280151%, 30.084229%)" offset="0.222656"/><stop stop-opacity="1" stop-color="rgb(79.614258%, 65.141296%, 29.931641%)" offset="0.226562"/><stop stop-opacity="1" stop-color="rgb(79.493713%, 65.000916%, 29.780579%)" offset="0.230469"/><stop stop-opacity="1" stop-color="rgb(79.373169%, 64.862061%, 29.629517%)" offset="0.234375"/><stop stop-opacity="1" stop-color="rgb(79.251099%, 64.72168%, 29.476929%)" offset="0.238281"/><stop stop-opacity="1" stop-color="rgb(79.130554%, 64.582825%, 29.325867%)" offset="0.242188"/><stop stop-opacity="1" stop-color="rgb(79.01001%, 64.44397%, 29.174805%)" offset="0.246094"/><stop stop-opacity="1" stop-color="rgb(78.887939%, 64.303589%, 29.022217%)" offset="0.25"/><stop stop-opacity="1" stop-color="rgb(78.70636%, 64.094543%, 28.794861%)" offset="0.253906"/><stop stop-opacity="1" stop-color="rgb(78.463745%, 63.815308%, 28.492737%)" offset="0.261719"/><stop stop-opacity="1" stop-color="rgb(78.222656%, 63.537598%, 28.189087%)" offset="0.269531"/><stop stop-opacity="1" stop-color="rgb(77.980042%, 63.258362%, 27.886963%)" offset="0.277344"/><stop stop-opacity="1" stop-color="rgb(77.737427%, 62.979126%, 27.583313%)" offset="0.285156"/><stop stop-opacity="1" stop-color="rgb(77.494812%, 62.69989%, 27.279663%)" offset="0.292969"/><stop stop-opacity="1" stop-color="rgb(77.253723%, 62.420654%, 26.977539%)" offset="0.300781"/><stop stop-opacity="1" stop-color="rgb(77.011108%, 62.142944%, 26.673889%)" offset="0.308594"/><stop stop-opacity="1" stop-color="rgb(76.768494%, 61.863708%, 26.370239%)" offset="0.316406"/><stop stop-opacity="1" stop-color="rgb(76.527405%, 61.584473%, 26.068115%)" offset="0.324219"/><stop stop-opacity="1" stop-color="rgb(76.28479%, 61.305237%, 25.764465%)" offset="0.332031"/><stop stop-opacity="1" stop-color="rgb(76.042175%, 61.027527%, 25.460815%)" offset="0.339844"/><stop stop-opacity="1" stop-color="rgb(75.799561%, 60.748291%, 25.158691%)" offset="0.347656"/><stop stop-opacity="1" stop-color="rgb(75.558472%, 60.469055%, 24.855042%)" offset="0.355469"/><stop stop-opacity="1" stop-color="rgb(75.315857%, 60.189819%, 24.551392%)" offset="0.363281"/><stop stop-opacity="1" stop-color="rgb(75.073242%, 59.910583%, 24.249268%)" offset="0.371094"/><stop stop-opacity="1" stop-color="rgb(74.832153%, 59.632874%, 23.945618%)" offset="0.378906"/><stop stop-opacity="1" stop-color="rgb(74.589539%, 59.353638%, 23.641968%)" offset="0.386719"/><stop stop-opacity="1" stop-color="rgb(74.346924%, 59.074402%, 23.339844%)" offset="0.394531"/><stop stop-opacity="1" stop-color="rgb(74.104309%, 58.795166%, 23.036194%)" offset="0.402344"/><stop stop-opacity="1" stop-color="rgb(73.86322%, 58.51593%, 22.732544%)" offset="0.410156"/><stop stop-opacity="1" stop-color="rgb(73.620605%, 58.23822%, 22.43042%)" offset="0.417969"/><stop stop-opacity="1" stop-color="rgb(73.377991%, 57.958984%, 22.12677%)" offset="0.425781"/><stop stop-opacity="1" stop-color="rgb(73.136902%, 57.679749%, 21.82312%)" offset="0.433594"/><stop stop-opacity="1" stop-color="rgb(72.894287%, 57.400513%, 21.520996%)" offset="0.441406"/><stop stop-opacity="1" stop-color="rgb(72.651672%, 57.122803%, 21.217346%)" offset="0.449219"/><stop stop-opacity="1" stop-color="rgb(72.409058%, 56.843567%, 20.913696%)" offset="0.457031"/><stop stop-opacity="1" stop-color="rgb(72.167969%, 56.564331%, 20.611572%)" offset="0.464844"/><stop stop-opacity="1" stop-color="rgb(71.925354%, 56.285095%, 20.307922%)" offset="0.472656"/><stop stop-opacity="1" stop-color="rgb(71.682739%, 56.005859%, 20.004272%)" offset="0.480469"/><stop stop-opacity="1" stop-color="rgb(71.440125%, 55.728149%, 19.702148%)" offset="0.488281"/><stop stop-opacity="1" stop-color="rgb(71.199036%, 55.448914%, 19.398499%)" offset="0.496094"/><stop stop-opacity="1" stop-color="rgb(71.017456%, 55.239868%, 19.171143%)" offset="0.503906"/><stop stop-opacity="1" stop-color="rgb(70.895386%, 55.099487%, 19.020081%)" offset="0.507812"/><stop stop-opacity="1" stop-color="rgb(70.774841%, 54.960632%, 18.869019%)" offset="0.511719"/><stop stop-opacity="1" stop-color="rgb(70.654297%, 54.821777%, 18.716431%)" offset="0.515625"/><stop stop-opacity="1" stop-color="rgb(70.532227%, 54.681396%, 18.565369%)" offset="0.519531"/><stop stop-opacity="1" stop-color="rgb(70.411682%, 54.542542%, 18.414307%)" offset="0.523438"/><stop stop-opacity="1" stop-color="rgb(70.291138%, 54.402161%, 18.261719%)" offset="0.527344"/><stop stop-opacity="1" stop-color="rgb(70.169067%, 54.263306%, 18.110657%)" offset="0.53125"/><stop stop-opacity="1" stop-color="rgb(70.048523%, 54.124451%, 17.959595%)" offset="0.535156"/><stop stop-opacity="1" stop-color="rgb(69.927979%, 53.98407%, 17.807007%)" offset="0.539062"/><stop stop-opacity="1" stop-color="rgb(69.805908%, 53.845215%, 17.655945%)" offset="0.542969"/><stop stop-opacity="1" stop-color="rgb(69.685364%, 53.70636%, 17.504883%)" offset="0.546875"/><stop stop-opacity="1" stop-color="rgb(69.563293%, 53.565979%, 17.352295%)" offset="0.550781"/><stop stop-opacity="1" stop-color="rgb(69.442749%, 53.427124%, 17.201233%)" offset="0.554688"/><stop stop-opacity="1" stop-color="rgb(69.322205%, 53.286743%, 17.050171%)" offset="0.558594"/><stop stop-opacity="1" stop-color="rgb(69.200134%, 53.147888%, 16.897583%)" offset="0.5625"/><stop stop-opacity="1" stop-color="rgb(69.07959%, 53.009033%, 16.746521%)" offset="0.566406"/><stop stop-opacity="1" stop-color="rgb(68.959045%, 52.868652%, 16.595459%)" offset="0.570312"/><stop stop-opacity="1" stop-color="rgb(68.836975%, 52.729797%, 16.442871%)" offset="0.574219"/><stop stop-opacity="1" stop-color="rgb(68.716431%, 52.589417%, 16.291809%)" offset="0.578125"/><stop stop-opacity="1" stop-color="rgb(68.595886%, 52.450562%, 16.140747%)" offset="0.582031"/><stop stop-opacity="1" stop-color="rgb(68.473816%, 52.311707%, 15.988159%)" offset="0.585938"/><stop stop-opacity="1" stop-color="rgb(68.353271%, 52.171326%, 15.837097%)" offset="0.589844"/><stop stop-opacity="1" stop-color="rgb(68.231201%, 52.032471%, 15.686035%)" offset="0.59375"/><stop stop-opacity="1" stop-color="rgb(68.110657%, 51.89209%, 15.533447%)" offset="0.597656"/><stop stop-opacity="1" stop-color="rgb(67.990112%, 51.753235%, 15.382385%)" offset="0.601562"/><stop stop-opacity="1" stop-color="rgb(67.868042%, 51.61438%, 15.231323%)" offset="0.605469"/><stop stop-opacity="1" stop-color="rgb(67.747498%, 51.473999%, 15.078735%)" offset="0.609375"/><stop stop-opacity="1" stop-color="rgb(67.626953%, 51.335144%, 14.927673%)" offset="0.613281"/><stop stop-opacity="1" stop-color="rgb(67.504883%, 51.194763%, 14.776611%)" offset="0.617188"/><stop stop-opacity="1" stop-color="rgb(67.384338%, 51.055908%, 14.624023%)" offset="0.621094"/><stop stop-opacity="1" stop-color="rgb(67.263794%, 50.917053%, 14.472961%)" offset="0.625"/><stop stop-opacity="1" stop-color="rgb(67.082214%, 50.706482%, 14.245605%)" offset="0.628906"/><stop stop-opacity="1" stop-color="rgb(66.8396%, 50.428772%, 13.941956%)" offset="0.636719"/><stop stop-opacity="1" stop-color="rgb(66.596985%, 50.149536%, 13.639832%)" offset="0.644531"/><stop stop-opacity="1" stop-color="rgb(66.35437%, 49.8703%, 13.336182%)" offset="0.652344"/><stop stop-opacity="1" stop-color="rgb(66.113281%, 49.591064%, 13.032532%)" offset="0.660156"/><stop stop-opacity="1" stop-color="rgb(65.870667%, 49.313354%, 12.730408%)" offset="0.667969"/><stop stop-opacity="1" stop-color="rgb(65.628052%, 49.034119%, 12.426758%)" offset="0.675781"/><stop stop-opacity="1" stop-color="rgb(65.385437%, 48.754883%, 12.123108%)" offset="0.683594"/><stop stop-opacity="1" stop-color="rgb(65.144348%, 48.475647%, 11.820984%)" offset="0.691406"/><stop stop-opacity="1" stop-color="rgb(64.901733%, 48.196411%, 11.517334%)" offset="0.699219"/><stop stop-opacity="1" stop-color="rgb(64.659119%, 47.918701%, 11.213684%)" offset="0.707031"/><stop stop-opacity="1" stop-color="rgb(64.41803%, 47.639465%, 10.91156%)" offset="0.714844"/><stop stop-opacity="1" stop-color="rgb(64.175415%, 47.360229%, 10.60791%)" offset="0.722656"/><stop stop-opacity="1" stop-color="rgb(63.9328%, 47.080994%, 10.30426%)" offset="0.730469"/><stop stop-opacity="1" stop-color="rgb(63.690186%, 46.803284%, 10.002136%)" offset="0.738281"/><stop stop-opacity="1" stop-color="rgb(63.449097%, 46.524048%, 9.698486%)" offset="0.746094"/><stop stop-opacity="1" stop-color="rgb(63.267517%, 46.315002%, 9.47113%)" offset="0.753906"/><stop stop-opacity="1" stop-color="rgb(63.145447%, 46.174622%, 9.320068%)" offset="0.757812"/><stop stop-opacity="1" stop-color="rgb(63.024902%, 46.035767%, 9.169006%)" offset="0.761719"/><stop stop-opacity="1" stop-color="rgb(62.904358%, 45.896912%, 9.016418%)" offset="0.765625"/><stop stop-opacity="1" stop-color="rgb(62.782288%, 45.756531%, 8.865356%)" offset="0.769531"/><stop stop-opacity="1" stop-color="rgb(62.661743%, 45.617676%, 8.714294%)" offset="0.773438"/><stop stop-opacity="1" stop-color="rgb(62.541199%, 45.477295%, 8.561707%)" offset="0.777344"/><stop stop-opacity="1" stop-color="rgb(62.419128%, 45.33844%, 8.410645%)" offset="0.78125"/><stop stop-opacity="1" stop-color="rgb(62.298584%, 45.199585%, 8.259583%)" offset="0.785156"/><stop stop-opacity="1" stop-color="rgb(62.176514%, 45.059204%, 8.106995%)" offset="0.789062"/><stop stop-opacity="1" stop-color="rgb(62.055969%, 44.920349%, 7.955933%)" offset="0.792969"/><stop stop-opacity="1" stop-color="rgb(61.935425%, 44.779968%, 7.804871%)" offset="0.796875"/><stop stop-opacity="1" stop-color="rgb(61.813354%, 44.641113%, 7.652283%)" offset="0.800781"/><stop stop-opacity="1" stop-color="rgb(61.69281%, 44.502258%, 7.501221%)" offset="0.804688"/><stop stop-opacity="1" stop-color="rgb(61.572266%, 44.361877%, 7.350159%)" offset="0.808594"/><stop stop-opacity="1" stop-color="rgb(61.450195%, 44.223022%, 7.197571%)" offset="0.8125"/><stop stop-opacity="1" stop-color="rgb(61.268616%, 44.013977%, 6.970215%)" offset="0.816406"/><stop stop-opacity="1" stop-color="rgb(61.027527%, 43.734741%, 6.668091%)" offset="0.824219"/><stop stop-opacity="1" stop-color="rgb(60.784912%, 43.455505%, 6.364441%)" offset="0.832031"/><stop stop-opacity="1" stop-color="rgb(60.542297%, 43.17627%, 6.060791%)" offset="0.839844"/><stop stop-opacity="1" stop-color="rgb(60.299683%, 42.89856%, 5.758667%)" offset="0.847656"/><stop stop-opacity="1" stop-color="rgb(60.058594%, 42.619324%, 5.455017%)" offset="0.855469"/><stop stop-opacity="1" stop-color="rgb(59.815979%, 42.340088%, 5.151367%)" offset="0.863281"/><stop stop-opacity="1" stop-color="rgb(59.573364%, 42.060852%, 4.849243%)" offset="0.871094"/><stop stop-opacity="1" stop-color="rgb(59.391785%, 41.851807%, 4.621887%)" offset="0.878906"/><stop stop-opacity="1" stop-color="rgb(59.27124%, 41.712952%, 4.469299%)" offset="0.882812"/><stop stop-opacity="1" stop-color="rgb(59.14917%, 41.572571%, 4.318237%)" offset="0.886719"/><stop stop-opacity="1" stop-color="rgb(59.028625%, 41.433716%, 4.167175%)" offset="0.890625"/><stop stop-opacity="1" stop-color="rgb(58.908081%, 41.294861%, 4.014587%)" offset="0.894531"/><stop stop-opacity="1" stop-color="rgb(58.786011%, 41.15448%, 3.863525%)" offset="0.898438"/><stop stop-opacity="1" stop-color="rgb(58.665466%, 41.015625%, 3.712463%)" offset="0.902344"/><stop stop-opacity="1" stop-color="rgb(58.544922%, 40.875244%, 3.559875%)" offset="0.90625"/><stop stop-opacity="1" stop-color="rgb(58.363342%, 40.666199%, 3.33252%)" offset="0.910156"/><stop stop-opacity="1" stop-color="rgb(58.120728%, 40.386963%, 3.030396%)" offset="0.917969"/><stop stop-opacity="1" stop-color="rgb(57.878113%, 40.109253%, 2.726746%)" offset="0.925781"/><stop stop-opacity="1" stop-color="rgb(57.635498%, 39.830017%, 2.423096%)" offset="0.933594"/><stop stop-opacity="1" stop-color="rgb(57.453918%, 39.620972%, 2.19574%)" offset="0.941406"/><stop stop-opacity="1" stop-color="rgb(57.333374%, 39.482117%, 2.044678%)" offset="0.945312"/><stop stop-opacity="1" stop-color="rgb(57.21283%, 39.341736%, 1.893616%)" offset="0.949219"/><stop stop-opacity="1" stop-color="rgb(57.090759%, 39.202881%, 1.741028%)" offset="0.953125"/><stop stop-opacity="1" stop-color="rgb(56.90918%, 38.993835%, 1.513672%)" offset="0.957031"/><stop stop-opacity="1" stop-color="rgb(56.668091%, 38.7146%, 1.211548%)" offset="0.964844"/><stop stop-opacity="1" stop-color="rgb(56.486511%, 38.505554%, 0.984192%)" offset="0.972656"/><stop stop-opacity="1" stop-color="rgb(56.364441%, 38.365173%, 0.831604%)" offset="0.976562"/><stop stop-opacity="1" stop-color="rgb(56.182861%, 38.156128%, 0.604248%)" offset="0.980469"/><stop stop-opacity="1" stop-color="rgb(56.001282%, 37.947083%, 0.376892%)" offset="0.988281"/><stop stop-opacity="1" stop-color="rgb(55.819702%, 37.738037%, 0.151062%)" offset="0.992188"/><stop stop-opacity="1" stop-color="rgb(55.699158%, 37.599182%, 0%)" offset="1"/></radialGradient><clipPath id="5cd57099cd"><path d="M 187.050781 0 L 377 0 L 377 132 L 187.050781 132 Z M 187.050781 0 " clip-rule="nonzero"/></clipPath><clipPath id="85d9ac172f"><path d="M 0.046875 134.625 L 471.609375 134.625 L 471.609375 575.625 L 0.046875 575.625 Z M 0.046875 134.625 " clip-rule="nonzero"/></clipPath><clipPath id="a4737175da"><path d="M 521.386719 24.375 L 992.953125 24.375 L 992.953125 465.375 L 521.386719 465.375 Z M 521.386719 24.375 " clip-rule="nonzero"/></clipPath><clipPath id="7681919e44"><path d="M 0 366.511719 L 220 366.511719 L 220 600 L 0 600 Z M 0 366.511719 " clip-rule="nonzero"/></clipPath></defs><rect x="-99.3" width="1191.6" fill="#ffffff" y="-60" height="719.999999" fill-opacity="1"/><rect x="-99.3" fill="url(#b77c79ef7f)" width="1191.6" y="-60" height="719.999999"/><g clip-path="url(#5cd57099cd)"><path fill="#fff627" d="M 248.316406 100.027344 C 252.25 93.34375 260.597656 100.359375 265.191406 103.046875 C 274.882812 108.710938 284.242188 116.136719 293.921875 121.851562 C 298.277344 124.421875 304.796875 130.613281 309.558594 127.40625 C 316.285156 122.871094 312.628906 106.148438 311.488281 95.28125 C 316.257812 89.230469 326.632812 98.074219 330.605469 100.519531 C 339.75 106.148438 348.671875 112.949219 357.867188 118.304688 C 361.175781 120.230469 371.929688 129.769531 375.199219 120.363281 C 377.351562 114.1875 375.316406 102.179688 374.285156 91.738281 C 370.265625 97.785156 360.914062 89.570312 357.867188 87.796875 C 348.671875 82.441406 339.75 75.644531 330.605469 70.011719 C 327.121094 67.867188 318.707031 60.796875 313.472656 63.179688 C 313.742188 56.355469 312.167969 47.785156 311.488281 41.296875 C 316.257812 35.246094 326.632812 44.085938 330.605469 46.53125 C 339.75 52.164062 348.671875 58.960938 357.867188 64.316406 C 361.175781 66.242188 371.929688 75.78125 375.199219 66.375 C 377.351562 60.199219 375.316406 48.191406 374.285156 37.75 C 370.265625 43.796875 360.914062 35.582031 357.867188 33.808594 C 348.671875 28.453125 339.75 21.65625 330.605469 16.027344 C 327.019531 13.820312 318.21875 6.398438 313.027344 9.421875 C 314.449219 2.261719 312.3125 -8.648438 311.488281 -16.503906 C 316.257812 -22.554688 326.632812 -13.710938 330.605469 -11.265625 C 339.75 -5.636719 348.671875 1.164062 357.867188 6.519531 C 361.175781 8.445312 371.929688 17.984375 375.199219 8.578125 C 377.351562 2.402344 375.316406 -9.605469 374.285156 -20.046875 C 370.265625 -14 360.914062 -22.214844 357.867188 -23.988281 C 348.671875 -29.34375 339.75 -36.140625 330.605469 -41.773438 C 325.21875 -45.085938 308.0625 -60.171875 309.0625 -33.941406 C 309.238281 -29.316406 310.441406 -22.664062 311.035156 -16.273438 C 310.609375 -15.734375 310.121094 -15.265625 309.558594 -14.886719 C 304.796875 -11.679688 298.277344 -17.871094 293.921875 -20.441406 C 284.242188 -26.15625 274.882812 -33.582031 265.191406 -39.246094 C 259.09375 -42.808594 246.394531 -54.003906 246.152344 -30.699219 C 246.085938 -24.453125 247.035156 -17.589844 247.625 -11.507812 C 246.308594 -10.402344 244.378906 -10.046875 241.59375 -10.683594 C 222.578125 -15.046875 206.453125 -38.125 187.042969 -40 C 187.042969 -29.832031 187.042969 -19.664062 187.042969 -9.492188 C 206.453125 -7.621094 222.578125 15.460938 241.59375 19.824219 C 243.886719 20.347656 245.601562 20.199219 246.871094 19.511719 C 246.441406 21.496094 246.183594 23.988281 246.152344 27.101562 C 246.085938 33.347656 247.035156 40.210938 247.625 46.289062 C 246.308594 47.398438 244.378906 47.753906 241.59375 47.113281 C 222.578125 42.75 206.453125 19.671875 187.042969 17.796875 C 187.042969 27.964844 187.042969 38.136719 187.042969 48.304688 C 206.453125 50.179688 222.578125 73.257812 241.59375 77.621094 C 243.5625 78.070312 245.101562 78.027344 246.300781 77.570312 C 246.214844 78.644531 246.164062 79.8125 246.152344 81.085938 C 246.085938 87.332031 247.035156 94.195312 247.625 100.273438 C 246.308594 101.382812 244.378906 101.738281 241.59375 101.101562 C 222.578125 96.738281 206.453125 73.660156 187.042969 71.785156 C 187.042969 81.953125 187.042969 92.121094 187.042969 102.292969 C 206.453125 104.164062 222.578125 127.246094 241.59375 131.609375 C 254.445312 134.554688 249.203125 116.410156 248.316406 100.027344 Z M 265.191406 18.550781 C 261.152344 16.191406 254.21875 10.488281 249.925781 13.671875 C 250.726562 7.417969 248.816406 -2.453125 248.316406 -11.757812 C 252.25 -18.441406 260.597656 -11.425781 265.191406 -8.738281 C 274.882812 -3.074219 284.242188 4.351562 293.921875 10.066406 C 298.265625 12.628906 304.765625 18.796875 309.523438 15.640625 C 309.109375 17.765625 308.933594 20.464844 309.0625 23.855469 C 309.238281 28.480469 310.441406 35.136719 311.035156 41.523438 C 310.609375 42.066406 310.121094 42.53125 309.558594 42.910156 C 304.796875 46.117188 298.277344 39.925781 293.921875 37.355469 C 284.242188 31.640625 274.882812 24.214844 265.191406 18.550781 Z M 265.191406 72.539062 C 261.214844 70.214844 254.421875 64.640625 250.117188 67.523438 C 250.046875 61.46875 248.722656 53.570312 248.3125 46.039062 C 252.25 39.355469 260.597656 46.371094 265.191406 49.058594 C 274.882812 54.722656 284.242188 62.148438 293.921875 67.863281 C 298.128906 70.347656 304.359375 76.207031 309.066406 73.710938 C 309.011719 74.960938 309.003906 76.328125 309.0625 77.84375 C 309.238281 82.46875 310.441406 89.121094 311.035156 95.511719 C 310.609375 96.050781 310.121094 96.519531 309.558594 96.898438 C 304.796875 100.105469 298.277344 93.914062 293.921875 91.34375 C 284.242188 85.628906 274.882812 78.203125 265.191406 72.539062 Z M 265.191406 72.539062 " fill-opacity="1" fill-rule="nonzero"/></g><path fill="#fff627" d="M 61.257812 100.027344 C 65.195312 93.34375 73.542969 100.359375 78.136719 103.046875 C 87.828125 108.710938 97.1875 116.136719 106.867188 121.851562 C 111.222656 124.421875 117.742188 130.613281 122.503906 127.40625 C 129.230469 122.871094 125.574219 106.148438 124.433594 95.28125 C 129.203125 89.230469 139.578125 98.074219 143.550781 100.519531 C 152.695312 106.148438 161.617188 112.949219 170.8125 118.304688 C 174.121094 120.230469 184.875 129.769531 188.144531 120.363281 C 190.292969 114.1875 188.261719 102.179688 187.230469 91.738281 C 183.210938 97.785156 173.859375 89.570312 170.8125 87.796875 C 161.617188 82.441406 152.695312 75.644531 143.550781 70.011719 C 140.0625 67.867188 131.652344 60.796875 126.417969 63.179688 C 126.6875 56.355469 125.113281 47.785156 124.433594 41.296875 C 129.203125 35.246094 139.578125 44.085938 143.550781 46.53125 C 152.695312 52.164062 161.617188 58.960938 170.8125 64.316406 C 174.121094 66.242188 184.875 75.78125 188.144531 66.375 C 190.292969 60.199219 188.261719 48.191406 187.230469 37.75 C 183.210938 43.796875 173.859375 35.582031 170.8125 33.808594 C 161.617188 28.453125 152.695312 21.65625 143.550781 16.027344 C 139.964844 13.820312 131.164062 6.398438 125.972656 9.421875 C 127.394531 2.261719 125.257812 -8.648438 124.433594 -16.503906 C 129.203125 -22.554688 139.578125 -13.710938 143.550781 -11.265625 C 152.695312 -5.636719 161.617188 1.164062 170.8125 6.519531 C 174.121094 8.445312 184.875 17.984375 188.144531 8.578125 C 190.292969 2.402344 188.261719 -9.605469 187.230469 -20.046875 C 183.210938 -14 173.859375 -22.214844 170.8125 -23.988281 C 161.617188 -29.34375 152.695312 -36.140625 143.550781 -41.773438 C 138.164062 -45.085938 121.003906 -60.171875 122.007812 -33.941406 C 122.183594 -29.316406 123.386719 -22.664062 123.980469 -16.273438 C 123.554688 -15.734375 123.066406 -15.265625 122.503906 -14.886719 C 117.742188 -11.679688 111.222656 -17.871094 106.867188 -20.441406 C 97.1875 -26.15625 87.828125 -33.582031 78.136719 -39.246094 C 72.039062 -42.808594 59.339844 -54.003906 59.09375 -30.699219 C 59.03125 -24.453125 59.980469 -17.589844 60.566406 -11.507812 C 59.253906 -10.402344 57.324219 -10.046875 54.539062 -10.683594 C 35.519531 -15.046875 19.398438 -38.125 -0.015625 -40 C -0.015625 -29.832031 -0.015625 -19.664062 -0.015625 -9.492188 C 19.398438 -7.621094 35.519531 15.460938 54.539062 19.824219 C 56.832031 20.347656 58.546875 20.199219 59.816406 19.511719 C 59.382812 21.496094 59.128906 23.988281 59.09375 27.101562 C 59.03125 33.347656 59.980469 40.210938 60.566406 46.289062 C 59.253906 47.398438 57.324219 47.753906 54.539062 47.113281 C 35.519531 42.75 19.398438 19.671875 -0.015625 17.796875 C -0.015625 27.964844 -0.015625 38.136719 -0.015625 48.304688 C 19.398438 50.179688 35.519531 73.257812 54.539062 77.621094 C 56.503906 78.070312 58.046875 78.027344 59.246094 77.570312 C 59.160156 78.644531 59.109375 79.8125 59.09375 81.085938 C 59.03125 87.332031 59.980469 94.195312 60.566406 100.273438 C 59.253906 101.382812 57.324219 101.738281 54.539062 101.101562 C 35.519531 96.738281 19.398438 73.660156 -0.015625 71.785156 C -0.015625 81.953125 -0.015625 92.121094 -0.015625 102.292969 C 19.398438 104.164062 35.519531 127.246094 54.539062 131.609375 C 67.386719 134.554688 62.144531 116.410156 61.257812 100.027344 Z M 78.136719 18.550781 C 74.097656 16.191406 67.164062 10.488281 62.871094 13.671875 C 63.667969 7.417969 61.761719 -2.453125 61.257812 -11.757812 C 65.195312 -18.441406 73.542969 -11.425781 78.136719 -8.738281 C 87.828125 -3.074219 97.1875 4.351562 106.867188 10.066406 C 111.210938 12.628906 117.710938 18.796875 122.46875 15.640625 C 122.054688 17.765625 121.878906 20.464844 122.007812 23.855469 C 122.183594 28.480469 123.386719 35.136719 123.980469 41.523438 C 123.554688 42.066406 123.066406 42.53125 122.503906 42.910156 C 117.742188 46.117188 111.222656 39.925781 106.867188 37.355469 C 97.1875 31.640625 87.828125 24.214844 78.136719 18.550781 Z M 78.136719 72.539062 C 74.15625 70.214844 67.367188 64.640625 63.0625 67.523438 C 62.992188 61.46875 61.667969 53.570312 61.257812 46.039062 C 65.195312 39.355469 73.542969 46.371094 78.136719 49.058594 C 87.828125 54.722656 97.1875 62.148438 106.867188 67.863281 C 111.074219 70.347656 117.304688 76.207031 122.011719 73.710938 C 121.953125 74.960938 121.949219 76.328125 122.007812 77.84375 C 122.183594 82.46875 123.386719 89.121094 123.980469 95.511719 C 123.554688 96.050781 123.066406 96.519531 122.503906 96.898438 C 117.742188 100.105469 111.222656 93.914062 106.867188 91.34375 C 97.1875 85.628906 87.828125 78.203125 78.136719 72.539062 Z M 78.136719 72.539062 " fill-opacity="1" fill-rule="nonzero"/><g clip-path="url(#85d9ac172f)"><path stroke-linecap="round" transform="matrix(0.180545, -0.378293, 0.378293, 0.180545, -613.332165, 327.589019)" fill="none" stroke-linejoin="miter" d="M -372.470877 -666.321276 C -328.06212 -653.130321 -284.100999 -641.894183 -239.604759 -622.115695 C -210.245215 -609.063456 -179.184928 -591.474055 -148.451923 -568.771979 C -121.128303 -548.583458 -93.5887 -527.444766 -58.371373 -497.207433 C -23.896628 -467.617316 8.97401 -433.750784 20.952893 -391.018304 C 45.24228 -304.317606 -43.252918 -128.918315 41.501479 1.630052 C 124.480571 129.43226 274.614168 84.502945 380.630505 108.820486 C 436.24327 121.579371 503.798056 153.193992 568.031257 216.793587 C 621.202766 269.440047 667.465281 338.549539 702.257975 401.000097 C 752.635398 491.410154 788.968199 566.694027 782.142966 641.035553 C 775.332065 715.731648 763.286254 717.515469 737.408578 785.450681 C 692.142844 905.904957 865.188152 918.502072 938.301887 1058.736473 C 962.872044 1105.847568 975.613739 1152.666488 982.274797 1201.024431 C 987.4267 1238.041881 990.14586 1282.921951 987.9443 1322.467956 C 987.589277 1330.226997 987.040561 1345.131129 983.644905 1367.07329 C 980.171829 1389.82685 975.550769 1410.629409 971.56358 1426.875138 C 964.840849 1454.308408 952.883795 1490.311498 942.755077 1520.041503 C 929.375702 1559.273932 913.869703 1595.824613 897.07994 1617.158244 C 819.934727 1715.147834 607.038721 1660.181918 507.637084 1819.804023 C 418.349896 1963.188675 554.750975 2072.547279 546.32218 2237.19077 C 536.638885 2426.120802 364.197596 2599.278749 364.197596 2599.278749 " stroke="#ddbb63" stroke-width="106" stroke-opacity="1" stroke-miterlimit="10"/><path stroke-linecap="round" transform="matrix(0.180545, -0.378293, 0.378293, 0.180545, -613.332165, 327.589019)" fill="none" stroke-linejoin="miter" d="M -372.470877 -666.321276 C -328.06212 -653.130321 -284.100999 -641.894183 -239.604759 -622.115695 C -210.245215 -609.063456 -179.184928 -591.474055 -148.451923 -568.771979 C -121.128303 -548.583458 -93.5887 -527.444766 -58.371373 -497.207433 C -23.896628 -467.617316 8.97401 -433.750784 20.952893 -391.018304 C 45.24228 -304.317606 -43.252918 -128.918315 41.501479 1.630052 C 124.480571 129.43226 274.614168 84.502945 380.630505 108.820486 C 436.24327 121.579371 503.798056 153.193992 568.031257 216.793587 C 621.202766 269.440047 667.465281 338.549539 702.257975 401.000097 C 752.635398 491.410154 788.968199 566.694027 782.142966 641.035553 C 775.332065 715.731648 763.286254 717.515469 737.408578 785.450681 C 692.142844 905.904957 865.188152 918.502072 938.301887 1058.736473 C 962.872044 1105.847568 975.613739 1152.666488 982.274797 1201.024431 C 987.4267 1238.041881 990.14586 1282.921951 987.9443 1322.467956 C 987.589277 1330.226997 987.040561 1345.131129 983.644905 1367.07329 C 980.171829 1389.82685 975.550769 1410.629409 971.56358 1426.875138 C 964.840849 1454.308408 952.883795 1490.311498 942.755077 1520.041503 C 929.375702 1559.273932 913.869703 1595.824613 897.07994 1617.158244 C 819.934727 1715.147834 607.038721 1660.181918 507.637084 1819.804023 C 418.349896 1963.188675 554.750975 2072.547279 546.32218 2237.19077 C 536.638885 2426.120802 364.197596 2599.278749 364.197596 2599.278749 " stroke="#ff5e00" stroke-width="100" stroke-opacity="1" stroke-miterlimit="10"/><path stroke-linecap="round" transform="matrix(0.180545, -0.378293, 0.378293, 0.180545, -613.332165, 327.589019)" fill="none" stroke-linejoin="miter" d="M -447.697177 -634.259934 C -185.759531 -583.916727 -66.255482 -449.424963 -47.72717 -378.819655 C -25.586584 -294.500994 -135.978647 -122.013003 -42.372222 46.5336 C 51.242614 215.076188 232.675919 134.277952 394.563476 188.836838 C 477.847785 216.909544 564.020129 279.528016 630.380877 370.281512 C 691.699735 454.127266 713.496656 495.860353 721.357223 534.507317 C 735.067427 603.044228 720.104592 646.336698 700.140568 683.910141 C 653.775134 769.130363 627.105137 820.281927 663.693622 881.865097 C 705.147944 951.544914 806.056693 983.659297 860.598321 1055.901115 C 918.497131 1132.818881 930.564182 1190.729789 934.931492 1222.576639 C 951.465921 1342.985801 914.454634 1509.013664 845.031486 1575.086557 C 774.148762 1642.558217 584.826335 1589.083811 449.049625 1738.847029 C 314.770338 1886.966246 465.445657 2046.852521 473.537476 2213.224856 C 482.527491 2398.33355 340.883071 2570.960595 340.883071 2570.960595 " stroke="#ddbb63" stroke-width="106" stroke-opacity="1" stroke-miterlimit="10"/><path stroke-linecap="round" transform="matrix(0.180545, -0.378293, 0.378293, 0.180545, -613.332165, 327.589019)" fill="none" stroke-linejoin="miter" d="M -447.697177 -634.259934 C -185.759531 -583.916727 -66.255482 -449.424963 -47.72717 -378.819655 C -25.586584 -294.500994 -135.978647 -122.013003 -42.372222 46.5336 C 51.242614 215.076188 232.675919 134.277952 394.563476 188.836838 C 477.847785 216.909544 564.020129 279.528016 630.380877 370.281512 C 691.699735 454.127266 713.496656 495.860353 721.357223 534.507317 C 735.067427 603.044228 720.104592 646.336698 700.140568 683.910141 C 653.775134 769.130363 627.105137 820.281927 663.693622 881.865097 C 705.147944 951.544914 806.056693 983.659297 860.598321 1055.901115 C 918.497131 1132.818881 930.564182 1190.729789 934.931492 1222.576639 C 951.465921 1342.985801 914.454634 1509.013664 845.031486 1575.086557 C 774.148762 1642.558217 584.826335 1589.083811 449.049625 1738.847029 C 314.770338 1886.966246 465.445657 2046.852521 473.537476 2213.224856 C 482.527491 2398.33355 340.883071 2570.960595 340.883071 2570.960595 " stroke="#66ff00" stroke-width="100" stroke-opacity="1" stroke-miterlimit="10"/><path stroke-linecap="round" transform="matrix(0.180545, -0.378293, 0.378293, 0.180545, -602.70367, 264.445878)" fill="none" stroke-linejoin="miter" d="M -581.595014 -543.290161 C -373.629102 -492.920692 -306.716728 -380.219265 -288.04477 -320.390564 C -258.370023 -225.283565 -371.858072 -26.287783 -260.235979 150.646888 C -148.626311 327.577162 -9.332619 265.062838 133.112342 295.868087 C 205.507574 311.531919 298.539883 347.415748 395.926591 426.521503 C 416.886155 443.479468 455.220834 472.611071 476.917484 526.617983 C 498.60171 580.6205 506.598867 627.494043 470.768634 712.157373 C 436.012453 794.397793 386.282435 848.552374 407.95601 917.439723 C 454.956932 1066.894401 716.511577 1029.112546 738.603639 1276.377813 C 744.346821 1388.131375 698.163356 1514.754573 614.675772 1558.606458 C 518.801528 1608.9586 318.696636 1589.491387 205.340595 1754.730466 C 78.40791 1939.749027 226.307957 2045.550577 230.600761 2239.034707 C 234.660662 2421.818682 153.520368 2583.485032 153.520368 2583.485032 " stroke="#ddbb63" stroke-width="106" stroke-opacity="1" stroke-miterlimit="10"/><path stroke-linecap="round" transform="matrix(0.180545, -0.378293, 0.378293, 0.180545, -602.70367, 264.445878)" fill="none" stroke-linejoin="miter" d="M -581.595014 -543.290161 C -373.629102 -492.920692 -306.716728 -380.219265 -288.04477 -320.390564 C -258.370023 -225.283565 -371.858072 -26.287783 -260.235979 150.646888 C -148.626311 327.577162 -9.332619 265.062838 133.112342 295.868087 C 205.507574 311.531919 298.539883 347.415748 395.926591 426.521503 C 416.886155 443.479468 455.220834 472.611071 476.917484 526.617983 C 498.60171 580.6205 506.598867 627.494043 470.768634 712.157373 C 436.012453 794.397793 386.282435 848.552374 407.95601 917.439723 C 454.956932 1066.894401 716.511577 1029.112546 738.603639 1276.377813 C 744.346821 1388.131375 698.163356 1514.754573 614.675772 1558.606458 C 518.801528 1608.9586 318.696636 1589.491387 205.340595 1754.730466 C 78.40791 1939.749027 226.307957 2045.550577 230.600761 2239.034707 C 234.660662 2421.818682 153.520368 2583.485032 153.520368 2583.485032 " stroke="#77f8ff" stroke-width="100" stroke-opacity="1" stroke-miterlimit="10"/><path stroke-linecap="round" transform="matrix(0.180545, -0.378293, 0.378293, 0.180545, -602.70367, 264.445878)" fill="none" stroke-linejoin="miter" d="M -669.59192 -511.288191 C -490.630332 -482.421936 -407.470843 -412.355819 -372.052066 -318.389695 C -313.625174 -174.419169 -461.659082 16.797945 -334.142003 218.188095 C -206.624925 419.578245 -9.333092 337.066182 133.111869 367.871431 C 185.271278 379.149696 234.728454 396.168133 305.179297 442.137384 C 367.726066 483.16381 412.334378 558.370347 403.140285 636.186437 C 389.530973 757.651193 275.246631 831.545602 312.328631 936.179781 C 350.792354 1045.699572 451.263187 1058.073145 570.822218 1116.911129 C 667.584751 1164.851491 684.29186 1235.210782 684.305531 1286.689636 C 681.645948 1351.866495 658.161299 1407.290695 629.029743 1440.627573 C 586.064491 1489.8085 555.372947 1510.486767 470.045831 1531.249971 C 366.3 1556.49778 246.945773 1570.742332 158.674057 1659.265682 C 54.745531 1763.491237 48.207279 1871.017763 76.115668 1967.205274 C 102.91929 2059.541829 152.26868 2136.698635 160.401169 2224.790892 C 176.398193 2397.860929 99.387819 2528.240747 99.387819 2528.240747 " stroke="#ddbb63" stroke-width="106" stroke-opacity="1" stroke-miterlimit="10"/><path stroke-linecap="round" transform="matrix(0.180545, -0.378293, 0.378293, 0.180545, -602.70367, 264.445878)" fill="none" stroke-linejoin="miter" d="M -669.59192 -511.288191 C -490.630332 -482.421936 -407.470843 -412.355819 -372.052066 -318.389695 C -313.625174 -174.419169 -461.659082 16.797945 -334.142003 218.188095 C -206.624925 419.578245 -9.333092 337.066182 133.111869 367.871431 C 185.271278 379.149696 234.728454 396.168133 305.179297 442.137384 C 367.726066 483.16381 412.334378 558.370347 403.140285 636.186437 C 389.530973 757.651193 275.246631 831.545602 312.328631 936.179781 C 350.792354 1045.699572 451.263187 1058.073145 570.822218 1116.911129 C 667.584751 1164.851491 684.29186 1235.210782 684.305531 1286.689636 C 681.645948 1351.866495 658.161299 1407.290695 629.029743 1440.627573 C 586.064491 1489.8085 555.372947 1510.486767 470.045831 1531.249971 C 366.3 1556.49778 246.945773 1570.742332 158.674057 1659.265682 C 54.745531 1763.491237 48.207279 1871.017763 76.115668 1967.205274 C 102.91929 2059.541829 152.26868 2136.698635 160.401169 2224.790892 C 176.398193 2397.860929 99.387819 2528.240747 99.387819 2528.240747 " stroke="#fcfbf8" stroke-width="100" stroke-opacity="1" stroke-miterlimit="10"/></g><path fill="#fcfbf8" d="M 1271.382812 794.183594 C 1250.304688 829.203125 1200.328125 843.652344 1130.800781 834.8125 C 1062.125 826.140625 982.402344 795.882812 906.246094 749.648438 C 830.089844 703.410156 766.34375 646.632812 727.078125 589.6875 C 687.300781 532.058594 676.929688 481.234375 698.179688 446.214844 C 715.347656 417.996094 751.386719 403.039062 801.191406 403.039062 C 812.921875 403.039062 825.5 403.886719 838.761719 405.585938 C 907.4375 414.257812 987.160156 444.515625 1063.316406 490.753906 C 1139.472656 536.988281 1203.21875 593.765625 1242.484375 650.714844 C 1282.433594 708.339844 1292.632812 759.167969 1271.382812 794.183594 Z M 1237.554688 654.28125 C 1198.628906 598.1875 1135.730469 541.917969 1060.257812 496.191406 C 966.761719 439.414062 871.398438 409.328125 801.363281 409.328125 C 755.125 409.328125 719.9375 422.417969 703.449219 449.613281 C 683.558594 482.421875 693.757812 530.871094 732.175781 586.457031 C 771.105469 642.554688 834 698.820312 909.476562 744.546875 C 1002.96875 801.324219 1098.335938 831.414062 1168.371094 831.414062 C 1214.605469 831.414062 1249.796875 818.324219 1266.285156 791.125 C 1286.003906 758.148438 1275.804688 709.699219 1237.554688 654.28125 Z M 1121.621094 821.554688 C 1057.367188 813.394531 982.570312 785.175781 911.175781 741.828125 C 839.78125 698.480469 780.113281 645.273438 743.226562 591.898438 C 705.828125 537.839844 696.308594 490.074219 716.199219 457.265625 C 732.347656 430.746094 766.003906 416.808594 812.921875 416.808594 C 823.972656 416.808594 835.699219 417.65625 848.109375 419.1875 C 912.367188 427.347656 987.160156 455.566406 1058.558594 498.914062 C 1129.953125 542.257812 1189.617188 595.464844 1226.507812 648.84375 C 1263.90625 702.898438 1273.425781 750.667969 1253.535156 783.476562 C 1233.644531 816.113281 1186.730469 829.710938 1121.621094 821.554688 Z M 1221.40625 652.242188 C 1185.027344 599.714844 1126.042969 547.019531 1055.328125 504.183594 C 984.609375 461.34375 910.664062 433.296875 847.257812 425.304688 C 784.703125 417.488281 739.996094 429.894531 721.46875 460.496094 C 702.9375 491.09375 712.457031 536.480469 748.324219 588.496094 C 784.703125 641.023438 843.691406 693.71875 914.40625 736.558594 C 1001.949219 789.765625 1091.195312 817.984375 1156.8125 817.984375 C 1199.988281 817.984375 1232.964844 805.742188 1248.265625 780.246094 C 1266.792969 749.476562 1257.273438 704.089844 1221.40625 652.242188 Z M 1112.273438 808.125 C 1052.265625 800.472656 982.570312 774.125 915.933594 733.667969 C 849.300781 693.210938 793.542969 643.574219 759.203125 593.9375 C 724.355469 543.449219 715.347656 498.742188 733.875 468.144531 C 749.003906 443.324219 780.453125 430.234375 824.3125 430.234375 C 834.679688 430.234375 845.558594 430.917969 857.117188 432.445312 C 917.125 440.09375 986.820312 466.445312 1053.457031 506.902344 C 1120.09375 547.359375 1175.851562 596.996094 1210.1875 646.632812 C 1245.035156 697.121094 1254.046875 741.828125 1235.515625 772.425781 C 1216.988281 803.195312 1173.128906 815.773438 1112.273438 808.125 Z M 1205.257812 650.203125 C 1171.261719 601.246094 1116.351562 552.117188 1050.398438 512.171875 C 915.085938 430.066406 775.523438 411.707031 739.316406 471.375 C 721.976562 499.933594 730.988281 542.089844 764.304688 590.367188 C 798.300781 639.324219 853.210938 688.449219 919.164062 728.398438 C 985.121094 768.347656 1053.96875 794.523438 1113.125 802.003906 C 1124.511719 803.363281 1135.222656 804.214844 1145.421875 804.214844 C 1186.730469 804.214844 1216.476562 792.144531 1230.417969 769.367188 C 1247.585938 740.808594 1238.746094 698.480469 1205.257812 650.203125 Z M 1103.09375 794.863281 C 1047.335938 787.894531 982.742188 763.246094 920.863281 725.847656 C 858.988281 688.109375 807.3125 642.042969 775.355469 595.976562 C 742.886719 549.058594 734.554688 507.582031 751.894531 479.023438 C 766.003906 455.90625 795.242188 443.835938 835.871094 443.835938 C 845.390625 443.835938 855.589844 444.515625 866.46875 445.875 C 922.226562 452.84375 986.820312 477.492188 1048.699219 515.0625 C 1110.574219 552.628906 1162.25 598.695312 1194.207031 644.761719 C 1226.675781 691.679688 1235.007812 733.15625 1217.667969 761.714844 C 1200.328125 790.105469 1159.699219 802.003906 1103.09375 794.863281 Z M 1189.109375 648.164062 C 1157.660156 602.777344 1106.664062 557.21875 1045.46875 520.160156 C 920.015625 444.003906 790.652344 427.007812 757.164062 482.082031 C 723.675781 537.328125 798.472656 644.253906 923.925781 720.238281 C 985.121094 757.296875 1048.867188 781.605469 1103.773438 788.40625 C 1114.3125 789.765625 1124.34375 790.445312 1133.691406 790.445312 C 1171.941406 790.445312 1199.476562 779.394531 1212.226562 758.148438 C 1228.375 731.96875 1220.046875 692.871094 1189.109375 648.164062 Z M 1093.914062 781.433594 C 1042.578125 774.976562 982.742188 752.367188 925.792969 717.6875 C 868.679688 683.011719 821.082031 640.511719 791.503906 598.015625 C 761.585938 554.667969 753.933594 516.25 769.914062 489.902344 C 782.832031 468.484375 810.03125 457.265625 847.597656 457.265625 C 856.4375 457.265625 865.789062 457.945312 875.816406 459.132812 C 927.15625 465.59375 986.992188 488.203125 1043.9375 522.878906 C 1101.054688 557.558594 1148.652344 600.054688 1178.230469 642.554688 C 1208.148438 685.902344 1215.796875 724.320312 1199.816406 750.667969 C 1183.667969 777.183594 1146.101562 788.066406 1093.914062 781.433594 Z M 1040.707031 528.152344 C 984.441406 493.984375 925.453125 471.542969 874.96875 465.253906 C 825.332031 458.964844 789.804688 468.824219 775.183594 493.132812 C 744.414062 543.960938 813.261719 642.382812 928.855469 712.417969 C 985.121094 746.585938 1044.109375 769.027344 1094.59375 775.316406 C 1104.285156 776.503906 1113.464844 777.183594 1122.132812 777.183594 C 1157.320312 777.183594 1182.648438 766.984375 1194.378906 747.605469 C 1225.316406 696.609375 1156.300781 598.1875 1040.707031 528.152344 Z M 1084.566406 768.007812 C 1037.476562 762.054688 982.742188 741.316406 930.554688 709.53125 C 878.367188 677.742188 834.679688 638.8125 807.652344 599.886719 C 780.113281 560.277344 772.972656 524.921875 787.761719 500.78125 C 799.664062 481.0625 824.652344 470.863281 859.160156 470.863281 C 867.316406 470.863281 875.816406 471.375 884.996094 472.5625 C 932.085938 478.511719 986.820312 499.253906 1039.007812 531.039062 C 1091.195312 562.828125 1134.882812 601.757812 1161.910156 640.683594 C 1189.449219 680.460938 1196.417969 715.648438 1181.628906 739.957031 C 1167.011719 764.097656 1132.503906 774.125 1084.566406 768.007812 Z M 1035.777344 536.140625 C 984.269531 504.863281 930.382812 484.464844 884.148438 478.511719 C 838.761719 472.734375 806.460938 481.742188 793.03125 503.84375 C 779.601562 525.941406 786.574219 558.75 812.582031 596.316406 C 839.101562 634.5625 882.105469 672.980469 933.613281 704.261719 C 997.53125 743.015625 1062.636719 763.585938 1110.234375 763.585938 C 1141.511719 763.585938 1165.140625 754.746094 1176.359375 736.386719 C 1204.578125 690.152344 1141.511719 600.226562 1035.777344 536.140625 Z M 1075.386719 754.746094 C 1032.546875 749.308594 982.910156 730.4375 935.484375 701.710938 C 888.058594 672.980469 848.28125 637.453125 823.800781 602.097656 C 798.8125 565.886719 792.351562 533.761719 805.78125 511.660156 C 816.660156 493.640625 839.441406 484.292969 870.886719 484.292969 C 878.199219 484.292969 886.015625 484.804688 894.347656 485.824219 C 937.183594 491.261719 986.820312 510.132812 1034.25 538.859375 C 1081.675781 567.757812 1121.453125 603.117188 1145.929688 638.472656 C 1170.921875 674.679688 1177.378906 706.808594 1163.949219 728.910156 C 1150.351562 751.007812 1119.074219 760.1875 1075.386719 754.746094 Z M 1140.832031 642.042969 C 1116.863281 607.367188 1077.765625 572.519531 1031.019531 544.128906 C 935.144531 485.992188 836.550781 472.902344 811.050781 514.722656 C 798.980469 534.609375 805.273438 564.359375 828.902344 598.355469 C 852.867188 633.035156 891.964844 667.882812 938.714844 696.269531 C 985.460938 724.660156 1034.25 743.1875 1076.234375 748.457031 C 1084.394531 749.476562 1091.875 749.988281 1099.015625 749.988281 C 1128.082031 749.988281 1148.820312 741.65625 1158.679688 725.507812 C 1170.578125 705.789062 1164.289062 676.042969 1140.832031 642.042969 Z M 1066.035156 741.316406 C 1027.617188 736.386719 982.910156 719.558594 940.242188 693.550781 C 897.578125 667.710938 861.878906 635.753906 839.78125 603.964844 C 817.171875 571.328125 811.5625 542.429688 823.632812 522.371094 C 833.492188 506.222656 853.890625 497.550781 882.277344 497.550781 C 888.90625 497.550781 895.875 498.0625 903.355469 498.914062 C 941.773438 503.84375 986.480469 520.671875 1029.148438 546.679688 C 1071.816406 572.519531 1107.515625 604.476562 1129.613281 636.265625 C 1152.222656 668.902344 1157.832031 697.800781 1145.761719 717.859375 C 1133.691406 738.085938 1105.472656 746.246094 1066.035156 741.316406 Z M 1124.683594 640.003906 C 1103.09375 608.894531 1068.074219 577.617188 1026.089844 552.117188 C 974.070312 520.5 921.035156 503.671875 882.277344 503.671875 C 857.117188 503.671875 837.910156 510.8125 828.902344 525.601562 C 818.019531 543.449219 823.800781 569.96875 844.878906 600.394531 C 866.46875 631.503906 901.484375 662.78125 943.472656 688.28125 C 985.460938 713.777344 1029.320312 730.4375 1066.886719 735.199219 C 1074.195312 736.046875 1080.996094 736.558594 1087.453125 736.558594 C 1113.464844 736.558594 1131.992188 729.078125 1140.660156 714.800781 C 1151.371094 696.949219 1145.761719 670.433594 1124.683594 640.003906 Z M 1056.855469 728.058594 C 1022.6875 723.808594 983.082031 708.679688 945.171875 685.730469 C 907.265625 662.78125 875.648438 634.394531 855.929688 606.175781 C 835.871094 577.109375 830.769531 551.269531 841.648438 533.421875 C 850.488281 518.972656 868.679688 511.320312 894.007812 511.320312 C 899.957031 511.320312 906.074219 511.660156 912.707031 512.511719 C 946.875 516.761719 986.480469 531.890625 1024.390625 554.839844 C 1062.296875 577.789062 1093.914062 606.175781 1113.632812 634.394531 C 1133.691406 663.460938 1138.792969 689.300781 1127.914062 707.148438 C 1117.203125 725 1091.875 732.476562 1056.855469 728.058594 Z M 1108.535156 637.964844 C 1089.496094 610.425781 1058.386719 582.71875 1021.160156 560.109375 C 983.929688 537.5 945.171875 522.878906 911.855469 518.632812 C 879.386719 514.550781 856.269531 520.839844 846.75 536.480469 C 826.691406 569.628906 872.078125 634.054688 948.234375 680.292969 C 994.300781 708.339844 1041.21875 723.128906 1075.554688 723.128906 C 1097.824219 723.128906 1114.652344 716.839844 1122.644531 703.75 C 1132.164062 688.28125 1127.234375 664.820312 1108.535156 637.964844 Z M 1047.675781 714.628906 C 1017.757812 710.890625 983.082031 697.800781 950.101562 677.570312 C 916.957031 657.511719 889.246094 632.863281 872.246094 608.046875 C 854.570312 582.546875 850.148438 559.9375 859.667969 544.128906 C 867.660156 530.871094 884.316406 524.410156 905.90625 524.410156 C 937.015625 524.410156 978.320312 537.5 1019.628906 562.660156 C 1052.777344 582.71875 1080.484375 607.367188 1097.484375 632.183594 C 1115.164062 657.683594 1119.582031 680.292969 1110.0625 696.101562 C 1100.542969 712.078125 1078.277344 718.539062 1047.675781 714.628906 Z M 1092.382812 635.925781 C 1075.726562 611.957031 1048.699219 587.816406 1016.398438 568.097656 C 950.273438 527.980469 882.277344 518.632812 864.769531 547.359375 C 856.609375 560.789062 861.027344 581.1875 877.007812 604.476562 C 893.667969 628.445312 920.695312 652.582031 952.992188 672.300781 C 985.460938 692.019531 1019.117188 704.769531 1048.1875 708.507812 C 1053.796875 709.191406 1059.066406 709.53125 1063.996094 709.53125 C 1083.886719 709.53125 1097.996094 703.917969 1104.625 693.039062 C 1112.953125 679.609375 1108.535156 659.210938 1092.382812 635.925781 Z M 1038.328125 701.371094 C 1012.828125 698.140625 983.082031 686.921875 954.863281 669.75 C 926.476562 652.582031 902.847656 631.503906 888.226562 610.253906 C 873.097656 588.328125 869.1875 568.777344 877.519531 555.179688 C 884.148438 544.128906 898.085938 538.351562 917.125 538.351562 C 921.546875 538.351562 926.304688 538.691406 931.234375 539.199219 C 956.734375 542.429688 986.480469 553.648438 1014.699219 570.816406 C 1074.875 607.367188 1108.875 657.683594 1092.042969 685.390625 C 1083.886719 698.988281 1064.847656 704.601562 1038.328125 701.371094 Z M 1011.46875 576.085938 C 983.929688 559.257812 955.03125 548.378906 930.382812 545.320312 C 906.585938 542.257812 889.585938 546.847656 882.789062 558.238281 C 875.816406 569.628906 879.558594 586.796875 893.328125 606.515625 C 907.4375 626.914062 930.554688 647.484375 958.09375 664.3125 C 985.632812 681.140625 1014.53125 692.019531 1039.179688 695.082031 C 1043.9375 695.761719 1048.355469 695.929688 1052.605469 695.929688 C 1069.4375 695.929688 1081.335938 691.171875 1086.773438 681.992188 C 1101.394531 658.191406 1066.886719 609.746094 1011.46875 576.085938 Z M 959.621094 661.59375 C 936.164062 647.3125 916.445312 629.804688 904.207031 612.125 C 891.457031 593.765625 888.398438 577.449219 895.367188 565.886719 C 901.144531 556.199219 913.214844 551.609375 928.855469 551.609375 C 950.953125 551.609375 980.363281 560.957031 1009.769531 578.808594 C 1033.226562 593.085938 1052.945312 610.59375 1065.1875 628.273438 C 1077.9375 646.632812 1080.996094 662.953125 1074.027344 674.511719 C 1060.085938 697.628906 1009.769531 692.019531 959.621094 661.59375 Z M 1060.257812 631.84375 C 1048.527344 615.015625 1029.488281 598.015625 1006.710938 584.246094 C 961.152344 556.539062 912.535156 549.738281 900.636719 569.289062 C 895.195312 578.46875 898.257812 592.746094 909.304688 608.726562 C 921.035156 625.554688 940.074219 642.554688 962.851562 656.324219 C 990.902344 673.320312 1019.96875 682.5 1041.046875 682.5 C 1054.308594 682.5 1064.335938 678.929688 1068.925781 671.28125 C 1074.367188 662.101562 1071.304688 647.824219 1060.257812 631.84375 Z M 964.550781 653.601562 C 924.433594 629.292969 901.996094 595.636719 913.386719 576.9375 C 917.976562 569.289062 927.496094 565.378906 940.414062 565.378906 C 943.304688 565.378906 946.535156 565.546875 949.761719 566.058594 C 966.761719 568.269531 986.3125 575.578125 1005.179688 586.96875 C 1023.878906 598.355469 1039.519531 612.296875 1049.378906 626.40625 C 1059.578125 641.195312 1062.125 654.453125 1056.515625 663.800781 C 1044.957031 682.332031 1004.671875 677.910156 964.550781 653.601562 Z M 1044.109375 629.804688 C 1034.929688 616.546875 1019.800781 603.117188 1001.78125 592.238281 C 983.761719 581.355469 964.890625 574.21875 948.914062 572.179688 C 933.953125 570.308594 922.90625 573.199219 918.65625 580.167969 C 909.476562 595.464844 931.914062 626.574219 967.78125 648.332031 C 989.878906 661.761719 1013 669.070312 1029.488281 669.070312 C 1039.6875 669.070312 1047.507812 666.351562 1051.078125 660.402344 C 1055.15625 653.433594 1052.605469 642.214844 1044.109375 629.804688 Z M 1010.621094 661.253906 C 998.039062 659.722656 983.421875 654.113281 969.3125 645.613281 C 939.222656 627.425781 922.566406 601.925781 931.234375 587.816406 C 934.804688 581.867188 942.285156 578.976562 951.972656 578.976562 C 965.230469 578.976562 982.742188 584.417969 1000.082031 594.957031 C 1014.019531 603.457031 1025.75 613.824219 1032.886719 624.363281 C 1040.707031 635.582031 1042.578125 645.613281 1038.15625 652.921875 C 1033.910156 659.890625 1024.050781 662.953125 1010.621094 661.253906 Z M 1027.957031 627.765625 C 1021.160156 618.074219 1010.109375 608.214844 997.019531 600.226562 C 968.121094 582.71875 942.453125 581.355469 936.675781 591.046875 C 930.722656 600.734375 943.8125 622.835938 972.710938 640.34375 C 985.972656 648.332031 999.742188 653.601562 1011.46875 655.132812 C 1013.679688 655.472656 1015.71875 655.472656 1017.757812 655.472656 C 1025.410156 655.472656 1030.847656 653.433594 1033.226562 649.523438 C 1035.949219 644.59375 1034.078125 636.773438 1027.957031 627.765625 Z M 1027.957031 627.765625 " fill-opacity="1" fill-rule="nonzero"/><path fill="#ff5e00" d="M 1287.816406 794.183594 C 1266.738281 829.203125 1216.761719 843.652344 1147.234375 834.8125 C 1078.558594 826.140625 998.835938 795.882812 922.679688 749.648438 C 846.523438 703.410156 782.777344 646.632812 743.511719 589.6875 C 703.734375 532.058594 693.363281 481.234375 714.613281 446.214844 C 731.78125 417.996094 767.820312 403.039062 817.625 403.039062 C 829.355469 403.039062 841.933594 403.886719 855.195312 405.585938 C 923.871094 414.257812 1003.59375 444.515625 1079.75 490.753906 C 1155.90625 536.988281 1219.652344 593.765625 1258.917969 650.714844 C 1298.867188 708.339844 1309.066406 759.167969 1287.816406 794.183594 Z M 1253.988281 654.28125 C 1215.0625 598.1875 1152.164062 541.917969 1076.691406 496.191406 C 983.195312 439.414062 887.832031 409.328125 817.796875 409.328125 C 771.558594 409.328125 736.371094 422.417969 719.882812 449.613281 C 699.992188 482.421875 710.191406 530.871094 748.609375 586.457031 C 787.539062 642.554688 850.433594 698.820312 925.910156 744.546875 C 1019.402344 801.324219 1114.769531 831.414062 1184.804688 831.414062 C 1231.042969 831.414062 1266.230469 818.324219 1282.71875 791.125 C 1302.4375 758.148438 1292.238281 709.699219 1253.988281 654.28125 Z M 1138.058594 821.554688 C 1073.800781 813.394531 999.003906 785.175781 927.609375 741.828125 C 856.214844 698.480469 796.546875 645.273438 759.660156 591.898438 C 722.261719 537.839844 712.742188 490.074219 732.632812 457.265625 C 748.78125 430.746094 782.4375 416.808594 829.355469 416.808594 C 840.40625 416.808594 852.132812 417.65625 864.542969 419.1875 C 928.800781 427.347656 1003.59375 455.566406 1074.992188 498.914062 C 1146.386719 542.257812 1206.054688 595.464844 1242.941406 648.84375 C 1280.339844 702.898438 1289.859375 750.667969 1269.96875 783.476562 C 1250.082031 816.113281 1203.164062 829.710938 1138.058594 821.554688 Z M 1237.839844 652.242188 C 1201.464844 599.714844 1142.476562 547.019531 1071.761719 504.183594 C 1001.046875 461.34375 927.097656 433.296875 863.691406 425.304688 C 801.136719 417.488281 756.429688 429.894531 737.902344 460.496094 C 719.371094 491.09375 728.890625 536.480469 764.757812 588.496094 C 801.136719 641.023438 860.125 693.71875 930.839844 736.558594 C 1018.382812 789.765625 1107.628906 817.984375 1173.246094 817.984375 C 1216.421875 817.984375 1249.398438 805.742188 1264.699219 780.246094 C 1283.226562 749.476562 1273.707031 704.089844 1237.839844 652.242188 Z M 1128.707031 808.125 C 1068.699219 800.472656 999.003906 774.125 932.371094 733.667969 C 865.734375 693.210938 809.976562 643.574219 775.636719 593.9375 C 740.789062 543.449219 731.78125 498.742188 750.308594 468.144531 C 765.4375 443.324219 796.886719 430.234375 840.746094 430.234375 C 851.113281 430.234375 861.992188 430.917969 873.550781 432.445312 C 933.558594 440.09375 1003.253906 466.445312 1069.890625 506.902344 C 1136.527344 547.359375 1192.285156 596.996094 1226.621094 646.632812 C 1261.46875 697.121094 1270.480469 741.828125 1251.949219 772.425781 C 1233.421875 803.195312 1189.5625 815.773438 1128.707031 808.125 Z M 1221.691406 650.203125 C 1187.695312 601.246094 1132.789062 552.117188 1066.832031 512.171875 C 931.519531 430.066406 791.957031 411.707031 755.75 471.375 C 738.410156 499.933594 747.421875 542.089844 780.738281 590.367188 C 814.734375 639.324219 869.644531 688.449219 935.597656 728.398438 C 1001.554688 768.347656 1070.402344 794.523438 1129.558594 802.003906 C 1140.945312 803.363281 1151.65625 804.214844 1161.855469 804.214844 C 1203.164062 804.214844 1232.910156 792.144531 1246.851562 769.367188 C 1264.019531 740.808594 1255.179688 698.480469 1221.691406 650.203125 Z M 1119.527344 794.863281 C 1063.769531 787.894531 999.175781 763.246094 937.300781 725.847656 C 875.421875 688.109375 823.746094 642.042969 791.789062 595.976562 C 759.320312 549.058594 750.988281 507.582031 768.328125 479.023438 C 782.4375 455.90625 811.675781 443.835938 852.304688 443.835938 C 861.824219 443.835938 872.023438 444.515625 882.902344 445.875 C 938.660156 452.84375 1003.253906 477.492188 1065.132812 515.0625 C 1127.007812 552.628906 1178.683594 598.695312 1210.640625 644.761719 C 1243.109375 691.679688 1251.441406 733.15625 1234.101562 761.714844 C 1216.761719 790.105469 1176.132812 802.003906 1119.527344 794.863281 Z M 1205.542969 648.164062 C 1174.09375 602.777344 1123.097656 557.21875 1061.902344 520.160156 C 936.449219 444.003906 807.085938 427.007812 773.597656 482.082031 C 740.109375 537.328125 814.90625 644.253906 940.359375 720.238281 C 1001.554688 757.296875 1065.300781 781.605469 1120.207031 788.40625 C 1130.746094 789.765625 1140.777344 790.445312 1150.125 790.445312 C 1188.375 790.445312 1215.914062 779.394531 1228.660156 758.148438 C 1244.808594 731.96875 1236.480469 692.871094 1205.542969 648.164062 Z M 1110.347656 781.433594 C 1059.011719 774.976562 999.175781 752.367188 942.230469 717.6875 C 885.113281 683.011719 837.515625 640.511719 807.9375 598.015625 C 778.019531 554.667969 770.367188 516.25 786.347656 489.902344 C 799.265625 468.484375 826.464844 457.265625 864.035156 457.265625 C 872.871094 457.265625 882.222656 457.945312 892.25 459.132812 C 943.589844 465.59375 1003.425781 488.203125 1060.371094 522.878906 C 1117.488281 557.558594 1165.085938 600.054688 1194.664062 642.554688 C 1224.582031 685.902344 1232.230469 724.320312 1216.253906 750.667969 C 1200.101562 777.183594 1162.535156 788.066406 1110.347656 781.433594 Z M 1057.140625 528.152344 C 1000.875 493.984375 941.886719 471.542969 891.402344 465.253906 C 841.765625 458.964844 806.238281 468.824219 791.617188 493.132812 C 760.847656 543.960938 829.695312 642.382812 945.289062 712.417969 C 1001.554688 746.585938 1060.542969 769.027344 1111.027344 775.316406 C 1120.71875 776.503906 1129.898438 777.183594 1138.566406 777.183594 C 1173.753906 777.183594 1199.082031 766.984375 1210.8125 747.605469 C 1241.75 696.609375 1172.734375 598.1875 1057.140625 528.152344 Z M 1101 768.007812 C 1053.910156 762.054688 999.175781 741.316406 946.988281 709.53125 C 894.800781 677.742188 851.113281 638.8125 824.085938 599.886719 C 796.546875 560.277344 789.40625 524.921875 804.195312 500.78125 C 816.097656 481.0625 841.085938 470.863281 875.59375 470.863281 C 883.753906 470.863281 892.25 471.375 901.429688 472.5625 C 948.519531 478.511719 1003.253906 499.253906 1055.441406 531.039062 C 1107.628906 562.828125 1151.316406 601.757812 1178.34375 640.683594 C 1205.882812 680.460938 1212.851562 715.648438 1198.0625 739.957031 C 1183.445312 764.097656 1148.9375 774.125 1101 768.007812 Z M 1052.210938 536.140625 C 1000.703125 504.863281 946.816406 484.464844 900.582031 478.511719 C 855.195312 472.734375 822.894531 481.742188 809.464844 503.84375 C 796.039062 525.941406 803.007812 558.75 829.015625 596.316406 C 855.535156 634.5625 898.542969 672.980469 950.046875 704.261719 C 1013.964844 743.015625 1079.070312 763.585938 1126.667969 763.585938 C 1157.945312 763.585938 1181.574219 754.746094 1192.792969 736.386719 C 1221.011719 690.152344 1157.945312 600.226562 1052.210938 536.140625 Z M 1091.820312 754.746094 C 1048.980469 749.308594 999.34375 730.4375 951.917969 701.710938 C 904.492188 672.980469 864.714844 637.453125 840.234375 602.097656 C 815.246094 565.886719 808.785156 533.761719 822.214844 511.660156 C 833.09375 493.640625 855.875 484.292969 887.320312 484.292969 C 894.632812 484.292969 902.449219 484.804688 910.78125 485.824219 C 953.617188 491.261719 1003.253906 510.132812 1050.683594 538.859375 C 1098.109375 567.757812 1137.886719 603.117188 1162.367188 638.472656 C 1187.355469 674.679688 1193.8125 706.808594 1180.382812 728.910156 C 1166.785156 751.007812 1135.507812 760.1875 1091.820312 754.746094 Z M 1157.265625 642.042969 C 1133.296875 607.367188 1094.199219 572.519531 1047.453125 544.128906 C 951.578125 485.992188 852.984375 472.902344 827.484375 514.722656 C 815.417969 534.609375 821.707031 564.359375 845.335938 598.355469 C 869.304688 633.035156 908.402344 667.882812 955.148438 696.269531 C 1001.894531 724.660156 1050.683594 743.1875 1092.667969 748.457031 C 1100.828125 749.476562 1108.308594 749.988281 1115.449219 749.988281 C 1144.515625 749.988281 1165.253906 741.65625 1175.113281 725.507812 C 1187.015625 705.789062 1180.722656 676.042969 1157.265625 642.042969 Z M 1082.46875 741.316406 C 1044.050781 736.386719 999.34375 719.558594 956.675781 693.550781 C 914.011719 667.710938 878.3125 635.753906 856.214844 603.964844 C 833.605469 571.328125 827.996094 542.429688 840.066406 522.371094 C 849.925781 506.222656 870.324219 497.550781 898.710938 497.550781 C 905.339844 497.550781 912.308594 498.0625 919.789062 498.914062 C 958.207031 503.84375 1002.914062 520.671875 1045.582031 546.679688 C 1088.25 572.519531 1123.949219 604.476562 1146.046875 636.265625 C 1168.65625 668.902344 1174.265625 697.800781 1162.195312 717.859375 C 1150.125 738.085938 1121.90625 746.246094 1082.46875 741.316406 Z M 1141.117188 640.003906 C 1119.527344 608.894531 1084.511719 577.617188 1042.523438 552.117188 C 990.503906 520.5 937.46875 503.671875 898.710938 503.671875 C 873.550781 503.671875 854.34375 510.8125 845.335938 525.601562 C 834.453125 543.449219 840.234375 569.96875 861.3125 600.394531 C 882.902344 631.503906 917.921875 662.78125 959.90625 688.28125 C 1001.894531 713.777344 1045.753906 730.4375 1083.320312 735.199219 C 1090.628906 736.046875 1097.429688 736.558594 1103.890625 736.558594 C 1129.898438 736.558594 1148.425781 729.078125 1157.09375 714.800781 C 1167.804688 696.949219 1162.195312 670.433594 1141.117188 640.003906 Z M 1073.289062 728.058594 C 1039.121094 723.808594 999.515625 708.679688 961.605469 685.730469 C 923.699219 662.78125 892.082031 634.394531 872.363281 606.175781 C 852.304688 577.109375 847.203125 551.269531 858.082031 533.421875 C 866.921875 518.972656 885.113281 511.320312 910.441406 511.320312 C 916.390625 511.320312 922.507812 511.660156 929.140625 512.511719 C 963.308594 516.761719 1002.914062 531.890625 1040.824219 554.839844 C 1078.730469 577.789062 1110.347656 606.175781 1130.066406 634.394531 C 1150.125 663.460938 1155.226562 689.300781 1144.347656 707.148438 C 1133.636719 725 1108.308594 732.476562 1073.289062 728.058594 Z M 1124.96875 637.964844 C 1105.929688 610.425781 1074.820312 582.71875 1037.59375 560.109375 C 1000.363281 537.5 961.605469 522.878906 928.289062 518.632812 C 895.820312 514.550781 872.703125 520.839844 863.183594 536.480469 C 843.125 569.628906 888.511719 634.054688 964.667969 680.292969 C 1010.734375 708.339844 1057.652344 723.128906 1091.988281 723.128906 C 1114.257812 723.128906 1131.085938 716.839844 1139.078125 703.75 C 1148.597656 688.28125 1143.667969 664.820312 1124.96875 637.964844 Z M 1064.109375 714.628906 C 1034.191406 710.890625 999.515625 697.800781 966.539062 677.570312 C 933.390625 657.511719 905.679688 632.863281 888.683594 608.046875 C 871.003906 582.546875 866.582031 559.9375 876.101562 544.128906 C 884.09375 530.871094 900.75 524.410156 922.339844 524.410156 C 953.449219 524.410156 994.753906 537.5 1036.0625 562.660156 C 1069.210938 582.71875 1096.917969 607.367188 1113.917969 632.183594 C 1131.597656 657.683594 1136.015625 680.292969 1126.496094 696.101562 C 1116.976562 712.078125 1094.710938 718.539062 1064.109375 714.628906 Z M 1108.820312 635.925781 C 1092.160156 611.957031 1065.132812 587.816406 1032.832031 568.097656 C 966.707031 527.980469 898.710938 518.632812 881.203125 547.359375 C 873.042969 560.789062 877.460938 581.1875 893.441406 604.476562 C 910.101562 628.445312 937.128906 652.582031 969.425781 672.300781 C 1001.894531 692.019531 1035.554688 704.769531 1064.621094 708.507812 C 1070.230469 709.191406 1075.5 709.53125 1080.429688 709.53125 C 1100.320312 709.53125 1114.429688 703.917969 1121.058594 693.039062 C 1129.386719 679.609375 1124.96875 659.210938 1108.820312 635.925781 Z M 1054.761719 701.371094 C 1029.261719 698.140625 999.515625 686.921875 971.296875 669.75 C 942.910156 652.582031 919.28125 631.503906 904.660156 610.253906 C 889.53125 588.328125 885.621094 568.777344 893.953125 555.179688 C 900.582031 544.128906 914.519531 538.351562 933.558594 538.351562 C 937.980469 538.351562 942.738281 538.691406 947.667969 539.199219 C 973.167969 542.429688 1002.914062 553.648438 1031.132812 570.816406 C 1091.308594 607.367188 1125.308594 657.683594 1108.480469 685.390625 C 1100.320312 698.988281 1081.28125 704.601562 1054.761719 701.371094 Z M 1027.902344 576.085938 C 1000.363281 559.257812 971.46875 548.378906 946.816406 545.320312 C 923.019531 542.257812 906.019531 546.847656 899.222656 558.238281 C 892.25 569.628906 895.992188 586.796875 909.761719 606.515625 C 923.871094 626.914062 946.988281 647.484375 974.527344 664.3125 C 1002.066406 681.140625 1030.964844 692.019531 1055.613281 695.082031 C 1060.371094 695.761719 1064.792969 695.929688 1069.039062 695.929688 C 1085.871094 695.929688 1097.769531 691.171875 1103.207031 681.992188 C 1117.828125 658.191406 1083.320312 609.746094 1027.902344 576.085938 Z M 976.054688 661.59375 C 952.597656 647.3125 932.878906 629.804688 920.640625 612.125 C 907.890625 593.765625 904.832031 577.449219 911.800781 565.886719 C 917.578125 556.199219 929.648438 551.609375 945.289062 551.609375 C 967.386719 551.609375 996.796875 560.957031 1026.203125 578.808594 C 1049.664062 593.085938 1069.382812 610.59375 1081.621094 628.273438 C 1094.371094 646.632812 1097.429688 662.953125 1090.460938 674.511719 C 1076.519531 697.628906 1026.203125 692.019531 976.054688 661.59375 Z M 1076.691406 631.84375 C 1064.960938 615.015625 1045.921875 598.015625 1023.144531 584.246094 C 977.585938 556.539062 928.96875 549.738281 917.070312 569.289062 C 911.628906 578.46875 914.691406 592.746094 925.738281 608.726562 C 937.46875 625.554688 956.507812 642.554688 979.285156 656.324219 C 1007.335938 673.320312 1036.402344 682.5 1057.480469 682.5 C 1070.742188 682.5 1080.769531 678.929688 1085.359375 671.28125 C 1090.800781 662.101562 1087.738281 647.824219 1076.691406 631.84375 Z M 980.984375 653.601562 C 940.867188 629.292969 918.429688 595.636719 929.820312 576.9375 C 934.410156 569.289062 943.929688 565.378906 956.847656 565.378906 C 959.738281 565.378906 962.96875 565.546875 966.195312 566.058594 C 983.195312 568.269531 1002.746094 575.578125 1021.613281 586.96875 C 1040.3125 598.355469 1055.953125 612.296875 1065.8125 626.40625 C 1076.011719 641.195312 1078.558594 654.453125 1072.949219 663.800781 C 1061.390625 682.332031 1021.105469 677.910156 980.984375 653.601562 Z M 1060.542969 629.804688 C 1051.363281 616.546875 1036.234375 603.117188 1018.214844 592.238281 C 1000.195312 581.355469 981.328125 574.21875 965.347656 572.179688 C 950.386719 570.308594 939.339844 573.199219 935.089844 580.167969 C 925.910156 595.464844 948.347656 626.574219 984.214844 648.332031 C 1006.316406 661.761719 1029.433594 669.070312 1045.921875 669.070312 C 1056.121094 669.070312 1063.941406 666.351562 1067.511719 660.402344 C 1071.589844 653.433594 1069.039062 642.214844 1060.542969 629.804688 Z M 1027.054688 661.253906 C 1014.472656 659.722656 999.855469 654.113281 985.746094 645.613281 C 955.65625 627.425781 939 601.925781 947.667969 587.816406 C 951.238281 581.867188 958.71875 578.976562 968.40625 578.976562 C 981.667969 578.976562 999.175781 584.417969 1016.515625 594.957031 C 1030.453125 603.457031 1042.183594 613.824219 1049.320312 624.363281 C 1057.140625 635.582031 1059.011719 645.613281 1054.59375 652.921875 C 1050.34375 659.890625 1040.484375 662.953125 1027.054688 661.253906 Z M 1044.390625 627.765625 C 1037.59375 618.074219 1026.542969 608.214844 1013.453125 600.226562 C 984.554688 582.71875 958.886719 581.355469 953.109375 591.046875 C 947.160156 600.734375 960.246094 622.835938 989.144531 640.34375 C 1002.40625 648.332031 1016.175781 653.601562 1027.902344 655.132812 C 1030.113281 655.472656 1032.152344 655.472656 1034.191406 655.472656 C 1041.84375 655.472656 1047.28125 653.433594 1049.664062 649.523438 C 1052.382812 644.59375 1050.511719 636.773438 1044.390625 627.765625 Z M 1044.390625 627.765625 " fill-opacity="1" fill-rule="nonzero"/><g clip-path="url(#a4737175da)"><path stroke-linecap="round" transform="matrix(-0.180545, 0.378293, -0.378293, -0.180545, 1606.330708, 272.410996)" fill="none" stroke-linejoin="miter" d="M -372.472406 -666.324399 C -328.063648 -653.133444 -284.102528 -641.897306 -239.606288 -622.118818 C -210.246744 -609.066579 -179.182442 -591.468767 -148.453452 -568.775102 C -121.129831 -548.586581 -93.590228 -527.447889 -58.372901 -497.210556 C -23.898157 -467.620439 8.972482 -433.753907 20.955378 -391.013017 C 45.244765 -304.312319 -43.254446 -128.921438 41.503965 1.635339 C 124.479042 129.429137 274.61264 84.499822 380.628977 108.817363 C 436.241742 121.576248 503.796528 153.190869 568.029729 216.790464 C 621.205251 269.445334 667.463752 338.546416 702.26046 401.005384 C 752.637884 491.415441 788.970685 566.699314 782.141437 641.03243 C 775.33455 715.736935 763.288739 717.520756 737.40705 785.447558 C 692.14533 905.910245 865.190637 918.507359 938.300359 1058.73335 C 962.87453 1105.852855 975.61221 1152.663365 982.277283 1201.029718 C 987.429185 1238.047168 990.144332 1282.918828 987.946785 1322.473244 C 987.587748 1330.223874 987.039032 1345.128006 983.643376 1367.070167 C 980.174314 1389.832137 975.549241 1410.626286 971.562052 1426.872015 C 964.839321 1454.305285 952.886281 1490.316786 942.757562 1520.046791 C 929.378188 1559.279219 913.872188 1595.8299 897.078411 1617.155121 C 819.933198 1715.144711 607.041207 1660.187205 507.635555 1819.8009 C 418.348367 1963.185552 554.749446 2072.544156 546.320651 2237.187647 C 536.64137 2426.12609 364.200081 2599.284036 364.200081 2599.284036 " stroke="#ddbb63" stroke-width="106" stroke-opacity="1" stroke-miterlimit="10"/><path stroke-linecap="round" transform="matrix(-0.180545, 0.378293, -0.378293, -0.180545, 1606.330708, 272.410996)" fill="none" stroke-linejoin="miter" d="M -372.472406 -666.324399 C -328.063648 -653.133444 -284.102528 -641.897306 -239.606288 -622.118818 C -210.246744 -609.066579 -179.182442 -591.468767 -148.453452 -568.775102 C -121.129831 -548.586581 -93.590228 -527.447889 -58.372901 -497.210556 C -23.898157 -467.620439 8.972482 -433.753907 20.955378 -391.013017 C 45.244765 -304.312319 -43.254446 -128.921438 41.503965 1.635339 C 124.479042 129.429137 274.61264 84.499822 380.628977 108.817363 C 436.241742 121.576248 503.796528 153.190869 568.029729 216.790464 C 621.205251 269.445334 667.463752 338.546416 702.26046 401.005384 C 752.637884 491.415441 788.970685 566.699314 782.141437 641.03243 C 775.33455 715.736935 763.288739 717.520756 737.40705 785.447558 C 692.14533 905.910245 865.190637 918.507359 938.300359 1058.73335 C 962.87453 1105.852855 975.61221 1152.663365 982.277283 1201.029718 C 987.429185 1238.047168 990.144332 1282.918828 987.946785 1322.473244 C 987.587748 1330.223874 987.039032 1345.128006 983.643376 1367.070167 C 980.174314 1389.832137 975.549241 1410.626286 971.562052 1426.872015 C 964.839321 1454.305285 952.886281 1490.316786 942.757562 1520.046791 C 929.378188 1559.279219 913.872188 1595.8299 897.078411 1617.155121 C 819.933198 1715.144711 607.041207 1660.187205 507.635555 1819.8009 C 418.348367 1963.185552 554.749446 2072.544156 546.320651 2237.187647 C 536.64137 2426.12609 364.200081 2599.284036 364.200081 2599.284036 " stroke="#ff309f" stroke-width="100" stroke-opacity="1" stroke-miterlimit="10"/><path stroke-linecap="round" transform="matrix(-0.180545, 0.378293, -0.378293, -0.180545, 1606.330708, 272.410996)" fill="none" stroke-linejoin="miter" d="M -447.694692 -634.254646 C -185.76106 -583.91985 -66.252996 -449.419676 -47.728699 -378.822778 C -25.588113 -294.504117 -135.980175 -122.016126 -42.37375 46.530477 C 51.245099 215.081476 232.674391 134.274829 394.565961 188.842126 C 477.850271 216.914831 564.018601 279.524893 630.383363 370.286799 C 691.70222 454.132553 713.499142 495.86564 721.355694 534.504194 C 735.069912 603.049515 720.107077 646.341985 700.13904 683.907018 C 653.77762 769.13565 627.103608 820.278804 663.692093 881.861974 C 705.150429 951.550201 806.059178 983.664584 860.596792 1055.897992 C 918.495602 1132.815758 930.562653 1190.726666 934.933978 1222.581926 C 951.464392 1342.982678 914.457119 1509.018951 845.033971 1575.091844 C 774.147234 1642.555094 584.824807 1589.080688 449.05211 1738.852317 C 314.76881 1886.963123 465.444129 2046.849398 473.535947 2213.221733 C 482.525962 2398.330427 340.885556 2570.965883 340.885556 2570.965883 " stroke="#ddbb63" stroke-width="106" stroke-opacity="1" stroke-miterlimit="10"/><path stroke-linecap="round" transform="matrix(-0.180545, 0.378293, -0.378293, -0.180545, 1606.330708, 272.410996)" fill="none" stroke-linejoin="miter" d="M -447.694692 -634.254646 C -185.76106 -583.91985 -66.252996 -449.419676 -47.728699 -378.822778 C -25.588113 -294.504117 -135.980175 -122.016126 -42.37375 46.530477 C 51.245099 215.081476 232.674391 134.274829 394.565961 188.842126 C 477.850271 216.914831 564.018601 279.524893 630.383363 370.286799 C 691.70222 454.132553 713.499142 495.86564 721.355694 534.504194 C 735.069912 603.049515 720.107077 646.341985 700.13904 683.907018 C 653.77762 769.13565 627.103608 820.278804 663.692093 881.861974 C 705.150429 951.550201 806.059178 983.664584 860.596792 1055.897992 C 918.495602 1132.815758 930.562653 1190.726666 934.933978 1222.581926 C 951.464392 1342.982678 914.457119 1509.018951 845.033971 1575.091844 C 774.147234 1642.555094 584.824807 1589.080688 449.05211 1738.852317 C 314.76881 1886.963123 465.444129 2046.849398 473.535947 2213.221733 C 482.525962 2398.330427 340.885556 2570.965883 340.885556 2570.965883 " stroke="#66ff00" stroke-width="100" stroke-opacity="1" stroke-miterlimit="10"/><path stroke-linecap="round" transform="matrix(-0.180545, 0.378293, -0.378293, -0.180545, 1595.702284, 335.554136)" fill="none" stroke-linejoin="miter" d="M -581.596469 -543.293129 C -373.626543 -492.91525 -306.718183 -380.222233 -288.04221 -320.385122 C -258.367464 -225.278123 -371.851116 -26.294765 -260.237434 150.64392 C -148.623751 327.582605 -9.33006 265.06828 133.114901 295.873529 C 205.506119 311.528951 298.538429 347.41278 395.929151 426.526946 C 416.884701 443.4765 455.219379 472.608103 476.916029 526.615015 C 498.604269 580.625942 506.597412 627.491075 470.76718 712.154406 C 436.015012 794.403235 386.284994 848.557816 407.954556 917.436755 C 454.955478 1066.891433 716.510122 1029.109578 738.602185 1276.374845 C 744.345366 1388.128407 698.161901 1514.751605 614.674318 1558.60349 C 518.804087 1608.964043 318.695181 1589.488419 205.339141 1754.727498 C 78.410469 1939.754469 226.306502 2045.547609 230.599307 2239.031739 C 234.659207 2421.815714 153.522928 2583.490475 153.522928 2583.490475 " stroke="#ddbb63" stroke-width="106" stroke-opacity="1" stroke-miterlimit="10"/><path stroke-linecap="round" transform="matrix(-0.180545, 0.378293, -0.378293, -0.180545, 1595.702284, 335.554136)" fill="none" stroke-linejoin="miter" d="M -581.596469 -543.293129 C -373.626543 -492.91525 -306.718183 -380.222233 -288.04221 -320.385122 C -258.367464 -225.278123 -371.851116 -26.294765 -260.237434 150.64392 C -148.623751 327.582605 -9.33006 265.06828 133.114901 295.873529 C 205.506119 311.528951 298.538429 347.41278 395.929151 426.526946 C 416.884701 443.4765 455.219379 472.608103 476.916029 526.615015 C 498.604269 580.625942 506.597412 627.491075 470.76718 712.154406 C 436.015012 794.403235 386.284994 848.557816 407.954556 917.436755 C 454.955478 1066.891433 716.510122 1029.109578 738.602185 1276.374845 C 744.345366 1388.128407 698.161901 1514.751605 614.674318 1558.60349 C 518.804087 1608.964043 318.695181 1589.488419 205.339141 1754.727498 C 78.410469 1939.754469 226.306502 2045.547609 230.599307 2239.031739 C 234.659207 2421.815714 153.522928 2583.490475 153.522928 2583.490475 " stroke="#77f8ff" stroke-width="100" stroke-opacity="1" stroke-miterlimit="10"/><path stroke-linecap="round" transform="matrix(-0.180545, 0.378293, -0.378293, -0.180545, 1595.702284, 335.554136)" fill="none" stroke-linejoin="miter" d="M -669.593375 -511.291159 C -490.627772 -482.416494 -407.468283 -412.350376 -372.049506 -318.384253 C -313.626628 -174.422137 -461.660537 16.794977 -334.143458 218.185127 C -206.622366 419.583688 -9.334546 337.063214 133.110415 367.868463 C 185.273837 379.155138 234.726999 396.165165 305.181857 442.142826 C 367.724611 483.160842 412.332923 558.367379 403.13883 636.183469 C 389.529518 757.648225 275.245176 831.542634 312.327176 936.176813 C 350.7909 1045.696604 451.265746 1058.078588 570.820764 1116.908161 C 667.583297 1164.848523 684.29442 1235.216224 684.30809 1286.695079 C 681.648507 1351.871938 658.163858 1407.296137 629.032302 1440.633016 C 586.063036 1489.805532 555.375506 1510.492209 470.044376 1531.247003 C 366.302559 1556.503222 246.948332 1570.747774 158.672602 1659.262715 C 54.74809 1763.496679 48.205824 1871.014795 76.114213 1967.202306 C 102.921849 2059.547271 152.267226 2136.695667 160.408124 2224.78391 C 176.396738 2397.857961 99.386365 2528.237779 99.386365 2528.237779 " stroke="#ddbb63" stroke-width="106" stroke-opacity="1" stroke-miterlimit="10"/><path stroke-linecap="round" transform="matrix(-0.180545, 0.378293, -0.378293, -0.180545, 1595.702284, 335.554136)" fill="none" stroke-linejoin="miter" d="M -669.593375 -511.291159 C -490.627772 -482.416494 -407.468283 -412.350376 -372.049506 -318.384253 C -313.626628 -174.422137 -461.660537 16.794977 -334.143458 218.185127 C -206.622366 419.583688 -9.334546 337.063214 133.110415 367.868463 C 185.273837 379.155138 234.726999 396.165165 305.181857 442.142826 C 367.724611 483.160842 412.332923 558.367379 403.13883 636.183469 C 389.529518 757.648225 275.245176 831.542634 312.327176 936.176813 C 350.7909 1045.696604 451.265746 1058.078588 570.820764 1116.908161 C 667.583297 1164.848523 684.29442 1235.216224 684.30809 1286.695079 C 681.648507 1351.871938 658.163858 1407.296137 629.032302 1440.633016 C 586.063036 1489.805532 555.375506 1510.492209 470.044376 1531.247003 C 366.302559 1556.503222 246.948332 1570.747774 158.672602 1659.262715 C 54.74809 1763.496679 48.205824 1871.014795 76.114213 1967.202306 C 102.921849 2059.547271 152.267226 2136.695667 160.408124 2224.78391 C 176.396738 2397.857961 99.386365 2528.237779 99.386365 2528.237779 " stroke="#d700fa" stroke-width="100" stroke-opacity="1" stroke-miterlimit="10"/></g><g clip-path="url(#7681919e44)"><path fill="#d700fa" d="M 172.085938 490.351562 C 168.542969 490.289062 164.992188 490.625 161.511719 491.386719 C 149.121094 494.113281 138.167969 502.183594 131.320312 512.832031 C 124.113281 524.042969 109.507812 528.140625 97.671875 522.011719 C 83.355469 514.597656 71.339844 502.511719 64.015625 488.148438 C 58.082031 476.515625 61.746094 462.078125 72.652344 454.894531 C 87.300781 445.246094 96.859375 427.523438 95.183594 409.917969 C 92.945312 386.429688 71.03125 366.507812 47.4375 366.511719 C 23.84375 366.519531 1.933594 386.453125 -0.292969 409.941406 C -1.957031 427.523438 7.585938 445.226562 22.210938 454.875 C 33.128906 462.078125 36.800781 476.535156 30.839844 488.179688 C 23.40625 502.695312 11.191406 514.878906 -3.34375 522.273438 C -14.976562 528.1875 -29.402344 524.554688 -36.582031 513.660156 C -46.242188 499.011719 -63.988281 489.460938 -81.597656 491.160156 C -105.078125 493.421875 -124.976562 515.355469 -124.949219 538.945312 C -124.917969 562.535156 -104.96875 584.417969 -81.484375 586.625 C -63.910156 588.277344 -46.230469 578.734375 -36.589844 564.117188 C -29.382812 553.1875 -14.917969 549.503906 -3.269531 555.476562 C 11.25 562.921875 23.429688 575.148438 30.816406 589.691406 C 36.722656 601.324219 33.089844 615.742188 22.199219 622.925781 C 7.558594 632.582031 -1.980469 650.308594 -0.296875 667.90625 C 1.949219 691.371094 23.835938 711.273438 47.40625 711.285156 C 70.976562 711.300781 92.886719 691.421875 95.160156 667.960938 C 96.867188 650.367188 87.34375 632.628906 72.71875 622.957031 C 61.828125 615.753906 58.160156 601.328125 64.054688 589.679688 C 71.183594 575.589844 82.824219 563.675781 96.734375 556.191406 C 108.734375 549.734375 123.671875 553.472656 131.109375 564.890625 C 138.253906 575.851562 149.804688 584.023438 162.71875 586.355469 C 203.953125 593.800781 235.175781 545.039062 211.125 510.71875 C 202.371094 498.230469 187.277344 490.628906 172.085938 490.351562 Z M 172.085938 490.351562 " fill-opacity="1" fill-rule="nonzero"/></g><path fill="#fff627" d="M 87.464844 447.5625 C 85.5625 449.394531 83.867188 451.441406 82.4375 453.675781 C 77.34375 461.640625 75.824219 471.667969 77.828125 480.882812 C 79.9375 490.589844 74.402344 500.445312 64.9375 503.453125 C 53.484375 507.089844 40.785156 507.050781 29.359375 503.34375 C 20.101562 500.339844 14.425781 490.800781 16.390625 481.269531 C 19.023438 468.46875 14.71875 454.09375 4.5625 445.699219 C -8.992188 434.503906 -31.039062 435.554688 -43.46875 447.988281 C -55.894531 460.421875 -56.9375 482.46875 -45.734375 496.019531 C -37.34375 506.160156 -22.992188 510.460938 -10.199219 507.835938 C -0.648438 505.878906 8.898438 511.5625 11.894531 520.839844 C 15.625 532.40625 15.609375 545.261719 11.847656 556.816406 C 8.835938 566.058594 -0.679688 571.746094 -10.203125 569.792969 C -23.015625 567.160156 -37.394531 571.480469 -45.78125 581.652344 C -56.960938 595.21875 -55.886719 617.257812 -43.441406 629.671875 C -30.996094 642.085938 -8.957031 643.105469 4.582031 631.894531 C 14.710938 623.503906 19 609.160156 16.378906 596.378906 C 14.417969 586.824219 20.097656 577.261719 29.382812 574.269531 C 40.953125 570.542969 53.8125 570.566406 65.371094 574.339844 C 74.609375 577.355469 80.292969 586.867188 78.339844 596.390625 C 75.714844 609.191406 80.027344 623.558594 90.1875 631.945312 C 103.734375 643.125 125.753906 642.078125 138.179688 629.664062 C 150.605469 617.253906 151.679688 595.238281 140.515625 581.675781 C 132.140625 571.507812 117.777344 567.179688 104.972656 569.789062 C 95.441406 571.730469 85.910156 566.0625 82.875 556.820312 C 79.210938 545.640625 79.0625 533.226562 82.449219 521.957031 C 85.371094 512.230469 95.210938 506.328125 105.148438 508.425781 C 114.6875 510.4375 125.078125 508.65625 133.113281 503.082031 C 158.761719 485.277344 149.519531 443.132812 118.765625 437.722656 C 107.570312 435.753906 95.613281 439.703125 87.464844 447.5625 Z M 87.464844 447.5625 " fill-opacity="1" fill-rule="nonzero"/></svg>